# Blender v2.80 (sub 45) OBJ File: 'Chamber0001.blend'
# www.blender.org
o chamber0001_base
v -6.000000 0.000000 25.000000
v 6.000000 0.000000 25.000000
v -6.000000 0.000000 17.000000
v 6.000000 0.000000 17.000000
v -6.000000 4.000000 17.000000
v -6.000000 4.000000 25.000000
v 6.000000 4.000000 25.000000
v 6.000000 4.000000 17.000000
v -2.000000 0.000000 25.000000
v 2.000000 0.000000 25.000000
v 2.000000 0.000000 15.000000
v -2.000000 0.000000 15.000000
v -2.000000 4.000000 25.000000
v 2.000000 4.000000 25.000000
v 2.000000 4.000000 15.000000
v -2.000000 4.000000 15.000000
v 2.000000 0.000000 5.000000
v -2.000000 0.000000 5.000000
v 2.000000 4.000000 5.000000
v -2.000000 4.000000 5.000000
v 2.000000 0.000000 -5.000000
v -2.000000 0.000000 -5.000000
v 2.000000 4.000000 -5.000000
v -2.000000 4.000000 -5.000000
v -6.000000 4.000000 5.000000
v -6.000000 0.000000 5.000000
v -6.000000 4.000000 -5.000000
v -6.000000 0.000000 -5.000000
v 6.000000 4.000000 5.000000
v 6.000000 0.000000 5.000000
v 6.000000 4.000000 -5.000000
v 6.000000 0.000000 -5.000000
v 2.000000 0.000000 -14.000000
v -2.000000 0.000000 -14.000000
v 2.000000 4.000000 -14.000000
v -2.000000 4.000000 -14.000000
v 2.000000 0.000000 -26.000000
v -2.000000 0.000000 -26.000000
v 2.000000 4.000000 -26.000000
v -2.000000 4.000000 -26.000000
v 6.000000 4.000000 -14.000000
v 6.000000 0.000000 -14.000000
v 6.000000 4.000000 -26.000000
v 6.000000 0.000000 -26.000000
v -6.000000 4.000000 -14.000000
v -6.000000 0.000000 -14.000000
v -6.000000 4.000000 -26.000000
v -6.000000 0.000000 -26.000000
v 2.000000 4.000000 -17.999998
v 2.000000 4.000000 -21.999998
v 2.000000 0.000000 -22.000002
v 2.000000 0.000000 -18.000004
v -2.000000 0.000000 -22.000002
v -2.000000 0.000000 -18.000004
v -2.000000 4.000000 -22.000002
v -2.000000 4.000000 -18.000004
v 6.000000 4.000000 -17.999998
v 6.000000 4.000000 -21.999998
v 6.000000 0.000000 -22.000002
v 6.000000 0.000000 -18.000004
v -6.000000 0.000000 -22.000002
v -6.000000 0.000000 -18.000004
v -6.000000 4.000000 -22.000002
v -6.000000 4.000000 -18.000004
v 12.000000 4.000000 -17.999998
v 12.000000 4.000000 -21.999998
v 12.000000 0.000000 -22.000002
v 12.000000 0.000000 -18.000004
v 12.000000 4.000000 -29.999996
v 12.000000 0.000000 -30.000000
v 16.000002 4.000000 -17.999998
v 16.000000 0.000000 -18.000004
v 16.000002 4.000000 -21.999998
v 16.000002 0.000000 -22.000002
v 16.000002 4.000000 -29.999996
v 16.000002 0.000000 -30.000000
vt -0.000000 0.000000
vt 1.000000 2.000000
vt 0.000000 2.500000
vt 2.000000 1.000000
vt -0.000000 -0.000000
vt 2.000000 0.000000
vt 2.000000 1.000000
vt -0.000000 0.000000
vt 2.000000 0.000000
vt 1.117188 1.000000
vt 0.000000 -0.000000
vt 1.117188 0.000000
vt 1.000000 1.000000
vt 0.000000 0.000000
vt 1.000000 0.000000
vt 1.000000 1.000000
vt 0.000000 0.000000
vt 1.000000 0.000000
vt 1.000000 1.000000
vt 1.000000 0.000000
vt 1.000000 1.000000
vt -0.117188 0.000000
vt 1.000000 0.000000
vt -1.500000 0.000000
vt 1.000000 1.000000
vt -1.500000 1.000000
vt 0.000000 2.000000
vt 0.000000 2.500000
vt 0.000000 -0.000000
vt 1.000000 1.000000
vt -0.000000 1.000000
vt 0.000000 2.500000
vt 1.000000 0.000000
vt 1.000000 2.500000
vt 1.000000 -1.500000
vt 0.000000 1.000000
vt 0.000000 -1.500000
vt 2.500000 1.000000
vt 0.000000 -0.000000
vt 2.500000 0.000000
vt 2.500000 1.000000
vt -0.000000 0.000000
vt 2.500000 0.000000
vt 1.000000 -1.500000
vt 1.000000 1.000000
vt 0.000000 -1.500000
vt 1.000000 1.000000
vt 0.000000 1.000000
vt 1.000000 -0.000000
vt 0.000000 2.500000
vt 0.000000 -0.000000
vt 2.500000 1.000000
vt 0.000000 1.000000
vt 1.000000 2.500000
vt 1.000000 -0.000000
vt 0.000000 -1.500000
vt 1.000000 -1.500000
vt 1.000000 1.000000
vt 0.000000 -0.000000
vt 1.000000 -0.000000
vt -1.500000 0.000000
vt 1.000000 -0.000000
vt 0.000000 0.000000
vt 1.000000 1.000000
vt -0.000000 1.000000
vt 1.000000 2.500000
vt 0.000000 2.500000
vt 0.000000 0.000000
vt 0.561644 0.818182
vt 0.500000 0.878788
vt 0.500000 0.818182
vt 1.000000 -1.500000
vt 0.000000 1.000000
vt 0.000000 -1.500000
vt -1.500000 0.000000
vt 1.000000 1.000000
vt -1.500000 1.000000
vt 0.000000 2.500000
vt 1.000000 -0.000000
vt 1.000000 2.500000
vt 1.000000 1.000000
vt 0.000000 -0.000000
vt 1.000000 -0.000000
vt 1.000000 -0.000000
vt 0.000000 1.000000
vt 0.000000 -0.000000
vt 0.000000 0.000000
vt 1.000000 0.000000
vt 0.000000 1.000000
vt 1.000000 -0.000000
vt 1.000000 1.000000
vt 0.376712 0.818182
vt 0.438356 0.878788
vt 0.376712 0.878788
vt 1.000000 1.000000
vt 0.000000 1.000000
vt 0.000000 -0.000000
vt 1.000000 1.000000
vt -0.000000 1.000000
vt 0.000000 0.000000
vt 1.000000 1.000000
vt -0.000000 1.000000
vt 0.815069 0.636364
vt 0.876712 0.575758
vt 0.876712 0.636364
vt 1.000000 1.000000
vt -0.000000 0.000000
vt 1.000000 -0.000000
vt 0.746575 0.818182
vt 0.684931 0.878788
vt 0.684931 0.818182
vt 1.000000 1.000000
vt 0.000000 0.000000
vt 1.000000 -0.000000
vt 1.000000 1.000000
vt 0.000000 -0.000000
vt 1.000000 -0.000000
vt 1.000000 1.000000
vt 0.000000 0.000000
vt 1.000000 0.000000
vt 0.815069 0.757576
vt 0.876712 0.696970
vt 0.876712 0.757576
vt 0.815069 0.696970
vt 0.000000 -0.000000
vt 1.000000 1.000000
vt -0.000000 1.000000
vt -0.000000 0.000000
vt 1.000000 1.000000
vt -0.000000 1.000000
vt 0.000000 -0.000000
vt 1.000000 1.000000
vt -0.000000 1.000000
vt 0.000000 0.000000
vt 1.000000 1.000000
vt 0.000000 1.000000
vt 0.815069 0.757576
vt 0.876712 0.818182
vt 0.815069 0.818182
vt 0.753425 0.848485
vt 0.815068 0.757576
vt 0.815068 0.848485
vt 0.000000 1.000000
vt 1.000000 -0.000000
vt 1.000000 1.000000
vt 0.000000 1.000000
vt 1.000000 0.000000
vt 1.000000 1.000000
vt 1.000000 1.000000
vt 0.000000 0.000000
vt 1.000000 0.000000
vt 1.000000 1.000000
vt 0.000000 -0.000000
vt 1.000000 -0.000000
vt 1.000000 -0.000000
vt -0.000000 1.000000
vt 0.000000 -0.000000
vt 1.000000 0.000000
vt 0.000000 1.000000
vt 0.000000 0.000000
vt 0.876712 0.696970
vt 0.938356 0.606061
vt 0.938356 0.696970
vt 0.205479 0.787879
vt 0.308219 0.848485
vt 0.205479 0.848485
vt 0.547945 0.666667
vt 0.445205 0.606061
vt 0.547945 0.606061
vt 0.938356 0.393940
vt 0.876712 0.545455
vt 0.876712 0.393939
vt 0.445205 0.666667
vt 0.376712 0.818182
vt 0.376712 0.666667
vt 0.815068 0.212121
vt 0.753425 0.151515
vt 0.815068 0.151515
vt 0.376712 0.787879
vt 0.376712 0.848485
vt 0.308219 1.000000
vt 0.753425 0.000000
vt 0.376712 0.606061
vt 0.876712 0.606061
vt 0.938356 0.545455
vt 1.000000 0.000000
vt -0.000000 1.000000
vt 0.000000 1.000000
vt 0.000000 1.000000
vt 0.000000 1.000000
vt 0.000000 1.000000
vt 0.000000 1.000000
vt -0.117188 1.000000
vt 1.000000 2.500000
vt 1.000000 2.500000
vt 1.000000 -0.000000
vt 0.000000 0.000000
vt 1.000000 1.000000
vt 0.000000 -1.500000
vt 1.000000 -1.500000
vt 1.000000 2.500000
vt 2.500000 0.000000
vt 0.000000 2.500000
vt 0.000000 1.000000
vt -1.500000 1.000000
vt 1.000000 -0.000000
vt 0.000000 1.000000
vt 0.561644 0.878788
vt 1.000000 1.000000
vt 0.000000 -0.000000
vt 0.000000 1.000000
vt 1.000000 1.000000
vt 0.000000 1.000000
vt 0.000000 -0.000000
vt 0.438356 0.818182
vt 1.000000 -0.000000
vt 1.000000 -0.000000
vt 1.000000 0.000000
vt 0.815069 0.575758
vt -0.000000 1.000000
vt 0.746575 0.878788
vt 0.000000 1.000000
vt 0.000000 1.000000
vt -0.000000 1.000000
vt 1.000000 -0.000000
vt 1.000000 -0.000000
vt 1.000000 -0.000000
vt 1.000000 0.000000
vt 0.876712 0.757576
vt 0.753425 0.757576
vt 0.000000 0.000000
vt 0.000000 -0.000000
vt 0.000000 1.000000
vt 0.000000 1.000000
vt 1.000000 1.000000
vt 1.000000 1.000000
vt 0.308219 0.787879
vt 0.938356 0.545455
vt 0.445205 0.818182
vt 0.753425 0.212121
vt 0.376712 1.000000
vt 0.815068 0.000000
vt 0.876712 0.545455
vn 0.0000 1.0000 0.0000
vn -1.0000 0.0000 0.0000
vn 1.0000 0.0000 0.0000
vn 0.4472 0.0000 0.8944
vn 0.0000 0.0000 -1.0000
vn -0.4472 0.0000 0.8944
vn 0.0000 -1.0000 0.0000
vn 0.0000 0.0000 1.0000
s off
f 10/1/1 4/2/1 11/3/1
f 7/4/2 4/5/2 2/6/2
f 5/7/3 1/8/3 3/9/3
f 16/10/4 3/11/4 12/12/4
f 14/13/5 2/14/5 10/15/5
f 6/16/5 9/17/5 1/18/5
f 13/19/5 10/1/5 9/20/5
f 8/21/6 11/22/6 4/23/6
f 12/24/3 20/25/3 16/26/3
f 9/20/1 3/27/1 1/8/1
f 10/15/1 12/28/1 9/17/1
f 18/29/5 25/30/5 20/31/5
f 16/32/7 19/33/7 15/34/7
f 11/35/1 18/36/1 12/37/1
f 15/38/2 17/39/2 11/40/2
f 23/41/2 33/42/2 21/43/2
f 20/31/7 23/44/7 19/45/7
f 23/46/7 29/47/7 19/48/7
f 17/49/1 22/50/1 18/29/1
f 26/51/3 27/52/3 25/53/3
f 22/54/1 26/51/1 18/55/1
f 20/25/7 27/56/7 24/57/7
f 24/58/8 28/59/8 22/60/8
f 29/47/2 32/61/2 30/62/2
f 21/63/8 31/64/8 23/65/8
f 17/39/1 32/66/1 21/67/1
f 19/45/5 30/68/5 17/49/5
f 35/69/5 42/70/5 33/71/5
f 21/72/1 34/73/1 22/74/1
f 22/75/3 36/76/3 24/77/3
f 24/78/7 35/79/7 23/80/7
f 39/81/8 38/82/8 37/83/8
f 51/84/1 38/85/1 53/86/1
f 36/76/7 64/87/7 56/88/7
f 55/89/7 39/90/7 50/91/7
f 59/92/2 43/93/2 44/94/2
f 33/42/1 60/95/1 52/96/1
f 39/97/7 58/98/7 50/99/7
f 37/100/8 43/101/8 39/102/8
f 61/103/3 47/104/3 63/105/3
f 40/106/8 48/107/8 38/108/8
f 34/109/5 45/110/5 36/111/5
f 38/112/1 61/113/1 53/114/1
f 54/115/1 46/116/1 34/117/1
f 53/118/1 62/119/1 54/120/1
f 46/121/3 64/122/3 45/123/3
f 62/124/3 63/105/3 64/122/3
f 49/125/7 41/126/7 35/127/7
f 50/128/7 57/129/7 49/130/7
f 51/131/1 44/132/1 37/133/1
f 52/134/1 59/135/1 51/136/1
f 42/137/2 57/138/2 60/139/2
f 59/140/8 66/141/8 58/142/8
f 36/143/7 49/144/7 35/145/7
f 56/146/7 50/147/7 49/148/7
f 55/149/7 47/150/7 40/151/7
f 56/152/7 63/153/7 55/154/7
f 33/155/1 54/156/1 34/157/1
f 52/158/1 53/159/1 54/160/1
f 57/161/5 68/162/5 60/163/5
f 60/164/1 67/165/1 59/166/1
f 58/167/7 65/168/7 57/169/7
f 67/170/3 69/171/3 66/172/3
f 66/173/7 75/174/7 73/175/7
f 72/176/2 73/177/2 74/178/2
f 67/165/1 72/179/1 74/180/1
f 74/180/1 70/181/1 67/165/1
f 75/182/2 74/178/2 73/177/2
f 66/173/7 71/183/7 65/168/7
f 65/184/5 72/185/5 68/162/5
f 10/1/1 2/186/1 4/2/1
f 7/4/2 8/187/2 4/5/2
f 5/7/3 6/188/3 1/8/3
f 16/10/4 5/189/4 3/11/4
f 14/13/5 7/190/5 2/14/5
f 6/16/5 13/191/5 9/17/5
f 13/19/5 14/192/5 10/1/5
f 8/21/6 15/193/6 11/22/6
f 12/24/3 18/55/3 20/25/3
f 9/20/1 12/194/1 3/27/1
f 10/15/1 11/195/1 12/28/1
f 18/29/5 26/196/5 25/30/5
f 16/32/7 20/197/7 19/33/7
f 11/35/1 17/198/1 18/36/1
f 15/38/2 19/48/2 17/39/2
f 23/41/2 35/127/2 33/42/2
f 20/31/7 24/199/7 23/44/7
f 23/46/7 31/200/7 29/47/7
f 17/49/1 21/201/1 22/50/1
f 26/51/3 28/202/3 27/52/3
f 22/54/1 28/203/1 26/51/1
f 20/25/7 25/53/7 27/56/7
f 24/58/8 27/204/8 28/59/8
f 29/47/2 31/205/2 32/61/2
f 21/63/8 32/206/8 31/64/8
f 17/39/1 30/62/1 32/66/1
f 19/45/5 29/207/5 30/68/5
f 35/69/5 41/208/5 42/70/5
f 21/72/1 33/209/1 34/73/1
f 22/75/3 34/117/3 36/76/3
f 24/78/7 36/210/7 35/79/7
f 39/81/8 40/211/8 38/82/8
f 51/84/1 37/212/1 38/85/1
f 36/76/7 45/213/7 64/87/7
f 55/89/7 40/214/7 39/90/7
f 59/92/2 58/215/2 43/93/2
f 33/42/1 42/216/1 60/95/1
f 39/97/7 43/217/7 58/98/7
f 37/100/8 44/218/8 43/101/8
f 61/103/3 48/219/3 47/104/3
f 40/106/8 47/220/8 48/107/8
f 34/109/5 46/221/5 45/110/5
f 38/112/1 48/222/1 61/113/1
f 54/115/1 62/223/1 46/116/1
f 53/118/1 61/224/1 62/119/1
f 46/121/3 62/124/3 64/122/3
f 62/124/3 61/103/3 63/105/3
f 49/125/7 57/225/7 41/126/7
f 50/128/7 58/226/7 57/129/7
f 51/131/1 59/227/1 44/132/1
f 52/134/1 60/228/1 59/135/1
f 42/137/2 41/229/2 57/138/2
f 59/140/8 67/230/8 66/141/8
f 36/143/7 56/231/7 49/144/7
f 56/146/7 55/232/7 50/147/7
f 55/149/7 63/233/7 47/150/7
f 56/152/7 64/234/7 63/153/7
f 33/155/1 52/235/1 54/156/1
f 52/158/1 51/236/1 53/159/1
f 57/161/5 65/184/5 68/162/5
f 60/164/1 68/237/1 67/165/1
f 58/167/7 66/173/7 65/168/7
f 67/170/3 70/238/3 69/171/3
f 66/173/7 69/239/7 75/174/7
f 72/176/2 71/240/2 73/177/2
f 67/165/1 68/237/1 72/179/1
f 74/180/1 76/241/1 70/181/1
f 75/182/2 76/242/2 74/178/2
f 66/173/7 73/175/7 71/183/7
f 65/184/5 71/243/5 72/185/5
