{
    "asset" : {
        "generator" : "Khronos glTF Blender I/O v1.2.18",
        "version" : "2.0"
    },
    "scene" : 0,
    "scenes" : [
        {
            "extras" : {
                "glTF2ExportSettings" : {
                    "export_animations" : 1,
                    "export_apply" : 0,
                    "export_def_bones" : 0,
                    "export_extras" : 1,
                    "export_force_sampling" : 1,
                    "export_format" : "GLTF_EMBEDDED",
                    "export_morph" : 1,
                    "export_morph_tangent" : 1,
                    "export_skins" : 1,
                    "export_tangents" : 1
                }
            },
            "name" : "Scene",
            "nodes" : [
                0
            ]
        }
    ],
    "nodes" : [
        {
            "mesh" : 0,
            "name" : "button_0001"
        }
    ],
    "animations" : [
        {
            "channels" : [
                {
                    "sampler" : 0,
                    "target" : {
                        "node" : 0,
                        "path" : "weights"
                    }
                }
            ],
            "name" : "ActionPress",
            "samplers" : [
                {
                    "input" : 20,
                    "interpolation" : "STEP",
                    "output" : 21
                }
            ]
        },
        {
            "channels" : [
                {
                    "sampler" : 0,
                    "target" : {
                        "node" : 0,
                        "path" : "weights"
                    }
                }
            ],
            "name" : "ActionRelease",
            "samplers" : [
                {
                    "input" : 20,
                    "interpolation" : "STEP",
                    "output" : 22
                }
            ]
        }
    ],
    "materials" : [
        {
            "emissiveFactor" : [
                0,
                0,
                0
            ],
            "name" : "mat_grid",
            "pbrMetallicRoughness" : {
                "baseColorTexture" : {
                    "index" : 0,
                    "texCoord" : 0
                },
                "metallicFactor" : 1,
                "roughnessFactor" : 0.5
            }
        },
        {
            "doubleSided" : true,
            "emissiveFactor" : [
                0,
                0,
                0
            ],
            "name" : "mat_rainbow",
            "pbrMetallicRoughness" : {
                "baseColorTexture" : {
                    "index" : 1,
                    "texCoord" : 0
                },
                "metallicFactor" : 1,
                "roughnessFactor" : 0.30000001192092896
            }
        }
    ],
    "meshes" : [
        {
            "extras" : {
                "targetNames" : [
                    "Pressed"
                ]
            },
            "name" : "button_0001",
            "primitives" : [
                {
                    "attributes" : {
                        "POSITION" : 0,
                        "NORMAL" : 1,
                        "TANGENT" : 2,
                        "TEXCOORD_0" : 3,
                        "JOINTS_0" : 4,
                        "WEIGHTS_0" : 5
                    },
                    "indices" : 6,
                    "material" : 0,
                    "targets" : [
                        {
                            "POSITION" : 7,
                            "NORMAL" : 8,
                            "TANGENT" : 9
                        }
                    ]
                },
                {
                    "attributes" : {
                        "POSITION" : 10,
                        "NORMAL" : 11,
                        "TANGENT" : 12,
                        "TEXCOORD_0" : 13,
                        "JOINTS_0" : 14,
                        "WEIGHTS_0" : 15
                    },
                    "indices" : 16,
                    "material" : 1,
                    "targets" : [
                        {
                            "POSITION" : 17,
                            "NORMAL" : 18,
                            "TANGENT" : 19
                        }
                    ]
                }
            ],
            "weights" : [
                1
            ]
        }
    ],
    "textures" : [
        {
            "source" : 0
        },
        {
            "source" : 1
        }
    ],
    "images" : [
        {
            "bufferView" : 7,
            "mimeType" : "image/png",
            "name" : "tex_grid"
        },
        {
            "bufferView" : 18,
            "mimeType" : "image/png",
            "name" : "tex_rainbow"
        }
    ],
    "accessors" : [
        {
            "bufferView" : 0,
            "componentType" : 5126,
            "count" : 294,
            "max" : [
                0.9901028871536255,
                0.6036344170570374,
                0.9901031851768494
            ],
            "min" : [
                -0.9901034832000732,
                0.18664051592350006,
                -0.9901030659675598
            ],
            "type" : "VEC3"
        },
        {
            "bufferView" : 1,
            "componentType" : 5126,
            "count" : 294,
            "type" : "VEC3"
        },
        {
            "bufferView" : 2,
            "componentType" : 5126,
            "count" : 294,
            "type" : "VEC4"
        },
        {
            "bufferView" : 3,
            "componentType" : 5126,
            "count" : 294,
            "type" : "VEC2"
        },
        {
            "bufferView" : 4,
            "componentType" : 5123,
            "count" : 294,
            "type" : "VEC4"
        },
        {
            "bufferView" : 5,
            "componentType" : 5126,
            "count" : 294,
            "type" : "VEC4"
        },
        {
            "bufferView" : 6,
            "componentType" : 5123,
            "count" : 1344,
            "type" : "SCALAR"
        },
        {
            "bufferView" : 8,
            "componentType" : 5126,
            "count" : 294,
            "max" : [
                0,
                -0.14592334628105164,
                0
            ],
            "min" : [
                0,
                -0.14592334628105164,
                0
            ],
            "type" : "VEC3"
        },
        {
            "bufferView" : 9,
            "componentType" : 5126,
            "count" : 294,
            "type" : "VEC3"
        },
        {
            "bufferView" : 10,
            "componentType" : 5126,
            "count" : 294,
            "type" : "VEC3"
        },
        {
            "bufferView" : 11,
            "componentType" : 5126,
            "count" : 362,
            "max" : [
                1.316431999206543,
                0.3804836869239807,
                1.316420555114746
            ],
            "min" : [
                -1.3164184093475342,
                0,
                -1.316429615020752
            ],
            "type" : "VEC3"
        },
        {
            "bufferView" : 12,
            "componentType" : 5126,
            "count" : 362,
            "type" : "VEC3"
        },
        {
            "bufferView" : 13,
            "componentType" : 5126,
            "count" : 362,
            "type" : "VEC4"
        },
        {
            "bufferView" : 14,
            "componentType" : 5126,
            "count" : 362,
            "type" : "VEC2"
        },
        {
            "bufferView" : 15,
            "componentType" : 5123,
            "count" : 362,
            "type" : "VEC4"
        },
        {
            "bufferView" : 16,
            "componentType" : 5126,
            "count" : 362,
            "type" : "VEC4"
        },
        {
            "bufferView" : 17,
            "componentType" : 5123,
            "count" : 1344,
            "type" : "SCALAR"
        },
        {
            "bufferView" : 19,
            "componentType" : 5126,
            "count" : 362,
            "max" : [
                0,
                0,
                0
            ],
            "min" : [
                0,
                0,
                0
            ],
            "type" : "VEC3"
        },
        {
            "bufferView" : 20,
            "componentType" : 5126,
            "count" : 362,
            "type" : "VEC3"
        },
        {
            "bufferView" : 21,
            "componentType" : 5126,
            "count" : 362,
            "type" : "VEC3"
        },
        {
            "bufferView" : 22,
            "componentType" : 5126,
            "count" : 16,
            "max" : [
                0.6666666666666666
            ],
            "min" : [
                0.041666666666666664
            ],
            "type" : "SCALAR"
        },
        {
            "bufferView" : 23,
            "componentType" : 5126,
            "count" : 16,
            "type" : "SCALAR"
        },
        {
            "bufferView" : 24,
            "componentType" : 5126,
            "count" : 16,
            "type" : "SCALAR"
        }
    ],
    "bufferViews" : [
        {
            "buffer" : 0,
            "byteLength" : 3528,
            "byteOffset" : 0
        },
        {
            "buffer" : 0,
            "byteLength" : 3528,
            "byteOffset" : 3528
        },
        {
            "buffer" : 0,
            "byteLength" : 4704,
            "byteOffset" : 7056
        },
        {
            "buffer" : 0,
            "byteLength" : 2352,
            "byteOffset" : 11760
        },
        {
            "buffer" : 0,
            "byteLength" : 2352,
            "byteOffset" : 14112
        },
        {
            "buffer" : 0,
            "byteLength" : 4704,
            "byteOffset" : 16464
        },
        {
            "buffer" : 0,
            "byteLength" : 2688,
            "byteOffset" : 21168
        },
        {
            "buffer" : 0,
            "byteLength" : 3440,
            "byteOffset" : 23856
        },
        {
            "buffer" : 0,
            "byteLength" : 3528,
            "byteOffset" : 27296
        },
        {
            "buffer" : 0,
            "byteLength" : 3528,
            "byteOffset" : 30824
        },
        {
            "buffer" : 0,
            "byteLength" : 3528,
            "byteOffset" : 34352
        },
        {
            "buffer" : 0,
            "byteLength" : 4344,
            "byteOffset" : 37880
        },
        {
            "buffer" : 0,
            "byteLength" : 4344,
            "byteOffset" : 42224
        },
        {
            "buffer" : 0,
            "byteLength" : 5792,
            "byteOffset" : 46568
        },
        {
            "buffer" : 0,
            "byteLength" : 2896,
            "byteOffset" : 52360
        },
        {
            "buffer" : 0,
            "byteLength" : 2896,
            "byteOffset" : 55256
        },
        {
            "buffer" : 0,
            "byteLength" : 5792,
            "byteOffset" : 58152
        },
        {
            "buffer" : 0,
            "byteLength" : 2688,
            "byteOffset" : 63944
        },
        {
            "buffer" : 0,
            "byteLength" : 286150,
            "byteOffset" : 66632
        },
        {
            "buffer" : 0,
            "byteLength" : 4344,
            "byteOffset" : 352784
        },
        {
            "buffer" : 0,
            "byteLength" : 4344,
            "byteOffset" : 357128
        },
        {
            "buffer" : 0,
            "byteLength" : 4344,
            "byteOffset" : 361472
        },
        {
            "buffer" : 0,
            "byteLength" : 64,
            "byteOffset" : 365816
        },
        {
            "buffer" : 0,
            "byteLength" : 64,
            "byteOffset" : 365880
        },
        {
            "buffer" : 0,
            "byteLength" : 64,
            "byteOffset" : 365944
        }
    ],
    "buffers" : [
        {
            "byteLength" : 366008,
            "uri" : "data:application/octet-stream;base64,"
        }
    ]
}
