# Blender v2.80 (sub 45) OBJ File: 'Chamber0001.blend'
# www.blender.org
o chamber0001_base
v -5.000000 0.000000 5.000000
v 5.000000 0.000000 5.000000
v -5.000000 0.000000 -3.000000
v 5.000000 0.000000 -3.000000
v -5.000000 3.000000 -3.000000
v -5.000000 3.000000 5.000000
v 5.000000 3.000000 5.000000
v 5.000000 3.000000 -3.000000
v -1.666667 0.000000 5.000000
v 1.666667 0.000000 5.000000
v 1.666667 0.000000 -5.000000
v -1.666667 0.000000 -5.000000
v -1.666667 3.000000 5.000000
v 1.666667 3.000000 5.000000
v 1.666667 3.000000 -5.000000
v -1.666667 3.000000 -5.000000
v 1.666667 0.000000 -15.000000
v -1.666667 0.000000 -15.000000
v 1.666667 3.000000 -15.000000
v -1.666667 3.000000 -15.000000
v 1.666667 0.000000 -25.000000
v -1.666667 0.000000 -25.000000
v 1.666667 3.000000 -25.000000
v -1.666667 3.000000 -25.000000
v -5.000000 3.000000 -15.000000
v -5.000000 0.000000 -15.000000
v -5.000000 3.000000 -25.000000
v -5.000000 0.000000 -25.000000
v 5.000000 3.000000 -15.000000
v 5.000000 0.000000 -15.000000
v 5.000000 3.000000 -25.000000
v 5.000000 0.000000 -25.000000
v 1.666667 0.000000 -35.000000
v -1.666667 0.000000 -35.000000
v 1.666667 3.000000 -35.000000
v -1.666667 3.000000 -35.000000
v 1.666667 0.000000 -45.000000
v -1.666667 0.000000 -45.000000
v 1.666667 3.000000 -45.000000
v -1.666667 3.000000 -45.000000
v 5.000000 3.000000 -35.000000
v 5.000000 0.000000 -35.000000
v 5.000000 3.000000 -45.000000
v 5.000000 0.000000 -45.000000
v -5.000000 3.000000 -35.000000
v -5.000000 0.000000 -35.000000
v -5.000000 3.000000 -45.000000
v -5.000000 0.000000 -45.000000
v 1.666667 3.000000 -38.333332
v 1.666667 3.000000 -41.666664
v 1.666667 0.000000 -41.666668
v 1.666667 0.000000 -38.333336
v -1.666667 0.000000 -41.666668
v -1.666667 0.000000 -38.333336
v -1.666667 3.000000 -41.666668
v -1.666667 3.000000 -38.333336
v 5.000000 3.000000 -38.333332
v 5.000000 3.000000 -41.666664
v 5.000000 0.000000 -41.666668
v 5.000000 0.000000 -38.333336
v -5.000000 0.000000 -41.666668
v -5.000000 0.000000 -38.333336
v -5.000000 3.000000 -41.666668
v -5.000000 3.000000 -38.333336
v 10.000000 3.000000 -38.333332
v 10.000000 3.000000 -41.666664
v 10.000000 0.000000 -41.666668
v 10.000000 0.000000 -38.333336
v 10.000000 3.000000 -49.999996
v 10.000000 0.000000 -50.000000
v 13.333334 3.000000 -38.333332
v 13.333333 0.000000 -38.333336
v 13.333334 3.000000 -41.666664
v 13.333334 0.000000 -41.666668
v 13.333334 3.000000 -49.999996
v 13.333334 0.000000 -50.000000
vt 0.666667 0.000000
vt 1.000000 1.000000
vt 0.666667 1.000000
vt 1.000000 0.000000
vt 1.000000 0.000000
vt 0.000000 1.000000
vt 0.000000 0.000000
vt 0.000000 1.000000
vt 0.333333 1.000000
vt 0.333333 1.000000
vt 0.666667 0.000000
vt 0.000000 0.000000
vt 0.333333 0.000000
vt 0.333333 0.000000
vt 1.000000 1.000000
vt 0.333333 1.000000
vt 0.333333 1.000000
vt 0.333333 1.000000
vt 0.000000 0.000000
vt 0.000000 0.000000
vt 0.000000 0.000000
vt 0.666667 1.000000
vt 0.666667 1.000000
vt 0.666667 1.000000
vt 0.666667 1.000000
vt 0.666667 1.000000
vt 0.000000 0.000000
vt 0.000000 0.000000
vt 0.000000 0.000000
vt 0.333333 1.000000
vt 0.333333 1.000000
vt 0.333333 1.000000
vt 0.000000 0.000000
vt 0.000000 0.000000
vt 0.333333 1.000000
vt 0.333333 1.000000
vt 0.666667 1.000000
vt 0.666667 1.000000
vt 0.666667 1.000000
vt 0.666667 1.000000
vt 0.666667 1.000000
vt 0.666667 1.000000
vt 0.666667 1.000000
vt 0.333333 1.000000
vt 0.333333 1.000000
vt 0.000000 0.000000
vt 0.666667 1.000000
vt 0.333333 1.000000
vt 0.666667 1.000000
vt 0.666667 1.000000
vt 0.333333 1.000000
vt 0.000000 0.000000
vt 0.000000 0.000000
vt 0.000000 0.000000
vt 0.000000 0.000000
vt 0.000000 0.000000
vt 0.000000 0.000000
vt 0.666667 1.000000
vt 0.666667 1.000000
vt 0.666667 1.000000
vt 0.666667 1.000000
vt 0.666667 1.000000
vt 0.000000 0.000000
vt 0.333333 1.000000
vt 0.333333 1.000000
vt 0.333333 1.000000
vt 0.333333 1.000000
vt 0.333333 1.000000
vt 0.333333 1.000000
vt 0.333333 1.000000
vt 0.333333 1.000000
vt 0.333333 1.000000
vt 0.333333 1.000000
vt 0.000000 0.000000
vt 0.000000 0.000000
vt 0.000000 0.000000
vt 0.666667 1.000000
vt 0.666667 1.000000
vt 0.666667 1.000000
vt 0.000000 0.000000
vt 0.000000 0.000000
vt 0.000000 0.000000
vt 0.666667 1.000000
vt 0.666667 1.000000
vt 0.000000 0.000000
vt 0.666667 1.000000
vt 0.000000 0.000000
vt 0.000000 0.000000
vt 0.000000 0.000000
vt 0.666667 1.000000
vt 0.666667 1.000000
vt 0.666667 1.000000
vt 0.000000 0.000000
vt 0.000000 0.000000
vt 0.000000 0.000000
vt 0.666667 1.000000
vt 0.000000 0.000000
vt 0.000000 0.000000
vt 0.666667 1.000000
vt 0.000000 0.000000
vt 0.666667 1.000000
vn 0.0000 1.0000 0.0000
vn -1.0000 0.0000 0.0000
vn 1.0000 0.0000 0.0000
vn 0.5145 0.0000 0.8575
vn 0.0000 0.0000 -1.0000
vn -0.5145 0.0000 0.8575
vn 0.0000 -1.0000 0.0000
vn 0.0000 0.0000 1.0000
s off
f 10/1/1 4/2/1 11/3/1
f 7/4/2 4/2/2 2/5/2
f 5/6/3 1/7/3 3/8/3
f 16/9/4 3/8/4 12/10/4
f 14/11/5 2/5/5 10/1/5
f 6/12/5 9/13/5 1/7/5
f 13/14/5 10/1/5 9/13/5
f 8/15/6 11/3/6 4/2/6
f 12/10/3 20/16/3 16/9/3
f 9/13/1 3/8/1 1/7/1
f 9/13/1 11/3/1 12/10/1
f 18/17/5 25/18/5 20/16/5
f 16/19/7 19/20/7 15/21/7
f 11/3/1 18/17/1 12/10/1
f 15/22/2 17/23/2 11/3/2
f 23/24/2 33/25/2 21/26/2
f 20/27/7 23/28/7 19/20/7
f 23/28/7 29/29/7 19/20/7
f 17/23/1 22/30/1 18/17/1
f 26/31/3 27/32/3 25/18/3
f 22/30/1 26/31/1 18/17/1
f 20/27/7 27/33/7 24/34/7
f 24/35/8 28/36/8 22/30/8
f 29/37/2 32/38/2 30/39/2
f 21/26/8 31/40/8 23/24/8
f 17/23/1 32/38/1 21/26/1
f 19/41/5 30/39/5 17/23/5
f 35/42/5 42/43/5 33/25/5
f 21/26/1 34/44/1 22/30/1
f 22/30/3 36/45/3 24/35/3
f 24/34/7 35/46/7 23/28/7
f 39/47/8 38/48/8 37/49/8
f 51/50/1 38/48/1 53/51/1
f 36/52/7 64/53/7 56/54/7
f 55/55/7 39/56/7 50/57/7
f 59/58/2 43/59/2 44/60/2
f 33/25/1 60/61/1 52/62/1
f 39/56/7 58/63/7 50/57/7
f 37/49/8 43/59/8 39/47/8
f 61/64/3 47/65/3 63/66/3
f 40/67/8 48/68/8 38/48/8
f 34/44/5 45/69/5 36/45/5
f 38/48/1 61/64/1 53/51/1
f 54/70/1 46/71/1 34/44/1
f 53/51/1 62/72/1 54/70/1
f 46/71/3 64/73/3 45/69/3
f 62/72/3 63/66/3 64/73/3
f 49/74/7 41/75/7 35/46/7
f 50/57/7 57/76/7 49/74/7
f 51/50/1 44/60/1 37/49/1
f 52/62/1 59/58/1 51/50/1
f 42/43/2 57/77/2 60/61/2
f 59/58/8 66/78/8 58/79/8
f 36/52/7 49/74/7 35/46/7
f 56/54/7 50/57/7 49/74/7
f 55/55/7 47/80/7 40/81/7
f 56/54/7 63/82/7 55/55/7
f 33/25/1 54/70/1 34/44/1
f 52/62/1 53/51/1 54/70/1
f 57/77/5 68/83/5 60/61/5
f 60/61/1 67/84/1 59/58/1
f 58/63/7 65/85/7 57/76/7
f 67/84/3 69/86/3 66/78/3
f 66/87/7 75/88/7 73/89/7
f 72/90/2 73/89/2 74/91/2
f 67/84/1 72/90/1 74/91/1
f 74/91/1 70/92/1 67/84/1
f 75/88/2 74/91/2 73/89/2
f 66/87/7 71/93/7 65/85/7
f 65/85/5 72/90/5 68/83/5
f 10/1/1 2/5/1 4/2/1
f 7/4/2 8/15/2 4/2/2
f 5/6/3 6/12/3 1/7/3
f 16/9/4 5/6/4 3/8/4
f 14/11/5 7/4/5 2/5/5
f 6/12/5 13/14/5 9/13/5
f 13/14/5 14/11/5 10/1/5
f 8/15/6 15/22/6 11/3/6
f 12/10/3 18/17/3 20/16/3
f 9/13/1 12/10/1 3/8/1
f 9/13/1 10/1/1 11/3/1
f 18/17/5 26/31/5 25/18/5
f 16/19/7 20/27/7 19/20/7
f 11/3/1 17/23/1 18/17/1
f 15/22/2 19/41/2 17/23/2
f 23/24/2 35/42/2 33/25/2
f 20/27/7 24/34/7 23/28/7
f 23/28/7 31/94/7 29/29/7
f 17/23/1 21/26/1 22/30/1
f 26/31/3 28/36/3 27/32/3
f 22/30/1 28/36/1 26/31/1
f 20/27/7 25/95/7 27/33/7
f 24/35/8 27/32/8 28/36/8
f 29/37/2 31/40/2 32/38/2
f 21/26/8 32/38/8 31/40/8
f 17/23/1 30/39/1 32/38/1
f 19/41/5 29/37/5 30/39/5
f 35/42/5 41/96/5 42/43/5
f 21/26/1 33/25/1 34/44/1
f 22/30/3 34/44/3 36/45/3
f 24/34/7 36/52/7 35/46/7
f 39/47/8 40/67/8 38/48/8
f 51/50/1 37/49/1 38/48/1
f 36/52/7 45/97/7 64/53/7
f 55/55/7 40/81/7 39/56/7
f 59/58/2 58/79/2 43/59/2
f 33/25/1 42/43/1 60/61/1
f 39/56/7 43/98/7 58/63/7
f 37/49/8 44/60/8 43/59/8
f 61/64/3 48/68/3 47/65/3
f 40/67/8 47/65/8 48/68/8
f 34/44/5 46/71/5 45/69/5
f 38/48/1 48/68/1 61/64/1
f 54/70/1 62/72/1 46/71/1
f 53/51/1 61/64/1 62/72/1
f 46/71/3 62/72/3 64/73/3
f 62/72/3 61/64/3 63/66/3
f 49/74/7 57/76/7 41/75/7
f 50/57/7 58/63/7 57/76/7
f 51/50/1 59/58/1 44/60/1
f 52/62/1 60/61/1 59/58/1
f 42/43/2 41/96/2 57/77/2
f 59/58/8 67/84/8 66/78/8
f 36/52/7 56/54/7 49/74/7
f 56/54/7 55/55/7 50/57/7
f 55/55/7 63/82/7 47/80/7
f 56/54/7 64/53/7 63/82/7
f 33/25/1 52/62/1 54/70/1
f 52/62/1 51/50/1 53/51/1
f 57/77/5 65/99/5 68/83/5
f 60/61/1 68/83/1 67/84/1
f 58/63/7 66/87/7 65/85/7
f 67/84/3 70/92/3 69/86/3
f 66/87/7 69/100/7 75/88/7
f 72/90/2 71/93/2 73/89/2
f 67/84/1 68/83/1 72/90/1
f 74/91/1 76/101/1 70/92/1
f 75/88/2 76/101/2 74/91/2
f 66/87/7 73/89/7 71/93/7
f 65/85/5 71/93/5 72/90/5
