# Blender v2.80 (sub 75) OBJ File: 'chamber0001.blend'
# www.blender.org
o chamber0001_base
v -18.000000 0.400000 78.000008
v 18.000000 0.400000 78.000008
v -18.000000 0.400000 54.000000
v 18.000000 0.400000 54.000000
v -18.000000 12.400000 54.000000
v -18.000000 12.400000 78.000008
v 18.000000 12.400000 78.000008
v 18.000000 12.400000 54.000000
v -5.999999 0.400000 78.000008
v 6.000001 0.400000 78.000008
v 6.000000 0.400000 47.999996
v -6.000001 0.400000 47.999996
v -5.999999 12.400000 78.000008
v 6.000001 12.400000 78.000008
v 6.000000 12.400000 47.999996
v -6.000001 12.400000 47.999996
v 6.000000 0.400000 18.000004
v -6.000001 0.400000 18.000004
v 6.000000 12.400000 18.000004
v -6.000001 12.400000 18.000004
v 6.000000 0.400000 -18.000000
v -6.000001 0.400000 -18.000000
v 6.000000 12.400000 -18.000000
v -6.000001 12.400000 -18.000000
v -18.000000 12.400000 18.000004
v -18.000000 0.400000 18.000004
v -18.000000 12.400000 -18.000000
v -18.000000 0.400000 -18.000000
v 18.000000 12.400000 18.000004
v 18.000000 0.400000 18.000004
v 18.000000 12.400000 -18.000000
v 18.000000 0.400000 -18.000000
v 6.000000 0.400000 -41.999996
v -6.000001 0.400000 -41.999996
v 6.000000 12.400000 -41.999996
v -6.000001 12.400000 -41.999996
v 6.000000 0.400000 -77.999992
v -6.000001 0.400000 -77.999992
v 6.000000 12.400000 -77.999992
v -6.000001 12.400000 -77.999992
v 18.000000 12.400000 -41.999996
v 18.000000 0.400000 -41.999996
v 18.000000 12.400000 -77.999992
v 18.000000 0.400000 -77.999992
v -18.000000 12.400000 -41.999996
v -18.000000 0.400000 -41.999996
v -18.000000 12.400000 -77.999992
v -18.000000 0.400000 -77.999992
v 6.000000 12.400000 -53.999996
v 6.000000 12.400000 -65.999985
v 6.000000 0.400000 -66.000000
v 6.000000 0.400000 -54.000011
v -6.000001 0.400000 -66.000000
v -6.000001 0.400000 -54.000011
v -6.000001 12.400000 -66.000000
v -6.000001 12.400000 -54.000011
v 18.000000 12.400000 -53.999996
v 18.000000 12.400000 -65.999985
v 18.000000 0.400000 -66.000000
v 18.000000 0.400000 -54.000011
v -18.000000 0.400000 -66.000000
v -18.000000 0.400000 -54.000011
v -18.000000 12.400000 -66.000000
v -18.000000 12.400000 -54.000011
v 42.000004 12.400000 -53.999996
v 42.000004 12.400000 -65.999985
v 42.000004 0.400000 -66.000000
v 42.000004 0.400000 -54.000011
v 42.000004 12.400000 -89.999977
v 42.000004 0.400000 -89.999992
v 54.000004 12.400000 -53.999996
v 54.000004 0.400000 -54.000011
v 54.000004 12.400000 -65.999985
v 54.000004 0.400000 -66.000000
v 54.000004 12.400000 -89.999977
v 54.000004 0.400000 -89.999992
v 6.000001 0.400000 54.000732
v -6.000001 0.400000 54.000595
v -18.000000 0.400000 66.000008
v 18.000000 0.400000 66.000008
v -18.000000 12.400000 66.000008
v 18.000000 12.400000 66.000008
v 6.000001 0.400000 66.000374
v -5.999999 0.400000 66.000305
v -6.000001 0.400000 41.999996
v -6.000001 12.400000 41.999996
v 6.000000 12.400000 41.999996
v 6.000000 0.400000 41.999996
v -6.000001 0.400000 29.999996
v 6.000000 0.400000 29.999996
v -6.000001 12.400000 29.999996
v 6.000000 12.400000 29.999996
v -6.000001 0.400000 -6.000000
v -6.000001 12.400000 -6.000000
v 6.000000 12.400000 -6.000000
v 6.000000 0.400000 -6.000000
v -18.000000 0.400000 -6.000000
v -18.000000 12.400000 -6.000000
v 18.000000 12.400000 -6.000000
v 18.000000 0.400000 -6.000000
v -6.000001 12.400000 6.000000
v 6.000000 12.400000 6.000000
v 6.000000 0.400000 6.000000
v -18.000000 12.400000 6.000000
v 18.000000 12.400000 6.000000
v 18.000000 0.400000 6.000000
v -6.000001 0.400000 6.000000
v -18.000000 0.400000 6.000000
v 6.000000 12.400000 -30.000000
v 6.000000 0.400000 -30.000000
v -6.000001 0.400000 -30.000000
v -6.000001 12.400000 -30.000000
v 30.000000 0.400000 -66.000000
v 30.000000 12.400000 -65.999985
v 30.000000 12.400000 -53.999996
v 30.000000 0.400000 -54.000011
v 42.000004 0.400000 -77.999992
v 42.000004 12.400000 -77.999977
v 54.000004 12.400000 -77.999977
v 54.000004 0.400000 -77.999992
v -5.999999 12.400000 66.000008
v 6.000001 12.400000 66.000008
v -5.999999 12.400000 54.000000
v 6.000001 12.400000 54.000000
v 6.000001 0.000000 66.000374
v 6.000001 0.000000 54.000732
v 18.423203 0.031219 53.738449
v 18.400002 0.000000 66.000008
v 18.423203 12.768782 53.738449
v 18.400002 12.799999 66.000008
v -18.399998 0.000000 66.000008
v -18.399998 0.000000 78.400009
v -18.399998 12.799999 78.400009
v -18.399998 12.799999 66.000008
v -6.433935 0.021865 47.731815
v -18.423199 0.031219 53.738449
v -18.423199 12.768782 53.738449
v -6.433935 12.778135 47.731815
v 6.000001 0.000000 78.400009
v 18.400002 0.000000 78.400009
v 18.400002 12.799999 78.400009
v 6.000001 12.799999 78.400009
v -5.999999 0.000000 78.400009
v -5.999999 12.799999 78.400009
v 6.433935 0.021865 47.731815
v 6.433935 12.778135 47.731815
v -6.400001 12.799999 29.999996
v -6.400001 12.799999 18.400002
v -6.400001 0.000000 18.400002
v -6.400001 0.000000 29.999996
v -6.000001 0.000000 54.000595
v -5.999999 0.000000 66.000305
v -18.399998 12.799999 18.400002
v -18.399998 0.000000 18.400002
v 6.400001 12.799999 29.999996
v 6.400001 12.799999 18.400002
v 6.400001 0.000000 18.400002
v 6.400001 0.000000 29.999996
v 6.400001 0.000000 -30.000000
v 6.400001 0.000000 -41.599995
v 6.400001 12.799999 -41.599995
v 6.400001 12.799999 -30.000000
v 6.000000 12.799999 -6.000000
v 6.400001 12.799999 -18.399998
v -6.400001 12.799999 -18.399998
v -6.000001 12.799999 -6.000000
v 18.400002 12.799999 -6.000000
v 18.400002 12.799999 -18.399998
v -6.000001 0.000000 -6.000000
v -6.400001 0.000000 -18.399998
v 6.400001 0.000000 -18.399998
v 6.000000 0.000000 -6.000000
v -18.399998 12.799999 -6.000000
v -18.399998 12.799999 -18.399998
v -18.399998 0.000000 -18.399998
v -18.399998 0.000000 -6.000000
v -6.000001 12.799999 6.000000
v -18.399998 12.799999 6.000000
v 18.400002 0.000000 -6.000000
v 18.400002 0.000000 -18.399998
v 6.000000 0.000000 6.000000
v 18.400002 0.000000 6.000000
v 18.400002 0.000000 18.400002
v 18.400002 12.799999 18.400002
v 18.400002 0.000000 -41.599995
v 18.400002 12.799999 -41.599995
v -6.400001 0.000000 -30.000000
v -6.400001 0.000000 -41.599995
v -6.400001 12.799999 -30.000000
v -6.400001 12.799999 -41.599995
v 6.000000 0.000000 -78.399994
v -6.000001 0.000000 -78.399994
v -6.000001 12.799999 -78.399994
v 6.000000 12.799999 -78.399994
v -6.000001 0.000000 -66.000000
v 6.000000 0.000000 -66.000000
v -6.000001 12.799999 -54.000011
v -18.399998 12.799999 -54.000011
v -18.399998 12.799999 -41.599995
v 6.000000 12.799999 -65.999985
v -6.000001 12.799999 -66.000000
v 18.400002 0.000000 -66.400009
v 18.400002 0.000000 -78.399994
v 18.400002 12.799999 -78.399994
v 18.400002 12.799999 -66.399994
v 6.000000 0.000000 -54.000011
v 18.400002 0.000000 -53.600010
v -18.399998 12.799999 -66.000000
v -18.399998 12.799999 -78.399994
v -18.399998 0.000000 -78.399994
v -18.399998 0.000000 -66.000000
v -18.399998 0.000000 -41.599995
v -18.399998 0.000000 -54.000011
v -6.000001 0.000000 -54.000011
v 18.400002 12.799999 -53.599995
v 6.000000 12.799999 -53.999996
v 30.000000 12.799999 -66.399994
v 41.600002 12.799999 -66.399994
v 41.600002 0.000000 -66.400009
v 30.000000 0.000000 -66.400009
v 30.000000 0.000000 -53.600010
v 42.000004 0.000000 -53.600010
v 42.000004 12.799999 -53.599995
v 30.000000 12.799999 -53.599995
v 41.600002 12.799999 -77.999977
v 41.600002 12.799999 -89.999977
v 41.600002 0.000000 -89.999992
v 41.600002 0.000000 -77.999992
v 54.400005 12.799999 -77.999977
v 54.400005 12.799999 -89.999977
v 54.400005 0.000000 -66.000000
v 54.400005 12.799999 -65.999985
v 54.400005 12.799999 -53.599995
v 54.400005 0.000000 -53.600010
v 54.400005 0.000000 -89.999992
v 54.400005 0.000000 -77.999992
v 6.400001 0.000000 41.999996
v 6.400001 12.799999 41.999996
v -6.400001 0.000000 41.999996
v -6.400001 12.799999 41.999996
v 18.400002 12.799999 6.000000
v -6.000001 0.000000 6.000000
v -18.399998 0.000000 6.000000
v 6.000000 12.799999 6.000000
v -5.999999 12.799999 54.000000
v 6.000001 12.799999 54.000000
v 6.000001 12.799999 66.000008
v -5.999999 12.799999 66.000008
vt 1.000000 0.500000
vt 0.500000 1.000000
vt 0.500000 0.500000
vt 0.500000 1.000000
vt 0.000000 0.500000
vt 0.500000 0.500000
vt 0.500000 1.000000
vt 0.000000 0.500000
vt 0.500000 0.500000
vt 0.500000 1.000000
vt 0.000000 0.500000
vt 0.500000 0.500000
vt 0.500000 1.000000
vt 0.000000 0.500000
vt 0.500000 0.500000
vt 0.500000 1.000000
vt 0.000000 0.500000
vt 0.500000 0.500000
vt 0.500000 1.000000
vt 0.000000 0.500000
vt 0.500000 0.500000
vt 0.500000 1.000000
vt 0.000000 0.500000
vt 0.500000 0.500000
vt 0.000000 0.500000
vt 0.500000 1.000000
vt 0.000000 1.000000
vt 1.000000 1.000000
vt 0.500000 1.000000
vt 0.500000 0.500000
vt 1.000000 1.000000
vt 0.500000 1.000000
vt 0.000000 0.500000
vt 0.500000 1.000000
vt 0.000000 1.000000
vt 1.000000 0.500000
vt 0.500000 1.000000
vt 0.500000 0.500000
vt 1.000000 0.500000
vt 0.500000 1.000000
vt 0.500000 0.500000
vt 0.500000 1.000000
vt 0.000000 0.500000
vt 0.500000 0.500000
vt 0.500000 1.000000
vt 0.000000 0.500000
vt 0.500000 0.500000
vt 1.000000 0.500000
vt 0.500000 1.000000
vt 0.500000 0.500000
vt 1.000000 0.500000
vt 0.500000 1.000000
vt 1.000000 0.500000
vt 0.500000 1.000000
vt 0.500000 0.500000
vt 0.000000 0.500000
vt 0.500000 1.000000
vt 0.000000 1.000000
vt 1.000000 0.500000
vt 0.500000 1.000000
vt 1.000000 0.500000
vt 0.500000 1.000000
vt 0.500000 0.500000
vt 0.500000 1.000000
vt 0.000000 0.500000
vt 0.500000 0.500000
vt 0.000000 0.500000
vt 0.500000 0.500000
vt 0.000000 0.500000
vt 0.500000 1.000000
vt 0.000000 1.000000
vt 1.000000 0.500000
vt 0.500000 1.000000
vt 0.500000 0.500000
vt 0.000000 0.500000
vt 0.500000 0.500000
vt 0.500000 1.000000
vt 0.000000 0.500000
vt 0.500000 0.500000
vt 1.000000 0.500000
vt 0.500000 1.000000
vt 0.500000 0.500000
vt 0.000000 0.500000
vt 0.500000 1.000000
vt 0.000000 1.000000
vt 1.000000 0.500000
vt 0.500000 0.500000
vt 0.500000 1.000000
vt 0.000000 0.500000
vt 0.500000 0.500000
vt 1.000000 0.500000
vt 0.500000 1.000000
vt 0.500000 0.500000
vt 1.000000 0.500000
vt 0.500000 1.000000
vt 0.500000 0.500000
vt 1.000000 0.500000
vt 0.500000 0.500000
vt 0.500000 0.500000
vt 0.000000 1.000000
vt 0.000000 0.500000
vt 1.000000 0.500000
vt 0.500000 1.000000
vt 0.500000 0.500000
vt 1.000000 0.500000
vt 0.500000 1.000000
vt 0.000000 0.500000
vt 0.500000 1.000000
vt 0.000000 1.000000
vt 0.000000 0.500000
vt 0.500000 1.000000
vt 0.000000 1.000000
vt 0.500000 1.000000
vt 0.000000 0.500000
vt 0.500000 0.500000
vt 0.000000 0.500000
vt 0.500000 1.000000
vt 0.000000 1.000000
vt 1.000000 0.500000
vt 0.500000 1.000000
vt 1.000000 0.500000
vt 0.500000 1.000000
vt 0.500000 0.500000
vt 1.000000 0.500000
vt 0.500000 1.000000
vt 0.500000 0.500000
vt 0.000000 0.500000
vt 0.000000 1.000000
vt 0.000000 0.500000
vt 0.500000 1.000000
vt 0.000000 1.000000
vt 1.000000 0.500000
vt 0.500000 1.000000
vt 0.500000 0.500000
vt 1.000000 0.500000
vt 0.500000 1.000000
vt 0.500000 0.500000
vt 0.500000 1.000000
vt 1.000000 0.500000
vt 0.500000 1.000000
vt 0.500000 0.500000
vt 0.500000 0.500000
vt 0.000000 1.000000
vt 0.000000 0.500000
vt 0.000000 0.500000
vt 0.500000 1.000000
vt 0.000000 1.000000
vt 0.500000 1.000000
vt 1.000000 0.500000
vt 0.500000 1.000000
vt 0.500000 0.500000
vt 0.500000 0.500000
vt 0.500000 1.000000
vt 0.500000 1.000000
vt 0.500000 1.000000
vt 0.000000 0.500000
vt 0.500000 0.500000
vt 1.000000 0.500000
vt 0.500000 1.000000
vt 0.500000 0.500000
vt 1.000000 0.500000
vt 0.500000 1.000000
vt 0.500000 0.500000
vt 0.000000 0.500000
vt 0.500000 1.000000
vt 0.000000 1.000000
vt 1.000000 0.500000
vt 0.500000 1.000000
vt 0.500000 0.500000
vt 0.500000 0.500000
vt 0.000000 1.000000
vt 0.000000 0.500000
vt 1.000000 0.500000
vt 0.500000 1.000000
vt 0.500000 0.500000
vt 1.000000 0.500000
vt 0.500000 1.000000
vt 0.500000 0.500000
vt 0.000000 1.000000
vt 0.500000 0.500000
vt 0.500000 1.000000
vt 1.000000 0.500000
vt 0.500000 1.000000
vt 0.500000 0.500000
vt 0.000000 0.500000
vt 0.500000 0.500000
vt 0.500000 0.500000
vt 1.000000 0.500000
vt 1.000000 1.000000
vt 0.500000 0.500000
vt 1.000000 1.000000
vt 0.500000 1.000000
vt 0.500000 0.500000
vt 1.000000 0.500000
vt 1.000000 1.000000
vt 0.500000 1.000000
vt 1.000000 1.000000
vt 0.500000 1.000000
vt 0.500000 1.000000
vt 0.000000 0.500000
vt 0.500000 1.000000
vt 0.000000 0.500000
vt 0.500000 0.500000
vt 1.000000 0.500000
vt 0.500000 1.000000
vt 0.250000 1.000000
vt 0.000000 0.500000
vt 0.250000 0.500000
vt 1.000000 0.500000
vt 0.500000 1.000000
vt 1.000000 0.500000
vt 0.500000 1.000000
vt 0.500000 0.500000
vt 0.000000 0.500000
vt 0.500000 1.000000
vt 0.000000 1.000000
vt 0.000000 0.500000
vt 0.500000 0.500000
vt 1.000000 0.500000
vt 0.500000 1.000000
vt 0.500000 0.500000
vt 1.000000 0.500000
vt 0.500000 0.500000
vt 0.000000 0.500000
vt 0.500000 1.000000
vt 0.000000 1.000000
vt 0.500000 1.000000
vt 0.500000 0.500000
vt 0.500000 1.000000
vt 0.000000 0.500000
vt 0.500000 0.500000
vt 0.500000 0.500000
vt 1.000000 0.500000
vt 0.500000 1.000000
vt 0.500000 0.500000
vt 0.000000 0.500000
vt 0.500000 1.000000
vt 0.000000 1.000000
vt 1.000000 0.500000
vt 0.500000 1.000000
vt 1.000000 0.500000
vt 0.500000 0.500000
vt 1.000000 0.500000
vt 0.500000 1.000000
vt 0.500000 1.000000
vt 0.500000 0.500000
vt 1.000000 0.500000
vt 0.500000 1.000000
vt 0.500000 1.000000
vt 0.500000 0.500000
vt 0.000000 0.500000
vt 0.000000 1.000000
vt 1.000000 0.500000
vt 0.500000 1.000000
vt 0.000000 0.500000
vt 0.500000 0.500000
vt 0.500000 1.000000
vt 0.500000 0.500000
vt 0.500000 0.500000
vt 1.000000 0.500000
vt 0.500000 0.500000
vt 0.000000 0.500000
vt 0.500000 1.000000
vt 0.000000 1.000000
vt 1.000000 0.500000
vt 0.500000 1.000000
vt 0.000000 0.500000
vt 1.000000 0.500000
vt 0.500000 0.500000
vt 1.000000 0.500000
vt 0.500000 1.000000
vt 0.000000 0.500000
vt 0.500000 0.500000
vt 0.000000 0.500000
vt 0.500000 1.000000
vt 0.000000 1.000000
vt 0.000000 1.000000
vt 0.500000 0.500000
vt 0.500000 1.000000
vt 1.000000 0.500000
vt 0.500000 1.000000
vt 0.500000 0.500000
vt 0.000000 0.500000
vt 0.500000 1.000000
vt 0.000000 1.000000
vt 0.500000 0.500000
vt 1.000000 1.000000
vt 1.000000 0.500000
vt 0.500000 0.500000
vt 1.000000 1.000000
vt 1.000000 0.500000
vt 0.500000 1.000000
vt 0.500000 0.500000
vt 1.000000 0.500000
vt 1.000000 0.500000
vt 0.500000 0.500000
vt 1.000000 0.500000
vt 0.500000 1.000000
vt 0.500000 0.500000
vt 1.000000 0.500000
vt 0.500000 0.500000
vt 0.500000 1.000000
vt 1.000000 0.500000
vt 0.500000 0.500000
vt 0.000000 0.500000
vt 0.500000 1.000000
vt 0.500000 0.500000
vt 0.000000 0.500000
vt 0.500000 1.000000
vt 0.500000 0.500000
vt 0.000000 0.500000
vt 0.500000 1.000000
vt 0.500000 0.500000
vt 0.000000 0.500000
vt 0.500000 1.000000
vt 0.500000 0.500000
vt 0.000000 0.500000
vt 0.500000 1.000000
vt 0.500000 0.500000
vt 0.000000 0.500000
vt 0.500000 1.000000
vt 0.500000 0.500000
vt 0.000000 0.500000
vt 0.500000 1.000000
vt 0.500000 0.500000
vt 0.500000 1.000000
vt 0.000000 0.500000
vt 0.000000 1.000000
vt 1.000000 1.000000
vt 1.000000 0.500000
vt 0.500000 0.500000
vt 1.000000 1.000000
vt 1.000000 0.500000
vt 0.500000 1.000000
vt 0.000000 0.500000
vt 0.000000 1.000000
vt 0.500000 1.000000
vt 1.000000 0.500000
vt 0.500000 0.500000
vt 0.500000 1.000000
vt 1.000000 0.500000
vt 0.500000 0.500000
vt 0.000000 0.500000
vt 0.500000 1.000000
vt 0.500000 0.500000
vt 0.000000 0.500000
vt 0.500000 1.000000
vt 0.500000 0.500000
vt 0.500000 0.500000
vt 1.000000 1.000000
vt 1.000000 0.500000
vt 0.500000 1.000000
vt 1.000000 0.500000
vt 0.500000 1.000000
vt 1.000000 0.500000
vt 0.500000 0.500000
vt 0.500000 1.000000
vt 0.000000 0.500000
vt 0.000000 1.000000
vt 0.500000 1.000000
vt 1.000000 0.500000
vt 0.500000 1.000000
vt 1.000000 0.500000
vt 0.500000 0.500000
vt 0.000000 0.500000
vt 0.500000 1.000000
vt 0.500000 0.500000
vt 0.000000 0.500000
vt 0.500000 0.500000
vt 0.500000 1.000000
vt 0.000000 0.500000
vt 0.000000 1.000000
vt 0.500000 1.000000
vt 1.000000 0.500000
vt 0.500000 0.500000
vt 0.000000 0.500000
vt 0.500000 0.500000
vt 0.000000 0.500000
vt 0.500000 1.000000
vt 0.500000 0.500000
vt 0.500000 1.000000
vt 1.000000 0.500000
vt 0.500000 0.500000
vt 0.500000 1.000000
vt 0.000000 0.500000
vt 0.000000 1.000000
vt 1.000000 0.500000
vt 0.500000 0.500000
vt 0.000000 0.500000
vt 0.500000 1.000000
vt 0.500000 0.500000
vt 0.500000 1.000000
vt 1.000000 0.500000
vt 0.500000 0.500000
vt 0.500000 1.000000
vt 1.000000 0.500000
vt 0.500000 0.500000
vt 1.000000 0.500000
vt 0.500000 0.500000
vt 0.500000 0.500000
vt 0.000000 1.000000
vt 0.500000 1.000000
vt 0.500000 1.000000
vt 1.000000 0.500000
vt 0.500000 0.500000
vt 1.000000 0.500000
vt 0.500000 1.000000
vt 0.000000 0.500000
vt 0.000000 1.000000
vt 0.500000 1.000000
vt 0.000000 0.500000
vt 0.000000 1.000000
vt 0.000000 0.500000
vt 0.500000 1.000000
vt 0.500000 0.500000
vt 0.500000 1.000000
vt 0.000000 0.500000
vt 0.000000 1.000000
vt 0.500000 1.000000
vt 1.000000 0.500000
vt 0.500000 0.500000
vt 1.000000 1.000000
vt 1.000000 0.500000
vt 0.500000 1.000000
vt 1.000000 0.500000
vt 0.500000 0.500000
vt 0.000000 0.500000
vt 0.000000 1.000000
vt 0.500000 1.000000
vt 0.000000 0.500000
vt 0.000000 1.000000
vt 0.500000 0.500000
vt 1.000000 1.000000
vt 1.000000 0.500000
vt 0.500000 1.000000
vt 1.000000 0.500000
vt 0.500000 0.500000
vt 1.000000 1.000000
vt 0.500000 0.500000
vt 1.000000 1.000000
vt 1.000000 0.500000
vt 0.500000 0.500000
vt 0.000000 1.000000
vt 0.500000 1.000000
vt 0.500000 1.000000
vt 0.000000 0.500000
vt 0.000000 1.000000
vt 0.500000 1.000000
vt 0.500000 1.000000
vt 1.000000 0.500000
vt 0.500000 0.500000
vt 0.500000 0.500000
vt 0.500000 1.000000
vt 0.500000 1.000000
vt 0.000000 0.500000
vt 0.500000 1.000000
vt 0.500000 0.500000
vt 0.500000 1.000000
vt 1.000000 0.500000
vt 0.500000 0.500000
vt 0.500000 0.500000
vt 1.000000 1.000000
vt 1.000000 0.500000
vt 0.500000 1.000000
vt 0.000000 0.500000
vt 0.000000 1.000000
vt 0.500000 1.000000
vt 1.000000 0.500000
vt 0.500000 0.500000
vt 0.000000 1.000000
vt 0.500000 0.500000
vt 0.000000 0.500000
vt 0.500000 1.000000
vt 1.000000 0.500000
vt 0.500000 0.500000
vt 0.500000 1.000000
vt 1.000000 0.500000
vt 0.500000 0.500000
vt 0.500000 0.500000
vt 0.000000 1.000000
vt 0.500000 1.000000
vt 0.500000 0.500000
vt 1.000000 1.000000
vt 1.000000 0.500000
vt 0.000000 0.500000
vt 0.500000 1.000000
vt 0.500000 0.500000
vt 0.500000 0.500000
vt 1.000000 1.000000
vt 1.000000 0.500000
vt 0.500000 0.500000
vt 1.000000 1.000000
vt 1.000000 0.500000
vt 0.500000 0.500000
vt 1.000000 0.500000
vt 1.000000 1.000000
vt 1.000000 0.500000
vt 1.000000 1.000000
vt 1.000000 0.500000
vt 0.000000 1.000000
vt 0.500000 1.000000
vt 0.000000 0.500000
vt 0.500000 1.000000
vt 0.500000 0.500000
vt 0.500000 1.000000
vt 1.000000 0.500000
vt 0.250000 0.500000
vt 0.000000 1.000000
vt 0.250000 1.000000
vt 0.500000 1.000000
vt 1.000000 0.500000
vt 0.500000 1.000000
vt 1.000000 0.500000
vt 0.500000 0.500000
vt 0.500000 1.000000
vt 0.000000 0.500000
vt 0.000000 1.000000
vt 0.000000 0.500000
vt 0.500000 0.500000
vt 0.500000 1.000000
vt 1.000000 0.500000
vt 0.500000 0.500000
vt 1.000000 0.500000
vt 0.500000 0.500000
vt 0.500000 1.000000
vt 0.000000 0.500000
vt 0.000000 1.000000
vt 0.500000 0.500000
vt 1.000000 1.000000
vt 0.000000 0.500000
vt 0.500000 1.000000
vt 0.500000 0.500000
vt 0.500000 0.500000
vt 1.000000 1.000000
vt 0.500000 1.000000
vt 1.000000 0.500000
vt 0.500000 0.500000
vt 0.500000 1.000000
vt 0.000000 0.500000
vt 0.000000 1.000000
vt 0.500000 1.000000
vt 1.000000 0.500000
vt 1.000000 0.500000
vt 0.500000 0.500000
vt 0.500000 1.000000
vt 1.000000 0.500000
vt 0.500000 1.000000
vt 0.500000 0.500000
vt 1.000000 1.000000
vt 1.000000 0.500000
vt 0.500000 1.000000
vt 0.500000 0.500000
vt 0.000000 0.500000
vt 0.000000 1.000000
vt 1.000000 1.000000
vt 1.000000 0.500000
vt 0.000000 0.500000
vt 0.500000 1.000000
vt 0.500000 0.500000
vt 0.500000 1.000000
vt 0.500000 0.500000
vt 0.500000 0.500000
vt 1.000000 0.500000
vt 0.500000 0.500000
vt 0.500000 1.000000
vt 0.000000 0.500000
vt 0.000000 1.000000
vt 0.500000 1.000000
vt 1.000000 0.500000
vt 0.000000 0.500000
vt 0.500000 1.000000
vt 1.000000 0.500000
vt 0.500000 0.500000
vt 0.500000 1.000000
vt 1.000000 0.500000
vt 0.000000 0.500000
vt 0.500000 0.500000
vt 0.500000 1.000000
vt 0.000000 0.500000
vt 0.000000 1.000000
vt 0.500000 0.500000
vt 0.000000 1.000000
vt 0.500000 1.000000
vt 1.000000 1.000000
vt 1.000000 0.500000
vt 0.500000 0.500000
vt 0.500000 1.000000
vt 0.000000 0.500000
vt 0.000000 1.000000
vt 0.500000 0.500000
vt 1.000000 1.000000
vt 1.000000 0.500000
vt 0.500000 0.500000
vt 1.000000 1.000000
vt 0.500000 1.000000
vt 1.000000 0.500000
vt 0.500000 0.500000
vt 1.000000 0.500000
vt 1.000000 0.500000
vt 0.500000 0.500000
vt 0.500000 1.000000
vt 1.000000 0.500000
vt 0.500000 0.500000
vt 1.000000 0.500000
vt 0.500000 0.500000
vt 1.000000 1.000000
vt 0.500000 0.500000
vt 1.000000 1.000000
vt 0.000000 0.500000
vt 0.000000 0.500000
vt 1.000000 1.000000
vt 0.000000 1.000000
vt 0.000000 1.000000
vt 0.000000 1.000000
vt 0.000000 1.000000
vt 0.000000 1.000000
vt 0.000000 1.000000
vt 0.000000 1.000000
vt 1.000000 0.500000
vt 1.000000 0.500000
vt 0.500000 0.500000
vt 1.000000 1.000000
vt 1.000000 1.000000
vt 0.000000 1.000000
vt 0.000000 1.000000
vt 1.000000 1.000000
vt 1.000000 1.000000
vt 1.000000 1.000000
vt 0.500000 0.500000
vt 1.000000 1.000000
vt 1.000000 1.000000
vt 0.000000 1.000000
vt 0.000000 1.000000
vt 0.500000 0.500000
vt 1.000000 1.000000
vt 0.000000 1.000000
vt 0.000000 1.000000
vt 1.000000 1.000000
vt 1.000000 1.000000
vt 0.000000 1.000000
vt 1.000000 1.000000
vt 1.000000 1.000000
vt 1.000000 1.000000
vt 1.000000 1.000000
vt 1.000000 1.000000
vt 0.500000 0.500000
vt 0.500000 0.500000
vt 0.000000 1.000000
vt 0.500000 0.500000
vt 1.000000 1.000000
vt 1.000000 1.000000
vt 1.000000 1.000000
vt 0.500000 0.500000
vt 0.500000 0.500000
vt 1.000000 1.000000
vt 1.000000 1.000000
vt 1.000000 1.000000
vt 1.000000 1.000000
vt 1.000000 1.000000
vt 1.000000 1.000000
vt 1.000000 1.000000
vt 1.000000 1.000000
vt 1.000000 1.000000
vt 1.000000 1.000000
vt 0.000000 1.000000
vt 1.000000 1.000000
vt 1.000000 1.000000
vt 1.000000 1.000000
vt 1.000000 1.000000
vt 0.000000 1.000000
vt 1.000000 0.500000
vt 1.000000 0.500000
vt 1.000000 0.500000
vt 0.000000 1.000000
vt 0.000000 1.000000
vt 1.000000 1.000000
vt 0.000000 1.000000
vt 1.000000 1.000000
vt 1.000000 1.000000
vt 0.000000 1.000000
vt 1.000000 1.000000
vt 1.000000 1.000000
vt 1.000000 1.000000
vt 0.000000 1.000000
vt 1.000000 1.000000
vt 1.000000 1.000000
vt 0.500000 0.500000
vt 1.000000 1.000000
vt 1.000000 1.000000
vt 1.000000 1.000000
vt 1.000000 1.000000
vt 1.000000 1.000000
vt 1.000000 1.000000
vt 0.500000 0.500000
vt 1.000000 1.000000
vt 0.000000 1.000000
vt 1.000000 1.000000
vt 1.000000 1.000000
vt 1.000000 1.000000
vt 1.000000 1.000000
vt 0.000000 1.000000
vt 1.000000 1.000000
vt 1.000000 1.000000
vt 0.000000 1.000000
vt 0.000000 0.500000
vt 1.000000 1.000000
vt 1.000000 1.000000
vt 1.000000 1.000000
vt 1.000000 1.000000
vt 1.000000 1.000000
vt 1.000000 1.000000
vt 0.000000 1.000000
vt 0.000000 1.000000
vt 0.000000 1.000000
vt 0.000000 1.000000
vt 0.000000 1.000000
vt 0.000000 1.000000
vt 0.000000 1.000000
vt 0.500000 1.000000
vt 0.500000 1.000000
vt 0.500000 0.500000
vt 1.000000 1.000000
vt 1.000000 1.000000
vt 0.000000 1.000000
vt 0.000000 1.000000
vt 1.000000 1.000000
vt 1.000000 1.000000
vt 0.500000 0.500000
vt 1.000000 1.000000
vt 1.000000 1.000000
vt 0.000000 1.000000
vt 0.000000 1.000000
vt 0.500000 0.500000
vt 1.000000 1.000000
vt 0.000000 1.000000
vt 0.000000 1.000000
vt 1.000000 1.000000
vt 1.000000 1.000000
vt 0.000000 1.000000
vt 1.000000 1.000000
vt 1.000000 1.000000
vt 1.000000 1.000000
vt 0.000000 0.500000
vt 1.000000 1.000000
vt 1.000000 1.000000
vt 0.500000 0.500000
vt 0.500000 0.500000
vt 0.000000 1.000000
vt 0.500000 0.500000
vt 1.000000 1.000000
vt 0.500000 1.000000
vt 1.000000 1.000000
vt 0.500000 0.500000
vt 0.500000 0.500000
vt 1.000000 1.000000
vt 0.500000 1.000000
vt 0.500000 1.000000
vt 0.000000 0.500000
vt 1.000000 1.000000
vt 1.000000 1.000000
vt 1.000000 1.000000
vt 1.000000 1.000000
vt 1.000000 1.000000
vt 1.000000 1.000000
vt 0.000000 1.000000
vt 1.000000 1.000000
vt 0.500000 0.500000
vt 1.000000 1.000000
vt 0.500000 1.000000
vt 1.000000 1.000000
vt 1.000000 1.000000
vt 0.000000 1.000000
vt 0.500000 1.000000
vt 0.500000 1.000000
vt 0.500000 1.000000
vt 0.000000 0.500000
vt 0.000000 1.000000
vt 1.000000 1.000000
vt 0.000000 0.500000
vt 1.000000 1.000000
vt 1.000000 1.000000
vt 0.000000 1.000000
vt 1.000000 1.000000
vt 1.000000 1.000000
vt 0.500000 1.000000
vt 0.000000 1.000000
vt 1.000000 1.000000
vt 0.500000 0.500000
vt 1.000000 1.000000
vt 1.000000 1.000000
vt 1.000000 1.000000
vt 1.000000 1.000000
vt 1.000000 1.000000
vt 0.500000 0.500000
vt 0.500000 1.000000
vt 0.000000 1.000000
vt 1.000000 1.000000
vt 1.000000 1.000000
vt 1.000000 1.000000
vt 1.000000 1.000000
vt 0.000000 1.000000
vt 1.000000 1.000000
vt 1.000000 1.000000
vt 0.000000 1.000000
vt 0.000000 0.500000
vt 0.500000 1.000000
vt 1.000000 1.000000
vt 1.000000 1.000000
vt 1.000000 1.000000
vt 1.000000 1.000000
vn 0.0000 1.0000 0.0000
vn -1.0000 0.0000 0.0000
vn 1.0000 0.0000 0.0000
vn 0.4472 0.0000 0.8944
vn 0.0000 0.0000 -1.0000
vn -0.4472 0.0000 0.8944
vn 0.0000 -1.0000 0.0000
vn 0.0000 0.0000 1.0000
vn 1.0000 0.0000 0.0019
vn -0.4479 0.0000 -0.8941
vn 0.4479 0.0000 -0.8941
vn -0.0024 -1.0000 -0.0033
vn 0.0000 -1.0000 -0.0035
vn 0.0024 -1.0000 -0.0033
vn -1.0000 0.0000 0.0019
vn 1.0000 0.0000 -0.0059
vn 0.0000 -1.0000 0.0038
vn 0.0000 1.0000 0.0038
vn -1.0000 0.0000 -0.0059
vn -0.0024 1.0000 -0.0033
vn 0.0000 1.0000 -0.0035
vn 0.0024 1.0000 -0.0033
vn 0.0025 1.0000 -0.0025
vn -0.0025 1.0000 -0.0025
vn 0.0025 -1.0000 -0.0025
vn -0.0025 -1.0000 -0.0025
s off
f 80/1/1 77/2/1 83/3/1
f 82/4/2 4/5/2 80/6/2
f 81/7/3 1/8/3 79/9/3
f 16/10/4 3/11/4 12/12/4
f 14/13/5 2/14/5 10/15/5
f 6/16/5 9/17/5 1/18/5
f 13/19/5 10/20/5 9/21/5
f 8/22/6 11/23/6 4/24/6
f 89/25/3 20/26/3 91/27/3
f 79/9/1 78/28/1 3/29/1
f 84/30/1 77/31/1 78/32/1
f 18/33/5 25/34/5 20/35/5
f 91/36/7 19/37/7 92/38/7
f 90/39/1 18/40/1 89/41/1
f 92/42/2 17/43/2 90/44/2
f 109/45/2 33/46/2 110/47/2
f 94/48/7 23/49/7 95/50/7
f 23/51/7 99/52/7 95/50/7
f 96/53/1 22/54/1 93/55/1
f 97/56/3 27/57/3 98/58/3
f 22/59/1 97/60/1 93/55/1
f 20/61/7 104/62/7 101/63/7
f 24/64/8 28/65/8 22/66/8
f 99/52/2 32/67/2 100/68/2
f 21/69/8 31/70/8 23/71/8
f 17/72/1 106/73/1 103/74/1
f 19/37/5 30/75/5 17/76/5
f 35/77/5 42/78/5 33/79/5
f 110/80/1 34/81/1 111/82/1
f 111/83/3 36/84/3 112/85/3
f 112/86/7 35/77/7 109/87/7
f 39/88/8 38/89/8 37/90/8
f 51/91/1 38/92/1 53/93/1
f 36/94/7 64/95/7 56/96/7
f 55/97/7 39/88/7 50/98/7
f 59/99/2 43/100/2 44/101/2
f 33/102/1 60/103/1 52/104/1
f 39/105/7 58/106/7 50/98/7
f 37/107/8 43/108/8 39/109/8
f 61/110/3 47/111/3 63/112/3
f 40/113/8 48/114/8 38/115/8
f 34/116/5 45/117/5 36/118/5
f 38/119/1 61/120/1 53/93/1
f 54/121/1 46/122/1 34/123/1
f 53/124/1 62/125/1 54/126/1
f 46/127/3 64/95/3 45/128/3
f 62/129/3 63/130/3 64/131/3
f 49/132/7 41/133/7 35/134/7
f 50/135/7 57/136/7 49/137/7
f 51/91/1 44/138/1 37/90/1
f 52/139/1 59/140/1 51/141/1
f 42/142/2 57/143/2 60/144/2
f 113/145/8 66/146/8 114/147/8
f 36/94/7 49/148/7 35/134/7
f 56/149/7 50/150/7 49/137/7
f 55/97/7 47/111/7 40/151/7
f 56/149/7 63/130/7 55/152/7
f 33/102/1 54/153/1 34/123/1
f 52/139/1 53/154/1 54/126/1
f 115/155/5 68/156/5 116/157/5
f 116/158/1 67/159/1 113/160/1
f 114/161/7 65/162/7 115/163/7
f 117/164/3 69/165/3 118/166/3
f 118/167/7 75/168/7 119/169/7
f 72/170/2 73/171/2 74/172/2
f 68/173/1 74/174/1 67/175/1
f 120/176/1 70/177/1 117/178/1
f 75/179/2 120/180/2 119/181/2
f 66/182/7 71/183/7 65/184/7
f 65/162/5 72/185/5 68/186/5
f 3/187/1 78/188/1 12/189/1
f 78/190/1 11/191/1 12/192/1
f 77/193/1 4/194/1 11/191/1
f 9/21/1 83/195/1 84/196/1
f 1/18/1 84/197/1 79/198/1
f 5/199/3 79/200/3 3/187/3
f 7/201/2 80/202/2 2/203/2
f 2/204/1 83/205/1 10/15/1
f 15/206/2 88/207/2 11/208/2
f 11/209/1 85/210/1 12/12/1
f 16/211/7 87/212/7 15/213/7
f 12/214/3 86/215/3 16/216/3
f 87/212/2 90/217/2 88/218/2
f 88/219/1 89/220/1 85/221/1
f 86/222/7 92/42/7 87/223/7
f 85/224/3 91/225/3 86/226/3
f 96/53/1 32/227/1 21/228/1
f 105/229/2 100/230/2 106/231/2
f 94/48/7 27/57/7 24/232/7
f 93/233/1 108/234/1 107/235/1
f 108/236/3 98/237/3 104/238/3
f 103/239/1 93/240/1 107/235/1
f 95/241/7 105/229/7 102/242/7
f 101/243/7 95/244/7 102/242/7
f 20/61/7 102/245/7 19/246/7
f 102/247/7 29/248/7 19/246/7
f 17/72/1 107/249/1 18/250/1
f 26/251/3 104/62/3 25/252/3
f 107/253/1 26/254/1 18/250/1
f 29/248/2 106/255/2 30/256/2
f 103/239/1 100/257/1 96/258/1
f 101/243/7 98/237/7 94/259/7
f 24/260/7 109/45/7 23/261/7
f 22/262/3 112/263/3 24/264/3
f 21/265/1 111/266/1 22/66/1
f 23/49/2 110/267/2 21/228/2
f 58/268/7 115/155/7 57/269/7
f 60/270/1 113/271/1 59/99/1
f 57/136/5 116/272/5 60/273/5
f 59/274/8 114/275/8 58/276/8
f 119/277/2 74/278/2 73/279/2
f 74/280/1 117/281/1 67/175/1
f 66/182/7 119/181/7 73/282/7
f 67/283/3 118/284/3 66/285/3
f 5/286/7 16/211/7 123/287/7
f 124/288/7 16/10/7 15/213/7
f 8/289/7 124/288/7 15/290/7
f 121/291/7 124/292/7 122/293/7
f 82/294/7 124/292/7 8/289/7
f 123/295/7 81/7/7 5/286/7
f 121/291/7 6/16/7 81/296/7
f 13/297/7 122/298/7 14/299/7
f 14/300/7 82/4/7 7/301/7
f 126/302/7 128/303/7 125/304/7
f 127/305/9 130/306/9 128/307/9
f 132/308/2 134/309/2 131/310/2
f 136/311/10 138/312/10 135/313/10
f 140/314/8 142/315/8 139/316/8
f 143/317/8 133/318/8 132/319/8
f 139/320/8 144/321/8 143/322/8
f 145/323/11 129/324/11 127/325/11
f 148/326/2 150/327/2 147/328/2
f 131/310/7 151/329/7 152/330/7
f 152/331/7 126/332/7 125/333/7
f 153/334/8 149/335/8 148/336/8
f 156/337/1 147/338/1 155/339/1
f 149/340/7 158/341/7 150/342/7
f 157/343/3 155/344/3 158/345/3
f 160/346/3 162/347/3 159/348/3
f 163/349/1 165/350/1 166/351/1
f 167/352/1 164/353/1 163/349/1
f 170/354/7 172/355/7 169/356/7
f 174/357/2 176/358/2 173/359/2
f 176/360/7 170/361/7 169/356/7
f 178/362/1 148/363/1 177/364/1
f 175/365/5 165/366/5 170/367/5
f 180/368/3 167/352/3 179/369/3
f 168/370/5 171/371/5 164/372/5
f 182/373/7 157/374/7 181/375/7
f 183/376/8 156/337/8 157/377/8
f 185/378/8 161/379/8 160/380/8
f 188/381/7 159/382/7 187/383/7
f 190/384/2 187/385/2 189/386/2
f 161/379/1 189/387/1 162/388/1
f 192/389/5 194/390/5 191/391/5
f 192/392/7 196/393/7 195/394/7
f 198/395/1 190/396/1 197/397/1
f 194/390/1 201/398/1 200/399/1
f 202/400/3 204/401/3 205/402/3
f 207/403/7 160/404/7 206/405/7
f 205/402/1 194/406/1 200/399/1
f 204/407/5 191/408/5 194/409/5
f 209/410/2 211/411/2 208/412/2
f 210/413/5 193/414/5 192/415/5
f 199/416/8 188/417/8 190/418/8
f 211/419/7 192/420/7 195/394/7
f 188/421/7 213/422/7 214/423/7
f 213/424/7 195/425/7 214/426/7
f 198/395/2 212/427/2 199/428/2
f 208/429/2 213/430/2 198/431/2
f 161/432/1 215/433/1 216/434/1
f 215/435/1 200/436/1 216/437/1
f 191/391/7 202/438/7 196/393/7
f 196/439/7 207/440/7 206/441/7
f 185/442/3 215/443/3 186/444/3
f 218/445/5 220/446/5 217/447/5
f 216/448/1 190/396/1 161/432/1
f 200/449/1 197/450/1 216/437/1
f 209/410/1 201/398/1 193/451/1
f 208/429/1 197/450/1 201/452/1
f 214/453/7 160/404/7 188/421/7
f 195/454/7 206/441/7 214/426/7
f 222/455/8 224/456/8 221/457/8
f 219/458/7 221/459/7 220/460/7
f 224/461/1 218/462/1 217/463/1
f 226/464/2 228/465/2 225/466/2
f 230/467/1 225/468/1 229/469/1
f 232/470/3 234/471/3 231/472/3
f 231/473/7 222/474/7 219/475/7
f 227/476/7 236/477/7 228/478/7
f 236/479/3 230/480/3 229/481/3
f 223/482/1 232/483/1 218/484/1
f 234/485/8 223/486/8 222/487/8
f 136/488/12 135/489/12 151/490/12
f 151/491/13 145/492/13 126/493/13
f 126/494/14 145/492/14 127/495/14
f 143/322/7 125/496/7 139/497/7
f 132/319/7 152/498/7 143/499/7
f 136/488/15 134/500/15 137/501/15
f 128/502/3 141/503/3 140/504/3
f 125/505/7 140/506/7 139/316/7
f 145/507/16 238/508/16 146/509/16
f 239/510/17 145/511/17 135/313/17
f 238/512/18 138/513/18 146/514/18
f 240/515/19 135/516/19 138/517/19
f 158/518/3 238/512/3 237/519/3
f 150/520/7 237/521/7 239/522/7
f 155/344/1 240/523/1 238/524/1
f 147/525/2 239/526/2 240/527/2
f 171/528/7 179/529/7 172/355/7
f 179/530/3 241/531/3 182/532/3
f 165/533/1 173/534/1 166/351/1
f 243/535/7 169/536/7 242/537/7
f 173/538/2 243/539/2 178/540/2
f 169/541/7 181/542/7 242/537/7
f 241/531/1 163/543/1 244/544/1
f 163/545/1 177/546/1 244/544/1
f 244/547/1 148/363/1 156/548/1
f 156/548/1 241/549/1 244/550/1
f 242/551/7 157/374/7 149/552/7
f 178/362/2 154/553/2 153/554/2
f 149/552/7 243/555/7 242/556/7
f 182/557/3 184/558/3 183/559/3
f 179/560/7 181/542/7 172/561/7
f 173/538/1 177/546/1 166/562/1
f 162/347/1 165/563/1 164/564/1
f 189/565/2 170/566/2 165/567/2
f 187/568/7 171/569/7 170/367/7
f 159/570/3 164/571/3 171/528/3
f 224/456/1 205/572/1 215/573/1
f 220/574/7 207/575/7 202/400/7
f 221/576/8 215/435/8 207/577/8
f 217/578/5 202/579/5 205/580/5
f 231/581/3 229/582/3 232/583/3
f 219/475/7 236/584/7 231/585/7
f 229/481/1 218/484/1 232/586/1
f 225/587/2 219/588/2 218/589/2
f 137/590/20 245/591/20 138/513/20
f 138/312/21 246/592/21 146/514/21
f 129/593/22 146/594/22 246/592/22
f 246/595/1 248/596/1 247/597/1
f 246/595/23 130/598/23 129/593/23
f 134/309/24 245/599/24 137/590/24
f 133/318/1 248/596/1 134/600/1
f 247/601/1 144/602/1 142/603/1
f 130/306/1 142/604/1 141/605/1
f 69/606/5 230/467/5 75/168/5
f 70/607/5 226/464/5 69/165/5
f 76/608/5 227/476/5 70/177/5
f 75/179/5 235/609/5 76/610/5
f 80/1/1 4/611/1 77/2/1
f 82/4/2 8/612/2 4/5/2
f 81/7/3 6/613/3 1/8/3
f 16/10/4 5/614/4 3/11/4
f 14/13/5 7/615/5 2/14/5
f 6/16/5 13/616/5 9/17/5
f 13/19/5 14/617/5 10/20/5
f 8/22/6 15/618/6 11/23/6
f 89/25/3 18/250/3 20/26/3
f 79/9/1 84/619/1 78/28/1
f 84/30/1 83/620/1 77/31/1
f 18/33/5 26/621/5 25/34/5
f 91/36/7 20/622/7 19/37/7
f 90/39/1 17/623/1 18/40/1
f 92/42/2 19/624/2 17/43/2
f 109/45/2 35/625/2 33/46/2
f 94/48/7 24/626/7 23/49/7
f 23/51/7 31/627/7 99/52/7
f 96/53/1 21/628/1 22/54/1
f 97/56/3 28/629/3 27/57/3
f 22/59/1 28/630/1 97/60/1
f 20/61/7 25/631/7 104/62/7
f 24/64/8 27/632/8 28/65/8
f 99/52/2 31/633/2 32/67/2
f 21/69/8 32/634/8 31/70/8
f 17/72/1 30/635/1 106/73/1
f 19/37/5 29/636/5 30/75/5
f 35/77/5 41/637/5 42/78/5
f 110/80/1 33/638/1 34/81/1
f 111/83/3 34/123/3 36/84/3
f 112/86/7 36/639/7 35/77/7
f 39/88/8 40/640/8 38/89/8
f 51/91/1 37/641/1 38/92/1
f 36/94/7 45/642/7 64/95/7
f 55/97/7 40/643/7 39/88/7
f 59/99/2 58/106/2 43/100/2
f 33/102/1 42/644/1 60/103/1
f 39/105/7 43/645/7 58/106/7
f 37/107/8 44/646/8 43/108/8
f 61/110/3 48/647/3 47/111/3
f 40/113/8 47/648/8 48/114/8
f 34/116/5 46/649/5 45/117/5
f 38/119/1 48/650/1 61/120/1
f 54/121/1 62/651/1 46/122/1
f 53/124/1 61/652/1 62/125/1
f 46/127/3 62/653/3 64/95/3
f 62/129/3 61/654/3 63/130/3
f 49/132/7 57/655/7 41/133/7
f 50/135/7 58/656/7 57/136/7
f 51/91/1 59/657/1 44/138/1
f 52/139/1 60/658/1 59/140/1
f 42/142/2 41/133/2 57/143/2
f 113/145/8 67/175/8 66/146/8
f 36/94/7 56/659/7 49/148/7
f 56/149/7 55/660/7 50/150/7
f 55/97/7 63/661/7 47/111/7
f 56/149/7 64/662/7 63/130/7
f 33/102/1 52/663/1 54/153/1
f 52/139/1 51/664/1 53/154/1
f 115/155/5 65/665/5 68/156/5
f 116/158/1 68/666/1 67/159/1
f 114/161/7 66/667/7 65/162/7
f 117/164/3 70/607/3 69/165/3
f 118/167/7 69/606/7 75/168/7
f 72/170/2 71/183/2 73/171/2
f 68/173/1 72/668/1 74/174/1
f 120/176/1 76/608/1 70/177/1
f 75/179/2 76/610/2 120/180/2
f 66/182/7 73/669/7 71/183/7
f 65/162/5 71/670/5 72/185/5
f 78/190/1 77/671/1 11/191/1
f 9/21/1 10/672/1 83/195/1
f 1/18/1 9/673/1 84/197/1
f 5/199/3 81/674/3 79/200/3
f 7/201/2 82/675/2 80/202/2
f 2/204/1 80/676/1 83/205/1
f 15/206/2 87/677/2 88/207/2
f 11/209/1 88/678/1 85/210/1
f 16/211/7 86/679/7 87/212/7
f 12/214/3 85/221/3 86/215/3
f 87/212/2 92/680/2 90/217/2
f 88/219/1 90/681/1 89/220/1
f 86/222/7 91/682/7 92/42/7
f 85/224/3 89/41/3 91/225/3
f 96/53/1 100/683/1 32/227/1
f 105/229/2 99/684/2 100/230/2
f 94/48/7 98/685/7 27/57/7
f 93/233/1 97/686/1 108/234/1
f 108/236/3 97/687/3 98/237/3
f 103/239/1 96/688/1 93/240/1
f 95/241/7 99/689/7 105/229/7
f 101/243/7 94/690/7 95/244/7
f 20/61/7 101/691/7 102/245/7
f 102/247/7 105/692/7 29/248/7
f 17/72/1 103/693/1 107/249/1
f 26/251/3 108/694/3 104/62/3
f 107/253/1 108/695/1 26/254/1
f 29/248/2 105/696/2 106/255/2
f 103/239/1 106/697/1 100/257/1
f 101/243/7 104/698/7 98/237/7
f 24/260/7 112/699/7 109/45/7
f 22/262/3 111/82/3 112/263/3
f 21/265/1 110/700/1 111/266/1
f 23/49/2 109/701/2 110/267/2
f 58/268/7 114/702/7 115/155/7
f 60/270/1 116/703/1 113/271/1
f 57/136/5 115/704/5 116/272/5
f 59/274/8 113/160/8 114/275/8
f 119/277/2 120/705/2 74/278/2
f 74/280/1 120/706/1 117/281/1
f 66/182/7 118/707/7 119/181/7
f 67/283/3 117/178/3 118/284/3
f 124/288/7 123/287/7 16/10/7
f 121/291/7 123/287/7 124/292/7
f 82/294/7 122/708/7 124/292/7
f 123/295/7 121/709/7 81/7/7
f 121/291/7 13/710/7 6/16/7
f 13/297/7 121/709/7 122/298/7
f 14/300/7 122/708/7 82/4/7
f 126/302/25 127/711/25 128/303/25
f 127/305/9 129/712/9 130/306/9
f 132/308/2 133/713/2 134/309/2
f 136/311/10 137/714/10 138/312/10
f 140/314/8 141/715/8 142/315/8
f 143/317/8 144/716/8 133/318/8
f 139/320/8 142/717/8 144/321/8
f 145/323/11 146/718/11 129/324/11
f 148/326/2 149/552/2 150/327/2
f 131/310/26 136/719/26 151/329/26
f 152/331/7 151/720/7 126/332/7
f 153/334/8 154/721/8 149/335/8
f 156/337/1 148/722/1 147/338/1
f 149/340/7 157/723/7 158/341/7
f 157/343/3 156/724/3 155/344/3
f 160/346/3 161/725/3 162/347/3
f 163/349/1 164/571/1 165/350/1
f 167/352/1 168/726/1 164/353/1
f 170/354/7 171/727/7 172/355/7
f 174/357/2 175/728/2 176/358/2
f 176/360/7 175/729/7 170/361/7
f 178/362/1 153/730/1 148/363/1
f 175/365/5 174/731/5 165/366/5
f 180/368/3 168/732/3 167/352/3
f 168/370/5 180/733/5 171/371/5
f 182/373/7 183/734/7 157/374/7
f 183/376/8 184/735/8 156/337/8
f 185/378/8 186/736/8 161/379/8
f 188/381/7 160/737/7 159/382/7
f 190/384/2 188/421/2 187/385/2
f 161/379/1 190/738/1 189/387/1
f 192/389/5 193/739/5 194/390/5
f 192/392/7 191/740/7 196/393/7
f 198/395/1 199/741/1 190/396/1
f 194/390/1 193/742/1 201/398/1
f 202/400/3 203/743/3 204/401/3
f 207/403/7 185/744/7 160/404/7
f 205/402/1 204/745/1 194/406/1
f 204/407/5 203/746/5 191/408/5
f 209/410/2 210/747/2 211/411/2
f 210/413/5 209/748/5 193/414/5
f 199/416/8 212/749/8 188/417/8
f 211/419/7 210/750/7 192/420/7
f 188/421/7 212/751/7 213/422/7
f 213/424/7 211/752/7 195/425/7
f 198/395/2 213/753/2 212/427/2
f 208/429/2 211/754/2 213/430/2
f 161/432/1 186/444/1 215/433/1
f 215/435/1 205/755/1 200/436/1
f 191/391/7 203/756/7 202/438/7
f 196/439/7 202/757/7 207/440/7
f 185/442/3 207/758/3 215/443/3
f 218/445/5 219/475/5 220/446/5
f 216/448/1 197/759/1 190/396/1
f 200/449/1 201/760/1 197/450/1
f 209/410/1 208/761/1 201/398/1
f 208/429/1 198/762/1 197/450/1
f 214/453/7 206/763/7 160/404/7
f 195/454/7 196/764/7 206/441/7
f 222/455/8 223/765/8 224/456/8
f 219/458/7 222/766/7 221/459/7
f 224/461/1 223/486/1 218/462/1
f 226/464/2 227/767/2 228/465/2
f 230/467/1 226/768/1 225/468/1
f 232/470/3 233/769/3 234/471/3
f 231/473/7 234/770/7 222/474/7
f 227/476/7 235/771/7 236/477/7
f 236/479/3 235/609/3 230/480/3
f 223/482/1 233/769/1 232/483/1
f 234/485/8 233/772/8 223/486/8
f 151/491/13 135/773/13 145/492/13
f 143/322/7 152/774/7 125/496/7
f 132/319/7 131/775/7 152/498/7
f 136/488/15 131/776/15 134/500/15
f 128/502/3 130/777/3 141/503/3
f 125/505/7 128/778/7 140/506/7
f 145/507/16 237/779/16 238/508/16
f 239/510/17 237/780/17 145/511/17
f 238/512/18 240/781/18 138/513/18
f 240/515/19 239/522/19 135/516/19
f 158/518/3 155/782/3 238/512/3
f 150/520/7 158/783/7 237/521/7
f 155/344/1 147/784/1 240/523/1
f 147/525/2 150/342/2 239/526/2
f 171/528/7 180/785/7 179/529/7
f 179/530/3 167/786/3 241/531/3
f 165/533/1 174/357/1 173/534/1
f 243/535/7 176/787/7 169/536/7
f 173/538/2 176/788/2 243/539/2
f 169/541/7 172/789/7 181/542/7
f 241/531/1 167/790/1 163/543/1
f 163/545/1 166/791/1 177/546/1
f 244/547/1 177/792/1 148/363/1
f 156/548/1 184/558/1 241/549/1
f 242/551/7 181/793/7 157/374/7
f 178/362/2 243/794/2 154/553/2
f 149/552/7 154/795/7 243/555/7
f 182/557/3 241/796/3 184/558/3
f 179/560/7 182/797/7 181/542/7
f 173/538/1 178/798/1 177/546/1
f 162/347/1 189/799/1 165/563/1
f 189/565/2 187/383/2 170/566/2
f 187/568/7 159/800/7 171/569/7
f 159/570/3 162/801/3 164/571/3
f 224/456/1 217/802/1 205/572/1
f 220/574/7 221/803/7 207/575/7
f 221/576/8 224/804/8 215/435/8
f 217/578/5 220/460/5 202/579/5
f 231/581/3 236/805/3 229/582/3
f 219/475/7 228/806/7 236/584/7
f 229/481/1 225/807/1 218/484/1
f 225/587/2 228/478/2 219/588/2
f 138/312/21 245/591/21 246/592/21
f 246/595/1 245/591/1 248/596/1
f 246/595/1 247/808/1 130/598/1
f 134/309/1 248/809/1 245/599/1
f 133/318/1 144/810/1 248/596/1
f 247/601/1 248/809/1 144/602/1
f 130/306/1 247/808/1 142/604/1
f 69/606/5 226/768/5 230/467/5
f 70/607/5 227/767/5 226/464/5
f 76/608/5 235/771/5 227/476/5
f 75/179/5 230/480/5 235/609/5
