{
    "asset" : {
        "generator" : "Khronos glTF Blender I/O v1.2.18",
        "version" : "2.0"
    },
    "scene" : 0,
    "scenes" : [
        {
            "extras" : {
                "glTF2ExportSettings" : {
                    "export_apply" : 1,
                    "export_colors" : 1,
                    "export_draco_mesh_compression_enable" : 0,
                    "export_extras" : 1,
                    "export_force_sampling" : 1,
                    "export_format" : "GLTF_EMBEDDED",
                    "export_frame_range" : 1,
                    "export_materials" : 1,
                    "export_selected" : 0,
                    "export_tangents" : 1,
                    "export_yup" : 1
                }
            },
            "name" : "dude_scene",
            "nodes" : [
                38,
                39,
                40
            ]
        }
    ],
    "nodes" : [
        {
            "name" : "hat",
            "rotation" : [
                0.006578509695827961,
                4.172234639554517e-06,
                -2.7447660144730435e-08,
                0.9999783635139465
            ],
            "scale" : [
                1,
                0.9999999403953552,
                0.9999999403953552
            ],
            "translation" : [
                -1.0429814835139634e-14,
                1.0451414585113525,
                -3.725290298461914e-09
            ]
        },
        {
            "children" : [
                0
            ],
            "name" : "head",
            "rotation" : [
                2.2134364030534925e-07,
                0.9985394477844238,
                0.05402806028723717,
                4.2416181713633705e-06
            ],
            "scale" : [
                1,
                0.9999998211860657,
                1.0000001192092896
            ],
            "translation" : [
                -4.440892098500626e-16,
                0.14503543078899384,
                -3.725290298461914e-09
            ]
        },
        {
            "children" : [
                1
            ],
            "name" : "cervical",
            "rotation" : [
                -0.02925317920744419,
                -3.574749598556082e-07,
                -1.4878862586442665e-08,
                0.9995720386505127
            ],
            "scale" : [
                1,
                1.0000001192092896,
                1
            ],
            "translation" : [
                1.7763568394002505e-15,
                0.791188657283783,
                -3.725290298461914e-09
            ]
        },
        {
            "name" : "fingers_distal.l",
            "rotation" : [
                -0.018257172778248787,
                0.05254276096820831,
                -0.015567081980407238,
                0.9983304142951965
            ],
            "scale" : [
                0.9999999403953552,
                0.9999998211860657,
                0.9999998807907104
            ],
            "translation" : [
                -2.8206271096564706e-08,
                0.08605752885341644,
                -2.60770320892334e-08
            ]
        },
        {
            "children" : [
                3
            ],
            "name" : "fingers_proximal.l",
            "rotation" : [
                -0.10884421318769455,
                0.45635488629341125,
                -0.21071092784404755,
                0.8576095104217529
            ],
            "scale" : [
                0.9999999403953552,
                1,
                0.9999999403953552
            ],
            "translation" : [
                -2.005215904432589e-08,
                0.24040038883686066,
                -1.30385160446167e-07
            ]
        },
        {
            "name" : "thumb_distal.l",
            "rotation" : [
                -0.0331684835255146,
                0.002788820769637823,
                0.02503862790763378,
                0.9991322159767151
            ],
            "scale" : [
                1,
                0.9999999403953552,
                0.9999999403953552
            ],
            "translation" : [
                -7.324002382347317e-08,
                0.046908196061849594,
                -1.210719347000122e-08
            ]
        },
        {
            "children" : [
                5
            ],
            "name" : "thumb_proximal.l",
            "rotation" : [
                0.3676392734050751,
                0.31104105710983276,
                -0.671215832233429,
                0.563528299331665
            ],
            "scale" : [
                0.9999999403953552,
                0.9999999403953552,
                0.9999998211860657
            ],
            "translation" : [
                0.08576899766921997,
                0.11900512129068375,
                0.005761409178376198
            ]
        },
        {
            "children" : [
                4,
                6
            ],
            "name" : "hand.l",
            "rotation" : [
                -0.044189564883708954,
                0.08249898999929428,
                -0.056832797825336456,
                0.9939875602722168
            ],
            "translation" : [
                2.110070340677339e-08,
                0.669228196144104,
                8.754432201385498e-08
            ]
        },
        {
            "children" : [
                7
            ],
            "name" : "forearm.l",
            "rotation" : [
                -0.011144115589559078,
                0.1951073557138443,
                -0.1441243588924408,
                0.9700706601142883
            ],
            "scale" : [
                0.9999999403953552,
                1,
                1
            ],
            "translation" : [
                -6.51925802230835e-09,
                0.8102801442146301,
                -2.3283064365386963e-08
            ]
        },
        {
            "children" : [
                8
            ],
            "name" : "upper_arm.l",
            "rotation" : [
                -0.6221400499343872,
                0.2286970019340515,
                0.7116038799285889,
                0.23293673992156982
            ],
            "scale" : [
                1.0000003576278687,
                1.0000001192092896,
                1
            ],
            "translation" : [
                -0.4875223934650421,
                0.5776719450950623,
                0.05863179638981819
            ]
        },
        {
            "name" : "fingers_distal.r",
            "rotation" : [
                -0.018257148563861847,
                -0.05254273861646652,
                0.015567101538181305,
                0.9983304738998413
            ],
            "scale" : [
                0.9999999403953552,
                0.9999999403953552,
                0.9999999403953552
            ],
            "translation" : [
                -9.770888453886073e-08,
                0.08605757355690002,
                1.210719347000122e-08
            ]
        },
        {
            "children" : [
                10
            ],
            "name" : "fingers_proximal.r",
            "rotation" : [
                -0.10884416103363037,
                -0.45635485649108887,
                0.210710808634758,
                0.8576095700263977
            ],
            "scale" : [
                0.9999999403953552,
                0.9999998807907104,
                0.9999998807907104
            ],
            "translation" : [
                6.475566038943725e-08,
                0.2404005229473114,
                -6.332993507385254e-08
            ]
        },
        {
            "name" : "thumb_distal.r",
            "rotation" : [
                -0.03316866233944893,
                -0.0027888582553714514,
                -0.025038760155439377,
                0.9991322159767151
            ],
            "scale" : [
                1,
                1.0000001192092896,
                1
            ],
            "translation" : [
                -7.534967494393641e-08,
                0.046908188611269,
                -3.725290298461914e-09
            ]
        },
        {
            "children" : [
                12
            ],
            "name" : "thumb_proximal.r",
            "rotation" : [
                0.36763936281204224,
                -0.311040997505188,
                0.6712158918380737,
                0.5635282397270203
            ],
            "scale" : [
                0.9999998807907104,
                1,
                0.9999998807907104
            ],
            "translation" : [
                -0.08576896786689758,
                0.11900520324707031,
                0.005761479027569294
            ]
        },
        {
            "children" : [
                11,
                13
            ],
            "name" : "hand.r",
            "rotation" : [
                -0.04418960213661194,
                -0.08249903470277786,
                0.056832849979400635,
                0.9939875602722168
            ],
            "scale" : [
                0.9999998807907104,
                1.0000001192092896,
                1
            ],
            "translation" : [
                1.986357567318464e-08,
                0.6692285537719727,
                2.0489096641540527e-08
            ]
        },
        {
            "children" : [
                14
            ],
            "name" : "forearm.r",
            "rotation" : [
                -0.02703341282904148,
                -0.19250163435935974,
                0.1542593240737915,
                0.968718945980072
            ],
            "scale" : [
                0.9999998807907104,
                0.9999998807907104,
                0.9999999403953552
            ],
            "translation" : [
                -1.9206751744604844e-09,
                0.9089136719703674,
                -1.2293457984924316e-07
            ]
        },
        {
            "children" : [
                15
            ],
            "name" : "upper_arm.r",
            "rotation" : [
                -0.6163685321807861,
                -0.2456204742193222,
                -0.708961009979248,
                0.2390289157629013
            ],
            "scale" : [
                1.0000001192092896,
                0.9999998807907104,
                1
            ],
            "translation" : [
                0.4034609794616699,
                0.6354655027389526,
                0.038788147270679474
            ]
        },
        {
            "children" : [
                2,
                9,
                16
            ],
            "name" : "thoratic",
            "rotation" : [
                -0.016692668199539185,
                1.1045164001188823e-06,
                3.979840013101921e-09,
                0.9998607635498047
            ],
            "scale" : [
                1,
                0.9999999403953552,
                0.9999999403953552
            ],
            "translation" : [
                1.5265566588595902e-16,
                0.694050669670105,
                2.9103830456733704e-11
            ]
        },
        {
            "name" : "leg.l",
            "rotation" : [
                -5.460493390785359e-09,
                0.9978746175765991,
                -0.06516297906637192,
                -4.3220521206421836e-07
            ],
            "scale" : [
                1,
                0.9999997615814209,
                0.9999999403953552
            ],
            "translation" : [
                -1.3087454675542176e-08,
                0.7260463833808899,
                2.4063950831987313e-10
            ]
        },
        {
            "children" : [
                18
            ],
            "name" : "thigh.l",
            "rotation" : [
                -0.9997685551643372,
                -2.906288230908327e-11,
                8.657919465804298e-07,
                0.021513020619750023
            ],
            "scale" : [
                1,
                0.9999999403953552,
                0.9999130368232727
            ],
            "translation" : [
                -0.2754462659358978,
                -0.01859140582382679,
                -0.0008917874074541032
            ]
        },
        {
            "name" : "leg.r",
            "rotation" : [
                -1.1161628066247431e-08,
                0.9978746175765991,
                -0.06516297906637192,
                4.3220518364250893e-07
            ],
            "scale" : [
                1,
                0.9999997615814209,
                0.9999999403953552
            ],
            "translation" : [
                -1.2516688130403963e-08,
                0.7260463833808899,
                9.92486093309708e-11
            ]
        },
        {
            "children" : [
                20
            ],
            "name" : "thigh.r",
            "rotation" : [
                -0.9997685551643372,
                8.348973956628924e-09,
                4.7648467216276913e-07,
                0.021513020619750023
            ],
            "scale" : [
                1,
                0.9999999403953552,
                0.9999130368232727
            ],
            "translation" : [
                0.2754462659358978,
                -0.01859140209853649,
                -0.0008925272850319743
            ]
        },
        {
            "children" : [
                17,
                19,
                21
            ],
            "name" : "lumbar",
            "rotation" : [
                1.0241247849762658e-09,
                0.999998927116394,
                0.0015250209253281355,
                6.715436597914959e-07
            ],
            "translation" : [
                0,
                -0.020626068115234375,
                0
            ]
        },
        {
            "name" : "leg_pole_target.l",
            "rotation" : [
                0,
                0.7071068286895752,
                0.7071068286895752,
                0
            ],
            "translation" : [
                0.2754462659358978,
                -0.7646863460540771,
                0.9036009907722473
            ]
        },
        {
            "name" : "toes.l",
            "rotation" : [
                0.3510763645172119,
                -1.1157327151067875e-07,
                -1.7843588295818336e-07,
                0.9363468885421753
            ],
            "scale" : [
                1,
                0.9999998807907104,
                0.9999998807907104
            ],
            "translation" : [
                -7.82918618824624e-09,
                0.2548169493675232,
                1.1486068274280115e-07
            ]
        },
        {
            "children" : [
                24
            ],
            "name" : "foot.l",
            "rotation" : [
                -0.40216243267059326,
                -2.474470761626435e-07,
                4.7814218362418615e-08,
                0.9155683517456055
            ],
            "scale" : [
                1,
                1.0000001192092896,
                1.0000001192092896
            ],
            "translation" : [
                -0.0032634458038955927,
                0.1395421028137207,
                0.29169702529907227
            ]
        },
        {
            "name" : "leg_ik.l",
            "rotation" : [
                -0.4019714891910553,
                -3.456206987273447e-10,
                6.122337879721496e-14,
                0.9156522154808044
            ],
            "translation" : [
                1.0023665231173595e-09,
                0.2548171281814575,
                6.722920176116531e-08
            ]
        },
        {
            "children" : [
                26
            ],
            "name" : "foot_roll.l",
            "rotation" : [
                -6.946913089223017e-08,
                0.4021624028682709,
                0.9155683517456055,
                3.0362421910012927e-08
            ],
            "scale" : [
                1,
                1,
                0.9999999403953552
            ],
            "translation" : [
                -0.0023365949746221304,
                0.311933696269989,
                0.10404618829488754
            ]
        },
        {
            "name" : "toes_control.l",
            "rotation" : [
                -0.055129069834947586,
                -5.078484832665708e-07,
                1.981805652917501e-08,
                0.9984793066978455
            ],
            "translation" : [
                -0.0023365949746221304,
                0.311933696269989,
                0.10404606908559799
            ]
        },
        {
            "children" : [
                25,
                27,
                28
            ],
            "name" : "leg_control.l",
            "rotation" : [
                -5.337394881621549e-08,
                0.70725417137146,
                0.7069594264030457,
                -5.339621722555421e-08
            ],
            "translation" : [
                0.27256134152412415,
                -1.8565737009048462,
                -0.18211586773395538
            ]
        },
        {
            "name" : "leg_pole_target.r",
            "rotation" : [
                0,
                0.7071068286895752,
                0.7071068286895752,
                0
            ],
            "translation" : [
                -0.2754462659358978,
                -0.7646863460540771,
                0.9036009907722473
            ]
        },
        {
            "name" : "toes.r",
            "rotation" : [
                0.3510763645172119,
                1.1157327151067875e-07,
                1.7843588295818336e-07,
                0.9363468885421753
            ],
            "scale" : [
                1,
                0.9999998807907104,
                0.9999998807907104
            ],
            "translation" : [
                7.82918618824624e-09,
                0.2548169493675232,
                1.1486068274280115e-07
            ]
        },
        {
            "children" : [
                31
            ],
            "name" : "foot.r",
            "rotation" : [
                -0.40216243267059326,
                2.474470761626435e-07,
                -4.7814218362418615e-08,
                0.9155683517456055
            ],
            "scale" : [
                1,
                1.0000001192092896,
                1.0000001192092896
            ],
            "translation" : [
                0.0032634458038955927,
                0.1395421028137207,
                0.29169702529907227
            ]
        },
        {
            "name" : "leg_ik.r",
            "rotation" : [
                -0.4019714891910553,
                3.456206987273447e-10,
                -6.122337879721496e-14,
                0.9156522154808044
            ],
            "translation" : [
                -1.0023665231173595e-09,
                0.2548171281814575,
                6.722920176116531e-08
            ]
        },
        {
            "children" : [
                33
            ],
            "name" : "foot_roll.r",
            "rotation" : [
                6.946913089223017e-08,
                0.4021624028682709,
                0.9155683517456055,
                -3.0362421910012927e-08
            ],
            "scale" : [
                1,
                1,
                0.9999999403953552
            ],
            "translation" : [
                0.0023365949746221304,
                0.311933696269989,
                0.10404618829488754
            ]
        },
        {
            "name" : "toes_control.r",
            "rotation" : [
                -0.055129069834947586,
                5.078484832665708e-07,
                -1.981805652917501e-08,
                0.9984793066978455
            ],
            "translation" : [
                0.0023365949746221304,
                0.311933696269989,
                0.10404606908559799
            ]
        },
        {
            "children" : [
                32,
                34,
                35
            ],
            "name" : "leg_control.r",
            "rotation" : [
                5.337394881621549e-08,
                0.70725417137146,
                0.7069594264030457,
                5.339621722555421e-08
            ],
            "translation" : [
                -0.27256134152412415,
                -1.8565737009048462,
                -0.18211586773395538
            ]
        },
        {
            "mesh" : 0,
            "name" : "dude",
            "skin" : 0
        },
        {
            "children" : [
                37,
                22,
                23,
                29,
                30,
                36
            ],
            "name" : "dude_armature",
            "translation" : [
                0,
                1.856339931488037,
                -0.034651681780815125
            ]
        },
        {
            "name" : "light",
            "rotation" : [
                0.16907575726509094,
                0.7558803558349609,
                -0.27217137813568115,
                0.570947527885437
            ],
            "translation" : [
                8.176627159118652,
                7.297120094299316,
                6.065731525421143
            ]
        },
        {
            "name" : "camera",
            "rotation" : [
                0.5,
                0.5,
                -0.5,
                0.4999999701976776
            ],
            "translation" : [
                13.040314674377441,
                2.5464913845062256,
                3.3673348426818848
            ]
        }
    ],
    "animations" : [
        {
            "channels" : [
                {
                    "sampler" : 0,
                    "target" : {
                        "node" : 22,
                        "path" : "translation"
                    }
                },
                {
                    "sampler" : 1,
                    "target" : {
                        "node" : 22,
                        "path" : "rotation"
                    }
                },
                {
                    "sampler" : 2,
                    "target" : {
                        "node" : 22,
                        "path" : "scale"
                    }
                },
                {
                    "sampler" : 3,
                    "target" : {
                        "node" : 17,
                        "path" : "translation"
                    }
                },
                {
                    "sampler" : 4,
                    "target" : {
                        "node" : 17,
                        "path" : "rotation"
                    }
                },
                {
                    "sampler" : 5,
                    "target" : {
                        "node" : 17,
                        "path" : "scale"
                    }
                },
                {
                    "sampler" : 6,
                    "target" : {
                        "node" : 2,
                        "path" : "translation"
                    }
                },
                {
                    "sampler" : 7,
                    "target" : {
                        "node" : 2,
                        "path" : "rotation"
                    }
                },
                {
                    "sampler" : 8,
                    "target" : {
                        "node" : 2,
                        "path" : "scale"
                    }
                },
                {
                    "sampler" : 9,
                    "target" : {
                        "node" : 1,
                        "path" : "translation"
                    }
                },
                {
                    "sampler" : 10,
                    "target" : {
                        "node" : 1,
                        "path" : "rotation"
                    }
                },
                {
                    "sampler" : 11,
                    "target" : {
                        "node" : 1,
                        "path" : "scale"
                    }
                },
                {
                    "sampler" : 12,
                    "target" : {
                        "node" : 0,
                        "path" : "translation"
                    }
                },
                {
                    "sampler" : 13,
                    "target" : {
                        "node" : 0,
                        "path" : "rotation"
                    }
                },
                {
                    "sampler" : 14,
                    "target" : {
                        "node" : 0,
                        "path" : "scale"
                    }
                },
                {
                    "sampler" : 15,
                    "target" : {
                        "node" : 9,
                        "path" : "translation"
                    }
                },
                {
                    "sampler" : 16,
                    "target" : {
                        "node" : 9,
                        "path" : "rotation"
                    }
                },
                {
                    "sampler" : 17,
                    "target" : {
                        "node" : 9,
                        "path" : "scale"
                    }
                },
                {
                    "sampler" : 18,
                    "target" : {
                        "node" : 8,
                        "path" : "translation"
                    }
                },
                {
                    "sampler" : 19,
                    "target" : {
                        "node" : 8,
                        "path" : "rotation"
                    }
                },
                {
                    "sampler" : 20,
                    "target" : {
                        "node" : 8,
                        "path" : "scale"
                    }
                },
                {
                    "sampler" : 21,
                    "target" : {
                        "node" : 7,
                        "path" : "translation"
                    }
                },
                {
                    "sampler" : 22,
                    "target" : {
                        "node" : 7,
                        "path" : "rotation"
                    }
                },
                {
                    "sampler" : 23,
                    "target" : {
                        "node" : 7,
                        "path" : "scale"
                    }
                },
                {
                    "sampler" : 24,
                    "target" : {
                        "node" : 4,
                        "path" : "translation"
                    }
                },
                {
                    "sampler" : 25,
                    "target" : {
                        "node" : 4,
                        "path" : "rotation"
                    }
                },
                {
                    "sampler" : 26,
                    "target" : {
                        "node" : 4,
                        "path" : "scale"
                    }
                },
                {
                    "sampler" : 27,
                    "target" : {
                        "node" : 3,
                        "path" : "translation"
                    }
                },
                {
                    "sampler" : 28,
                    "target" : {
                        "node" : 3,
                        "path" : "rotation"
                    }
                },
                {
                    "sampler" : 29,
                    "target" : {
                        "node" : 3,
                        "path" : "scale"
                    }
                },
                {
                    "sampler" : 30,
                    "target" : {
                        "node" : 6,
                        "path" : "translation"
                    }
                },
                {
                    "sampler" : 31,
                    "target" : {
                        "node" : 6,
                        "path" : "rotation"
                    }
                },
                {
                    "sampler" : 32,
                    "target" : {
                        "node" : 6,
                        "path" : "scale"
                    }
                },
                {
                    "sampler" : 33,
                    "target" : {
                        "node" : 5,
                        "path" : "translation"
                    }
                },
                {
                    "sampler" : 34,
                    "target" : {
                        "node" : 5,
                        "path" : "rotation"
                    }
                },
                {
                    "sampler" : 35,
                    "target" : {
                        "node" : 5,
                        "path" : "scale"
                    }
                },
                {
                    "sampler" : 36,
                    "target" : {
                        "node" : 16,
                        "path" : "translation"
                    }
                },
                {
                    "sampler" : 37,
                    "target" : {
                        "node" : 16,
                        "path" : "rotation"
                    }
                },
                {
                    "sampler" : 38,
                    "target" : {
                        "node" : 16,
                        "path" : "scale"
                    }
                },
                {
                    "sampler" : 39,
                    "target" : {
                        "node" : 15,
                        "path" : "translation"
                    }
                },
                {
                    "sampler" : 40,
                    "target" : {
                        "node" : 15,
                        "path" : "rotation"
                    }
                },
                {
                    "sampler" : 41,
                    "target" : {
                        "node" : 15,
                        "path" : "scale"
                    }
                },
                {
                    "sampler" : 42,
                    "target" : {
                        "node" : 14,
                        "path" : "translation"
                    }
                },
                {
                    "sampler" : 43,
                    "target" : {
                        "node" : 14,
                        "path" : "rotation"
                    }
                },
                {
                    "sampler" : 44,
                    "target" : {
                        "node" : 14,
                        "path" : "scale"
                    }
                },
                {
                    "sampler" : 45,
                    "target" : {
                        "node" : 11,
                        "path" : "translation"
                    }
                },
                {
                    "sampler" : 46,
                    "target" : {
                        "node" : 11,
                        "path" : "rotation"
                    }
                },
                {
                    "sampler" : 47,
                    "target" : {
                        "node" : 11,
                        "path" : "scale"
                    }
                },
                {
                    "sampler" : 48,
                    "target" : {
                        "node" : 10,
                        "path" : "translation"
                    }
                },
                {
                    "sampler" : 49,
                    "target" : {
                        "node" : 10,
                        "path" : "rotation"
                    }
                },
                {
                    "sampler" : 50,
                    "target" : {
                        "node" : 10,
                        "path" : "scale"
                    }
                },
                {
                    "sampler" : 51,
                    "target" : {
                        "node" : 13,
                        "path" : "translation"
                    }
                },
                {
                    "sampler" : 52,
                    "target" : {
                        "node" : 13,
                        "path" : "rotation"
                    }
                },
                {
                    "sampler" : 53,
                    "target" : {
                        "node" : 13,
                        "path" : "scale"
                    }
                },
                {
                    "sampler" : 54,
                    "target" : {
                        "node" : 12,
                        "path" : "translation"
                    }
                },
                {
                    "sampler" : 55,
                    "target" : {
                        "node" : 12,
                        "path" : "rotation"
                    }
                },
                {
                    "sampler" : 56,
                    "target" : {
                        "node" : 12,
                        "path" : "scale"
                    }
                },
                {
                    "sampler" : 57,
                    "target" : {
                        "node" : 19,
                        "path" : "translation"
                    }
                },
                {
                    "sampler" : 58,
                    "target" : {
                        "node" : 19,
                        "path" : "rotation"
                    }
                },
                {
                    "sampler" : 59,
                    "target" : {
                        "node" : 19,
                        "path" : "scale"
                    }
                },
                {
                    "sampler" : 60,
                    "target" : {
                        "node" : 18,
                        "path" : "translation"
                    }
                },
                {
                    "sampler" : 61,
                    "target" : {
                        "node" : 18,
                        "path" : "rotation"
                    }
                },
                {
                    "sampler" : 62,
                    "target" : {
                        "node" : 18,
                        "path" : "scale"
                    }
                },
                {
                    "sampler" : 63,
                    "target" : {
                        "node" : 21,
                        "path" : "translation"
                    }
                },
                {
                    "sampler" : 64,
                    "target" : {
                        "node" : 21,
                        "path" : "rotation"
                    }
                },
                {
                    "sampler" : 65,
                    "target" : {
                        "node" : 21,
                        "path" : "scale"
                    }
                },
                {
                    "sampler" : 66,
                    "target" : {
                        "node" : 20,
                        "path" : "translation"
                    }
                },
                {
                    "sampler" : 67,
                    "target" : {
                        "node" : 20,
                        "path" : "rotation"
                    }
                },
                {
                    "sampler" : 68,
                    "target" : {
                        "node" : 20,
                        "path" : "scale"
                    }
                },
                {
                    "sampler" : 69,
                    "target" : {
                        "node" : 23,
                        "path" : "translation"
                    }
                },
                {
                    "sampler" : 70,
                    "target" : {
                        "node" : 23,
                        "path" : "rotation"
                    }
                },
                {
                    "sampler" : 71,
                    "target" : {
                        "node" : 23,
                        "path" : "scale"
                    }
                },
                {
                    "sampler" : 72,
                    "target" : {
                        "node" : 29,
                        "path" : "translation"
                    }
                },
                {
                    "sampler" : 73,
                    "target" : {
                        "node" : 29,
                        "path" : "rotation"
                    }
                },
                {
                    "sampler" : 74,
                    "target" : {
                        "node" : 29,
                        "path" : "scale"
                    }
                },
                {
                    "sampler" : 75,
                    "target" : {
                        "node" : 25,
                        "path" : "translation"
                    }
                },
                {
                    "sampler" : 76,
                    "target" : {
                        "node" : 25,
                        "path" : "rotation"
                    }
                },
                {
                    "sampler" : 77,
                    "target" : {
                        "node" : 25,
                        "path" : "scale"
                    }
                },
                {
                    "sampler" : 78,
                    "target" : {
                        "node" : 24,
                        "path" : "translation"
                    }
                },
                {
                    "sampler" : 79,
                    "target" : {
                        "node" : 24,
                        "path" : "rotation"
                    }
                },
                {
                    "sampler" : 80,
                    "target" : {
                        "node" : 24,
                        "path" : "scale"
                    }
                },
                {
                    "sampler" : 81,
                    "target" : {
                        "node" : 27,
                        "path" : "translation"
                    }
                },
                {
                    "sampler" : 82,
                    "target" : {
                        "node" : 27,
                        "path" : "rotation"
                    }
                },
                {
                    "sampler" : 83,
                    "target" : {
                        "node" : 27,
                        "path" : "scale"
                    }
                },
                {
                    "sampler" : 84,
                    "target" : {
                        "node" : 26,
                        "path" : "translation"
                    }
                },
                {
                    "sampler" : 85,
                    "target" : {
                        "node" : 26,
                        "path" : "rotation"
                    }
                },
                {
                    "sampler" : 86,
                    "target" : {
                        "node" : 26,
                        "path" : "scale"
                    }
                },
                {
                    "sampler" : 87,
                    "target" : {
                        "node" : 28,
                        "path" : "translation"
                    }
                },
                {
                    "sampler" : 88,
                    "target" : {
                        "node" : 28,
                        "path" : "rotation"
                    }
                },
                {
                    "sampler" : 89,
                    "target" : {
                        "node" : 28,
                        "path" : "scale"
                    }
                },
                {
                    "sampler" : 90,
                    "target" : {
                        "node" : 30,
                        "path" : "translation"
                    }
                },
                {
                    "sampler" : 91,
                    "target" : {
                        "node" : 30,
                        "path" : "rotation"
                    }
                },
                {
                    "sampler" : 92,
                    "target" : {
                        "node" : 30,
                        "path" : "scale"
                    }
                },
                {
                    "sampler" : 93,
                    "target" : {
                        "node" : 36,
                        "path" : "translation"
                    }
                },
                {
                    "sampler" : 94,
                    "target" : {
                        "node" : 36,
                        "path" : "rotation"
                    }
                },
                {
                    "sampler" : 95,
                    "target" : {
                        "node" : 36,
                        "path" : "scale"
                    }
                },
                {
                    "sampler" : 96,
                    "target" : {
                        "node" : 32,
                        "path" : "translation"
                    }
                },
                {
                    "sampler" : 97,
                    "target" : {
                        "node" : 32,
                        "path" : "rotation"
                    }
                },
                {
                    "sampler" : 98,
                    "target" : {
                        "node" : 32,
                        "path" : "scale"
                    }
                },
                {
                    "sampler" : 99,
                    "target" : {
                        "node" : 31,
                        "path" : "translation"
                    }
                },
                {
                    "sampler" : 100,
                    "target" : {
                        "node" : 31,
                        "path" : "rotation"
                    }
                },
                {
                    "sampler" : 101,
                    "target" : {
                        "node" : 31,
                        "path" : "scale"
                    }
                },
                {
                    "sampler" : 102,
                    "target" : {
                        "node" : 34,
                        "path" : "translation"
                    }
                },
                {
                    "sampler" : 103,
                    "target" : {
                        "node" : 34,
                        "path" : "rotation"
                    }
                },
                {
                    "sampler" : 104,
                    "target" : {
                        "node" : 34,
                        "path" : "scale"
                    }
                },
                {
                    "sampler" : 105,
                    "target" : {
                        "node" : 33,
                        "path" : "translation"
                    }
                },
                {
                    "sampler" : 106,
                    "target" : {
                        "node" : 33,
                        "path" : "rotation"
                    }
                },
                {
                    "sampler" : 107,
                    "target" : {
                        "node" : 33,
                        "path" : "scale"
                    }
                },
                {
                    "sampler" : 108,
                    "target" : {
                        "node" : 35,
                        "path" : "translation"
                    }
                },
                {
                    "sampler" : 109,
                    "target" : {
                        "node" : 35,
                        "path" : "rotation"
                    }
                },
                {
                    "sampler" : 110,
                    "target" : {
                        "node" : 35,
                        "path" : "scale"
                    }
                }
            ],
            "name" : "dude_armature_squat",
            "samplers" : [
                {
                    "input" : 8,
                    "interpolation" : "LINEAR",
                    "output" : 9
                },
                {
                    "input" : 8,
                    "interpolation" : "LINEAR",
                    "output" : 10
                },
                {
                    "input" : 8,
                    "interpolation" : "LINEAR",
                    "output" : 11
                },
                {
                    "input" : 8,
                    "interpolation" : "LINEAR",
                    "output" : 12
                },
                {
                    "input" : 8,
                    "interpolation" : "LINEAR",
                    "output" : 13
                },
                {
                    "input" : 8,
                    "interpolation" : "LINEAR",
                    "output" : 14
                },
                {
                    "input" : 8,
                    "interpolation" : "LINEAR",
                    "output" : 15
                },
                {
                    "input" : 8,
                    "interpolation" : "LINEAR",
                    "output" : 16
                },
                {
                    "input" : 8,
                    "interpolation" : "LINEAR",
                    "output" : 17
                },
                {
                    "input" : 8,
                    "interpolation" : "LINEAR",
                    "output" : 18
                },
                {
                    "input" : 8,
                    "interpolation" : "LINEAR",
                    "output" : 19
                },
                {
                    "input" : 8,
                    "interpolation" : "LINEAR",
                    "output" : 20
                },
                {
                    "input" : 8,
                    "interpolation" : "LINEAR",
                    "output" : 21
                },
                {
                    "input" : 8,
                    "interpolation" : "LINEAR",
                    "output" : 22
                },
                {
                    "input" : 8,
                    "interpolation" : "LINEAR",
                    "output" : 23
                },
                {
                    "input" : 8,
                    "interpolation" : "LINEAR",
                    "output" : 24
                },
                {
                    "input" : 8,
                    "interpolation" : "LINEAR",
                    "output" : 25
                },
                {
                    "input" : 8,
                    "interpolation" : "LINEAR",
                    "output" : 26
                },
                {
                    "input" : 8,
                    "interpolation" : "LINEAR",
                    "output" : 27
                },
                {
                    "input" : 8,
                    "interpolation" : "LINEAR",
                    "output" : 28
                },
                {
                    "input" : 8,
                    "interpolation" : "LINEAR",
                    "output" : 29
                },
                {
                    "input" : 8,
                    "interpolation" : "LINEAR",
                    "output" : 30
                },
                {
                    "input" : 8,
                    "interpolation" : "LINEAR",
                    "output" : 31
                },
                {
                    "input" : 8,
                    "interpolation" : "LINEAR",
                    "output" : 32
                },
                {
                    "input" : 8,
                    "interpolation" : "LINEAR",
                    "output" : 33
                },
                {
                    "input" : 8,
                    "interpolation" : "LINEAR",
                    "output" : 34
                },
                {
                    "input" : 8,
                    "interpolation" : "LINEAR",
                    "output" : 35
                },
                {
                    "input" : 8,
                    "interpolation" : "LINEAR",
                    "output" : 36
                },
                {
                    "input" : 8,
                    "interpolation" : "LINEAR",
                    "output" : 37
                },
                {
                    "input" : 8,
                    "interpolation" : "LINEAR",
                    "output" : 38
                },
                {
                    "input" : 8,
                    "interpolation" : "LINEAR",
                    "output" : 39
                },
                {
                    "input" : 8,
                    "interpolation" : "LINEAR",
                    "output" : 40
                },
                {
                    "input" : 8,
                    "interpolation" : "LINEAR",
                    "output" : 41
                },
                {
                    "input" : 8,
                    "interpolation" : "LINEAR",
                    "output" : 42
                },
                {
                    "input" : 8,
                    "interpolation" : "LINEAR",
                    "output" : 43
                },
                {
                    "input" : 8,
                    "interpolation" : "LINEAR",
                    "output" : 44
                },
                {
                    "input" : 8,
                    "interpolation" : "LINEAR",
                    "output" : 45
                },
                {
                    "input" : 8,
                    "interpolation" : "LINEAR",
                    "output" : 46
                },
                {
                    "input" : 8,
                    "interpolation" : "LINEAR",
                    "output" : 47
                },
                {
                    "input" : 8,
                    "interpolation" : "LINEAR",
                    "output" : 48
                },
                {
                    "input" : 8,
                    "interpolation" : "LINEAR",
                    "output" : 49
                },
                {
                    "input" : 8,
                    "interpolation" : "LINEAR",
                    "output" : 50
                },
                {
                    "input" : 8,
                    "interpolation" : "LINEAR",
                    "output" : 51
                },
                {
                    "input" : 8,
                    "interpolation" : "LINEAR",
                    "output" : 52
                },
                {
                    "input" : 8,
                    "interpolation" : "LINEAR",
                    "output" : 53
                },
                {
                    "input" : 8,
                    "interpolation" : "LINEAR",
                    "output" : 54
                },
                {
                    "input" : 8,
                    "interpolation" : "LINEAR",
                    "output" : 55
                },
                {
                    "input" : 8,
                    "interpolation" : "LINEAR",
                    "output" : 56
                },
                {
                    "input" : 8,
                    "interpolation" : "LINEAR",
                    "output" : 57
                },
                {
                    "input" : 8,
                    "interpolation" : "LINEAR",
                    "output" : 58
                },
                {
                    "input" : 8,
                    "interpolation" : "LINEAR",
                    "output" : 59
                },
                {
                    "input" : 8,
                    "interpolation" : "LINEAR",
                    "output" : 60
                },
                {
                    "input" : 8,
                    "interpolation" : "LINEAR",
                    "output" : 61
                },
                {
                    "input" : 8,
                    "interpolation" : "LINEAR",
                    "output" : 62
                },
                {
                    "input" : 8,
                    "interpolation" : "LINEAR",
                    "output" : 63
                },
                {
                    "input" : 8,
                    "interpolation" : "LINEAR",
                    "output" : 64
                },
                {
                    "input" : 8,
                    "interpolation" : "LINEAR",
                    "output" : 65
                },
                {
                    "input" : 8,
                    "interpolation" : "LINEAR",
                    "output" : 66
                },
                {
                    "input" : 8,
                    "interpolation" : "LINEAR",
                    "output" : 67
                },
                {
                    "input" : 8,
                    "interpolation" : "LINEAR",
                    "output" : 68
                },
                {
                    "input" : 8,
                    "interpolation" : "LINEAR",
                    "output" : 69
                },
                {
                    "input" : 8,
                    "interpolation" : "LINEAR",
                    "output" : 70
                },
                {
                    "input" : 8,
                    "interpolation" : "LINEAR",
                    "output" : 71
                },
                {
                    "input" : 8,
                    "interpolation" : "LINEAR",
                    "output" : 72
                },
                {
                    "input" : 8,
                    "interpolation" : "LINEAR",
                    "output" : 73
                },
                {
                    "input" : 8,
                    "interpolation" : "LINEAR",
                    "output" : 74
                },
                {
                    "input" : 8,
                    "interpolation" : "LINEAR",
                    "output" : 75
                },
                {
                    "input" : 8,
                    "interpolation" : "LINEAR",
                    "output" : 76
                },
                {
                    "input" : 8,
                    "interpolation" : "LINEAR",
                    "output" : 77
                },
                {
                    "input" : 8,
                    "interpolation" : "LINEAR",
                    "output" : 78
                },
                {
                    "input" : 8,
                    "interpolation" : "LINEAR",
                    "output" : 79
                },
                {
                    "input" : 8,
                    "interpolation" : "LINEAR",
                    "output" : 80
                },
                {
                    "input" : 8,
                    "interpolation" : "LINEAR",
                    "output" : 81
                },
                {
                    "input" : 8,
                    "interpolation" : "LINEAR",
                    "output" : 82
                },
                {
                    "input" : 8,
                    "interpolation" : "LINEAR",
                    "output" : 83
                },
                {
                    "input" : 8,
                    "interpolation" : "LINEAR",
                    "output" : 84
                },
                {
                    "input" : 8,
                    "interpolation" : "LINEAR",
                    "output" : 85
                },
                {
                    "input" : 8,
                    "interpolation" : "LINEAR",
                    "output" : 86
                },
                {
                    "input" : 8,
                    "interpolation" : "LINEAR",
                    "output" : 87
                },
                {
                    "input" : 8,
                    "interpolation" : "LINEAR",
                    "output" : 88
                },
                {
                    "input" : 8,
                    "interpolation" : "LINEAR",
                    "output" : 89
                },
                {
                    "input" : 8,
                    "interpolation" : "LINEAR",
                    "output" : 90
                },
                {
                    "input" : 8,
                    "interpolation" : "LINEAR",
                    "output" : 91
                },
                {
                    "input" : 8,
                    "interpolation" : "LINEAR",
                    "output" : 92
                },
                {
                    "input" : 8,
                    "interpolation" : "LINEAR",
                    "output" : 93
                },
                {
                    "input" : 8,
                    "interpolation" : "LINEAR",
                    "output" : 94
                },
                {
                    "input" : 8,
                    "interpolation" : "LINEAR",
                    "output" : 95
                },
                {
                    "input" : 8,
                    "interpolation" : "LINEAR",
                    "output" : 96
                },
                {
                    "input" : 8,
                    "interpolation" : "LINEAR",
                    "output" : 97
                },
                {
                    "input" : 8,
                    "interpolation" : "LINEAR",
                    "output" : 98
                },
                {
                    "input" : 8,
                    "interpolation" : "LINEAR",
                    "output" : 99
                },
                {
                    "input" : 8,
                    "interpolation" : "LINEAR",
                    "output" : 100
                },
                {
                    "input" : 8,
                    "interpolation" : "LINEAR",
                    "output" : 101
                },
                {
                    "input" : 8,
                    "interpolation" : "LINEAR",
                    "output" : 102
                },
                {
                    "input" : 8,
                    "interpolation" : "LINEAR",
                    "output" : 103
                },
                {
                    "input" : 8,
                    "interpolation" : "LINEAR",
                    "output" : 104
                },
                {
                    "input" : 8,
                    "interpolation" : "LINEAR",
                    "output" : 105
                },
                {
                    "input" : 8,
                    "interpolation" : "LINEAR",
                    "output" : 106
                },
                {
                    "input" : 8,
                    "interpolation" : "LINEAR",
                    "output" : 107
                },
                {
                    "input" : 8,
                    "interpolation" : "LINEAR",
                    "output" : 108
                },
                {
                    "input" : 8,
                    "interpolation" : "LINEAR",
                    "output" : 109
                },
                {
                    "input" : 8,
                    "interpolation" : "LINEAR",
                    "output" : 110
                },
                {
                    "input" : 8,
                    "interpolation" : "LINEAR",
                    "output" : 111
                },
                {
                    "input" : 8,
                    "interpolation" : "LINEAR",
                    "output" : 112
                },
                {
                    "input" : 8,
                    "interpolation" : "LINEAR",
                    "output" : 113
                },
                {
                    "input" : 8,
                    "interpolation" : "LINEAR",
                    "output" : 114
                },
                {
                    "input" : 8,
                    "interpolation" : "LINEAR",
                    "output" : 115
                },
                {
                    "input" : 8,
                    "interpolation" : "LINEAR",
                    "output" : 116
                },
                {
                    "input" : 8,
                    "interpolation" : "LINEAR",
                    "output" : 117
                },
                {
                    "input" : 8,
                    "interpolation" : "LINEAR",
                    "output" : 118
                },
                {
                    "input" : 8,
                    "interpolation" : "LINEAR",
                    "output" : 119
                }
            ]
        }
    ],
    "materials" : [
        {
            "doubleSided" : true,
            "emissiveFactor" : [
                0,
                0,
                0
            ],
            "name" : "dude_material",
            "pbrMetallicRoughness" : {
                "baseColorTexture" : {
                    "index" : 0,
                    "texCoord" : 0
                },
                "metallicFactor" : 0,
                "roughnessFactor" : 0.4000000059604645
            }
        }
    ],
    "meshes" : [
        {
            "extras" : {
                "dude_mesh_extra_0001" : "Hello"
            },
            "name" : "dude",
            "primitives" : [
                {
                    "attributes" : {
                        "POSITION" : 0,
                        "NORMAL" : 1,
                        "TANGENT" : 2,
                        "TEXCOORD_0" : 3,
                        "JOINTS_0" : 4,
                        "WEIGHTS_0" : 5
                    },
                    "indices" : 6,
                    "material" : 0
                }
            ]
        }
    ],
    "textures" : [
        {
            "source" : 0
        }
    ],
    "images" : [
        {
            "bufferView" : 7,
            "mimeType" : "image/png",
            "name" : "dude_albedo"
        }
    ],
    "skins" : [
        {
            "inverseBindMatrices" : 7,
            "joints" : [
                22,
                17,
                2,
                1,
                0,
                9,
                8,
                7,
                4,
                3,
                6,
                5,
                16,
                15,
                14,
                11,
                10,
                13,
                12,
                19,
                18,
                21,
                20,
                23,
                29,
                25,
                24,
                27,
                26,
                28,
                30,
                36,
                32,
                31,
                34,
                33,
                35
            ],
            "name" : "dude_armature"
        }
    ],
    "accessors" : [
        {
            "bufferView" : 0,
            "componentType" : 5126,
            "count" : 1428,
            "max" : [
                1.5227149724960327,
                4.880826950073242,
                0.9938416481018066
            ],
            "min" : [
                -1.5227149724960327,
                0.00011134147644042969,
                -0.9938416481018066
            ],
            "type" : "VEC3"
        },
        {
            "bufferView" : 1,
            "componentType" : 5126,
            "count" : 1428,
            "type" : "VEC3"
        },
        {
            "bufferView" : 2,
            "componentType" : 5126,
            "count" : 1428,
            "type" : "VEC4"
        },
        {
            "bufferView" : 3,
            "componentType" : 5126,
            "count" : 1428,
            "type" : "VEC2"
        },
        {
            "bufferView" : 4,
            "componentType" : 5123,
            "count" : 1428,
            "type" : "VEC4"
        },
        {
            "bufferView" : 5,
            "componentType" : 5126,
            "count" : 1428,
            "type" : "VEC4"
        },
        {
            "bufferView" : 6,
            "componentType" : 5123,
            "count" : 3612,
            "type" : "SCALAR"
        },
        {
            "bufferView" : 8,
            "componentType" : 5126,
            "count" : 37,
            "type" : "MAT4"
        },
        {
            "bufferView" : 9,
            "componentType" : 5126,
            "count" : 30,
            "max" : [
                1.25
            ],
            "min" : [
                0.041666666666666664
            ],
            "type" : "SCALAR"
        },
        {
            "bufferView" : 10,
            "componentType" : 5126,
            "count" : 30,
            "type" : "VEC3"
        },
        {
            "bufferView" : 11,
            "componentType" : 5126,
            "count" : 30,
            "type" : "VEC4"
        },
        {
            "bufferView" : 12,
            "componentType" : 5126,
            "count" : 30,
            "type" : "VEC3"
        },
        {
            "bufferView" : 13,
            "componentType" : 5126,
            "count" : 30,
            "type" : "VEC3"
        },
        {
            "bufferView" : 14,
            "componentType" : 5126,
            "count" : 30,
            "type" : "VEC4"
        },
        {
            "bufferView" : 15,
            "componentType" : 5126,
            "count" : 30,
            "type" : "VEC3"
        },
        {
            "bufferView" : 16,
            "componentType" : 5126,
            "count" : 30,
            "type" : "VEC3"
        },
        {
            "bufferView" : 17,
            "componentType" : 5126,
            "count" : 30,
            "type" : "VEC4"
        },
        {
            "bufferView" : 18,
            "componentType" : 5126,
            "count" : 30,
            "type" : "VEC3"
        },
        {
            "bufferView" : 19,
            "componentType" : 5126,
            "count" : 30,
            "type" : "VEC3"
        },
        {
            "bufferView" : 20,
            "componentType" : 5126,
            "count" : 30,
            "type" : "VEC4"
        },
        {
            "bufferView" : 21,
            "componentType" : 5126,
            "count" : 30,
            "type" : "VEC3"
        },
        {
            "bufferView" : 22,
            "componentType" : 5126,
            "count" : 30,
            "type" : "VEC3"
        },
        {
            "bufferView" : 23,
            "componentType" : 5126,
            "count" : 30,
            "type" : "VEC4"
        },
        {
            "bufferView" : 24,
            "componentType" : 5126,
            "count" : 30,
            "type" : "VEC3"
        },
        {
            "bufferView" : 25,
            "componentType" : 5126,
            "count" : 30,
            "type" : "VEC3"
        },
        {
            "bufferView" : 26,
            "componentType" : 5126,
            "count" : 30,
            "type" : "VEC4"
        },
        {
            "bufferView" : 27,
            "componentType" : 5126,
            "count" : 30,
            "type" : "VEC3"
        },
        {
            "bufferView" : 28,
            "componentType" : 5126,
            "count" : 30,
            "type" : "VEC3"
        },
        {
            "bufferView" : 29,
            "componentType" : 5126,
            "count" : 30,
            "type" : "VEC4"
        },
        {
            "bufferView" : 30,
            "componentType" : 5126,
            "count" : 30,
            "type" : "VEC3"
        },
        {
            "bufferView" : 31,
            "componentType" : 5126,
            "count" : 30,
            "type" : "VEC3"
        },
        {
            "bufferView" : 32,
            "componentType" : 5126,
            "count" : 30,
            "type" : "VEC4"
        },
        {
            "bufferView" : 33,
            "componentType" : 5126,
            "count" : 30,
            "type" : "VEC3"
        },
        {
            "bufferView" : 34,
            "componentType" : 5126,
            "count" : 30,
            "type" : "VEC3"
        },
        {
            "bufferView" : 35,
            "componentType" : 5126,
            "count" : 30,
            "type" : "VEC4"
        },
        {
            "bufferView" : 36,
            "componentType" : 5126,
            "count" : 30,
            "type" : "VEC3"
        },
        {
            "bufferView" : 37,
            "componentType" : 5126,
            "count" : 30,
            "type" : "VEC3"
        },
        {
            "bufferView" : 38,
            "componentType" : 5126,
            "count" : 30,
            "type" : "VEC4"
        },
        {
            "bufferView" : 39,
            "componentType" : 5126,
            "count" : 30,
            "type" : "VEC3"
        },
        {
            "bufferView" : 40,
            "componentType" : 5126,
            "count" : 30,
            "type" : "VEC3"
        },
        {
            "bufferView" : 41,
            "componentType" : 5126,
            "count" : 30,
            "type" : "VEC4"
        },
        {
            "bufferView" : 42,
            "componentType" : 5126,
            "count" : 30,
            "type" : "VEC3"
        },
        {
            "bufferView" : 43,
            "componentType" : 5126,
            "count" : 30,
            "type" : "VEC3"
        },
        {
            "bufferView" : 44,
            "componentType" : 5126,
            "count" : 30,
            "type" : "VEC4"
        },
        {
            "bufferView" : 45,
            "componentType" : 5126,
            "count" : 30,
            "type" : "VEC3"
        },
        {
            "bufferView" : 46,
            "componentType" : 5126,
            "count" : 30,
            "type" : "VEC3"
        },
        {
            "bufferView" : 47,
            "componentType" : 5126,
            "count" : 30,
            "type" : "VEC4"
        },
        {
            "bufferView" : 48,
            "componentType" : 5126,
            "count" : 30,
            "type" : "VEC3"
        },
        {
            "bufferView" : 49,
            "componentType" : 5126,
            "count" : 30,
            "type" : "VEC3"
        },
        {
            "bufferView" : 50,
            "componentType" : 5126,
            "count" : 30,
            "type" : "VEC4"
        },
        {
            "bufferView" : 51,
            "componentType" : 5126,
            "count" : 30,
            "type" : "VEC3"
        },
        {
            "bufferView" : 52,
            "componentType" : 5126,
            "count" : 30,
            "type" : "VEC3"
        },
        {
            "bufferView" : 53,
            "componentType" : 5126,
            "count" : 30,
            "type" : "VEC4"
        },
        {
            "bufferView" : 54,
            "componentType" : 5126,
            "count" : 30,
            "type" : "VEC3"
        },
        {
            "bufferView" : 55,
            "componentType" : 5126,
            "count" : 30,
            "type" : "VEC3"
        },
        {
            "bufferView" : 56,
            "componentType" : 5126,
            "count" : 30,
            "type" : "VEC4"
        },
        {
            "bufferView" : 57,
            "componentType" : 5126,
            "count" : 30,
            "type" : "VEC3"
        },
        {
            "bufferView" : 58,
            "componentType" : 5126,
            "count" : 30,
            "type" : "VEC3"
        },
        {
            "bufferView" : 59,
            "componentType" : 5126,
            "count" : 30,
            "type" : "VEC4"
        },
        {
            "bufferView" : 60,
            "componentType" : 5126,
            "count" : 30,
            "type" : "VEC3"
        },
        {
            "bufferView" : 61,
            "componentType" : 5126,
            "count" : 30,
            "type" : "VEC3"
        },
        {
            "bufferView" : 62,
            "componentType" : 5126,
            "count" : 30,
            "type" : "VEC4"
        },
        {
            "bufferView" : 63,
            "componentType" : 5126,
            "count" : 30,
            "type" : "VEC3"
        },
        {
            "bufferView" : 64,
            "componentType" : 5126,
            "count" : 30,
            "type" : "VEC3"
        },
        {
            "bufferView" : 65,
            "componentType" : 5126,
            "count" : 30,
            "type" : "VEC4"
        },
        {
            "bufferView" : 66,
            "componentType" : 5126,
            "count" : 30,
            "type" : "VEC3"
        },
        {
            "bufferView" : 67,
            "componentType" : 5126,
            "count" : 30,
            "type" : "VEC3"
        },
        {
            "bufferView" : 68,
            "componentType" : 5126,
            "count" : 30,
            "type" : "VEC4"
        },
        {
            "bufferView" : 69,
            "componentType" : 5126,
            "count" : 30,
            "type" : "VEC3"
        },
        {
            "bufferView" : 70,
            "componentType" : 5126,
            "count" : 30,
            "type" : "VEC3"
        },
        {
            "bufferView" : 71,
            "componentType" : 5126,
            "count" : 30,
            "type" : "VEC4"
        },
        {
            "bufferView" : 72,
            "componentType" : 5126,
            "count" : 30,
            "type" : "VEC3"
        },
        {
            "bufferView" : 73,
            "componentType" : 5126,
            "count" : 30,
            "type" : "VEC3"
        },
        {
            "bufferView" : 74,
            "componentType" : 5126,
            "count" : 30,
            "type" : "VEC4"
        },
        {
            "bufferView" : 75,
            "componentType" : 5126,
            "count" : 30,
            "type" : "VEC3"
        },
        {
            "bufferView" : 76,
            "componentType" : 5126,
            "count" : 30,
            "type" : "VEC3"
        },
        {
            "bufferView" : 77,
            "componentType" : 5126,
            "count" : 30,
            "type" : "VEC4"
        },
        {
            "bufferView" : 78,
            "componentType" : 5126,
            "count" : 30,
            "type" : "VEC3"
        },
        {
            "bufferView" : 79,
            "componentType" : 5126,
            "count" : 30,
            "type" : "VEC3"
        },
        {
            "bufferView" : 80,
            "componentType" : 5126,
            "count" : 30,
            "type" : "VEC4"
        },
        {
            "bufferView" : 81,
            "componentType" : 5126,
            "count" : 30,
            "type" : "VEC3"
        },
        {
            "bufferView" : 82,
            "componentType" : 5126,
            "count" : 30,
            "type" : "VEC3"
        },
        {
            "bufferView" : 83,
            "componentType" : 5126,
            "count" : 30,
            "type" : "VEC4"
        },
        {
            "bufferView" : 84,
            "componentType" : 5126,
            "count" : 30,
            "type" : "VEC3"
        },
        {
            "bufferView" : 85,
            "componentType" : 5126,
            "count" : 30,
            "type" : "VEC3"
        },
        {
            "bufferView" : 86,
            "componentType" : 5126,
            "count" : 30,
            "type" : "VEC4"
        },
        {
            "bufferView" : 87,
            "componentType" : 5126,
            "count" : 30,
            "type" : "VEC3"
        },
        {
            "bufferView" : 88,
            "componentType" : 5126,
            "count" : 30,
            "type" : "VEC3"
        },
        {
            "bufferView" : 89,
            "componentType" : 5126,
            "count" : 30,
            "type" : "VEC4"
        },
        {
            "bufferView" : 90,
            "componentType" : 5126,
            "count" : 30,
            "type" : "VEC3"
        },
        {
            "bufferView" : 91,
            "componentType" : 5126,
            "count" : 30,
            "type" : "VEC3"
        },
        {
            "bufferView" : 92,
            "componentType" : 5126,
            "count" : 30,
            "type" : "VEC4"
        },
        {
            "bufferView" : 93,
            "componentType" : 5126,
            "count" : 30,
            "type" : "VEC3"
        },
        {
            "bufferView" : 94,
            "componentType" : 5126,
            "count" : 30,
            "type" : "VEC3"
        },
        {
            "bufferView" : 95,
            "componentType" : 5126,
            "count" : 30,
            "type" : "VEC4"
        },
        {
            "bufferView" : 96,
            "componentType" : 5126,
            "count" : 30,
            "type" : "VEC3"
        },
        {
            "bufferView" : 97,
            "componentType" : 5126,
            "count" : 30,
            "type" : "VEC3"
        },
        {
            "bufferView" : 98,
            "componentType" : 5126,
            "count" : 30,
            "type" : "VEC4"
        },
        {
            "bufferView" : 99,
            "componentType" : 5126,
            "count" : 30,
            "type" : "VEC3"
        },
        {
            "bufferView" : 100,
            "componentType" : 5126,
            "count" : 30,
            "type" : "VEC3"
        },
        {
            "bufferView" : 101,
            "componentType" : 5126,
            "count" : 30,
            "type" : "VEC4"
        },
        {
            "bufferView" : 102,
            "componentType" : 5126,
            "count" : 30,
            "type" : "VEC3"
        },
        {
            "bufferView" : 103,
            "componentType" : 5126,
            "count" : 30,
            "type" : "VEC3"
        },
        {
            "bufferView" : 104,
            "componentType" : 5126,
            "count" : 30,
            "type" : "VEC4"
        },
        {
            "bufferView" : 105,
            "componentType" : 5126,
            "count" : 30,
            "type" : "VEC3"
        },
        {
            "bufferView" : 106,
            "componentType" : 5126,
            "count" : 30,
            "type" : "VEC3"
        },
        {
            "bufferView" : 107,
            "componentType" : 5126,
            "count" : 30,
            "type" : "VEC4"
        },
        {
            "bufferView" : 108,
            "componentType" : 5126,
            "count" : 30,
            "type" : "VEC3"
        },
        {
            "bufferView" : 109,
            "componentType" : 5126,
            "count" : 30,
            "type" : "VEC3"
        },
        {
            "bufferView" : 110,
            "componentType" : 5126,
            "count" : 30,
            "type" : "VEC4"
        },
        {
            "bufferView" : 111,
            "componentType" : 5126,
            "count" : 30,
            "type" : "VEC3"
        },
        {
            "bufferView" : 112,
            "componentType" : 5126,
            "count" : 30,
            "type" : "VEC3"
        },
        {
            "bufferView" : 113,
            "componentType" : 5126,
            "count" : 30,
            "type" : "VEC4"
        },
        {
            "bufferView" : 114,
            "componentType" : 5126,
            "count" : 30,
            "type" : "VEC3"
        },
        {
            "bufferView" : 115,
            "componentType" : 5126,
            "count" : 30,
            "type" : "VEC3"
        },
        {
            "bufferView" : 116,
            "componentType" : 5126,
            "count" : 30,
            "type" : "VEC4"
        },
        {
            "bufferView" : 117,
            "componentType" : 5126,
            "count" : 30,
            "type" : "VEC3"
        },
        {
            "bufferView" : 118,
            "componentType" : 5126,
            "count" : 30,
            "type" : "VEC3"
        },
        {
            "bufferView" : 119,
            "componentType" : 5126,
            "count" : 30,
            "type" : "VEC4"
        },
        {
            "bufferView" : 120,
            "componentType" : 5126,
            "count" : 30,
            "type" : "VEC3"
        }
    ],
    "bufferViews" : [
        {
            "buffer" : 0,
            "byteLength" : 17136,
            "byteOffset" : 0
        },
        {
            "buffer" : 0,
            "byteLength" : 17136,
            "byteOffset" : 17136
        },
        {
            "buffer" : 0,
            "byteLength" : 22848,
            "byteOffset" : 34272
        },
        {
            "buffer" : 0,
            "byteLength" : 11424,
            "byteOffset" : 57120
        },
        {
            "buffer" : 0,
            "byteLength" : 11424,
            "byteOffset" : 68544
        },
        {
            "buffer" : 0,
            "byteLength" : 22848,
            "byteOffset" : 79968
        },
        {
            "buffer" : 0,
            "byteLength" : 7224,
            "byteOffset" : 102816
        },
        {
            "buffer" : 0,
            "byteLength" : 107666,
            "byteOffset" : 110040
        },
        {
            "buffer" : 0,
            "byteLength" : 2368,
            "byteOffset" : 217708
        },
        {
            "buffer" : 0,
            "byteLength" : 120,
            "byteOffset" : 220076
        },
        {
            "buffer" : 0,
            "byteLength" : 360,
            "byteOffset" : 220196
        },
        {
            "buffer" : 0,
            "byteLength" : 480,
            "byteOffset" : 220556
        },
        {
            "buffer" : 0,
            "byteLength" : 360,
            "byteOffset" : 221036
        },
        {
            "buffer" : 0,
            "byteLength" : 360,
            "byteOffset" : 221396
        },
        {
            "buffer" : 0,
            "byteLength" : 480,
            "byteOffset" : 221756
        },
        {
            "buffer" : 0,
            "byteLength" : 360,
            "byteOffset" : 222236
        },
        {
            "buffer" : 0,
            "byteLength" : 360,
            "byteOffset" : 222596
        },
        {
            "buffer" : 0,
            "byteLength" : 480,
            "byteOffset" : 222956
        },
        {
            "buffer" : 0,
            "byteLength" : 360,
            "byteOffset" : 223436
        },
        {
            "buffer" : 0,
            "byteLength" : 360,
            "byteOffset" : 223796
        },
        {
            "buffer" : 0,
            "byteLength" : 480,
            "byteOffset" : 224156
        },
        {
            "buffer" : 0,
            "byteLength" : 360,
            "byteOffset" : 224636
        },
        {
            "buffer" : 0,
            "byteLength" : 360,
            "byteOffset" : 224996
        },
        {
            "buffer" : 0,
            "byteLength" : 480,
            "byteOffset" : 225356
        },
        {
            "buffer" : 0,
            "byteLength" : 360,
            "byteOffset" : 225836
        },
        {
            "buffer" : 0,
            "byteLength" : 360,
            "byteOffset" : 226196
        },
        {
            "buffer" : 0,
            "byteLength" : 480,
            "byteOffset" : 226556
        },
        {
            "buffer" : 0,
            "byteLength" : 360,
            "byteOffset" : 227036
        },
        {
            "buffer" : 0,
            "byteLength" : 360,
            "byteOffset" : 227396
        },
        {
            "buffer" : 0,
            "byteLength" : 480,
            "byteOffset" : 227756
        },
        {
            "buffer" : 0,
            "byteLength" : 360,
            "byteOffset" : 228236
        },
        {
            "buffer" : 0,
            "byteLength" : 360,
            "byteOffset" : 228596
        },
        {
            "buffer" : 0,
            "byteLength" : 480,
            "byteOffset" : 228956
        },
        {
            "buffer" : 0,
            "byteLength" : 360,
            "byteOffset" : 229436
        },
        {
            "buffer" : 0,
            "byteLength" : 360,
            "byteOffset" : 229796
        },
        {
            "buffer" : 0,
            "byteLength" : 480,
            "byteOffset" : 230156
        },
        {
            "buffer" : 0,
            "byteLength" : 360,
            "byteOffset" : 230636
        },
        {
            "buffer" : 0,
            "byteLength" : 360,
            "byteOffset" : 230996
        },
        {
            "buffer" : 0,
            "byteLength" : 480,
            "byteOffset" : 231356
        },
        {
            "buffer" : 0,
            "byteLength" : 360,
            "byteOffset" : 231836
        },
        {
            "buffer" : 0,
            "byteLength" : 360,
            "byteOffset" : 232196
        },
        {
            "buffer" : 0,
            "byteLength" : 480,
            "byteOffset" : 232556
        },
        {
            "buffer" : 0,
            "byteLength" : 360,
            "byteOffset" : 233036
        },
        {
            "buffer" : 0,
            "byteLength" : 360,
            "byteOffset" : 233396
        },
        {
            "buffer" : 0,
            "byteLength" : 480,
            "byteOffset" : 233756
        },
        {
            "buffer" : 0,
            "byteLength" : 360,
            "byteOffset" : 234236
        },
        {
            "buffer" : 0,
            "byteLength" : 360,
            "byteOffset" : 234596
        },
        {
            "buffer" : 0,
            "byteLength" : 480,
            "byteOffset" : 234956
        },
        {
            "buffer" : 0,
            "byteLength" : 360,
            "byteOffset" : 235436
        },
        {
            "buffer" : 0,
            "byteLength" : 360,
            "byteOffset" : 235796
        },
        {
            "buffer" : 0,
            "byteLength" : 480,
            "byteOffset" : 236156
        },
        {
            "buffer" : 0,
            "byteLength" : 360,
            "byteOffset" : 236636
        },
        {
            "buffer" : 0,
            "byteLength" : 360,
            "byteOffset" : 236996
        },
        {
            "buffer" : 0,
            "byteLength" : 480,
            "byteOffset" : 237356
        },
        {
            "buffer" : 0,
            "byteLength" : 360,
            "byteOffset" : 237836
        },
        {
            "buffer" : 0,
            "byteLength" : 360,
            "byteOffset" : 238196
        },
        {
            "buffer" : 0,
            "byteLength" : 480,
            "byteOffset" : 238556
        },
        {
            "buffer" : 0,
            "byteLength" : 360,
            "byteOffset" : 239036
        },
        {
            "buffer" : 0,
            "byteLength" : 360,
            "byteOffset" : 239396
        },
        {
            "buffer" : 0,
            "byteLength" : 480,
            "byteOffset" : 239756
        },
        {
            "buffer" : 0,
            "byteLength" : 360,
            "byteOffset" : 240236
        },
        {
            "buffer" : 0,
            "byteLength" : 360,
            "byteOffset" : 240596
        },
        {
            "buffer" : 0,
            "byteLength" : 480,
            "byteOffset" : 240956
        },
        {
            "buffer" : 0,
            "byteLength" : 360,
            "byteOffset" : 241436
        },
        {
            "buffer" : 0,
            "byteLength" : 360,
            "byteOffset" : 241796
        },
        {
            "buffer" : 0,
            "byteLength" : 480,
            "byteOffset" : 242156
        },
        {
            "buffer" : 0,
            "byteLength" : 360,
            "byteOffset" : 242636
        },
        {
            "buffer" : 0,
            "byteLength" : 360,
            "byteOffset" : 242996
        },
        {
            "buffer" : 0,
            "byteLength" : 480,
            "byteOffset" : 243356
        },
        {
            "buffer" : 0,
            "byteLength" : 360,
            "byteOffset" : 243836
        },
        {
            "buffer" : 0,
            "byteLength" : 360,
            "byteOffset" : 244196
        },
        {
            "buffer" : 0,
            "byteLength" : 480,
            "byteOffset" : 244556
        },
        {
            "buffer" : 0,
            "byteLength" : 360,
            "byteOffset" : 245036
        },
        {
            "buffer" : 0,
            "byteLength" : 360,
            "byteOffset" : 245396
        },
        {
            "buffer" : 0,
            "byteLength" : 480,
            "byteOffset" : 245756
        },
        {
            "buffer" : 0,
            "byteLength" : 360,
            "byteOffset" : 246236
        },
        {
            "buffer" : 0,
            "byteLength" : 360,
            "byteOffset" : 246596
        },
        {
            "buffer" : 0,
            "byteLength" : 480,
            "byteOffset" : 246956
        },
        {
            "buffer" : 0,
            "byteLength" : 360,
            "byteOffset" : 247436
        },
        {
            "buffer" : 0,
            "byteLength" : 360,
            "byteOffset" : 247796
        },
        {
            "buffer" : 0,
            "byteLength" : 480,
            "byteOffset" : 248156
        },
        {
            "buffer" : 0,
            "byteLength" : 360,
            "byteOffset" : 248636
        },
        {
            "buffer" : 0,
            "byteLength" : 360,
            "byteOffset" : 248996
        },
        {
            "buffer" : 0,
            "byteLength" : 480,
            "byteOffset" : 249356
        },
        {
            "buffer" : 0,
            "byteLength" : 360,
            "byteOffset" : 249836
        },
        {
            "buffer" : 0,
            "byteLength" : 360,
            "byteOffset" : 250196
        },
        {
            "buffer" : 0,
            "byteLength" : 480,
            "byteOffset" : 250556
        },
        {
            "buffer" : 0,
            "byteLength" : 360,
            "byteOffset" : 251036
        },
        {
            "buffer" : 0,
            "byteLength" : 360,
            "byteOffset" : 251396
        },
        {
            "buffer" : 0,
            "byteLength" : 480,
            "byteOffset" : 251756
        },
        {
            "buffer" : 0,
            "byteLength" : 360,
            "byteOffset" : 252236
        },
        {
            "buffer" : 0,
            "byteLength" : 360,
            "byteOffset" : 252596
        },
        {
            "buffer" : 0,
            "byteLength" : 480,
            "byteOffset" : 252956
        },
        {
            "buffer" : 0,
            "byteLength" : 360,
            "byteOffset" : 253436
        },
        {
            "buffer" : 0,
            "byteLength" : 360,
            "byteOffset" : 253796
        },
        {
            "buffer" : 0,
            "byteLength" : 480,
            "byteOffset" : 254156
        },
        {
            "buffer" : 0,
            "byteLength" : 360,
            "byteOffset" : 254636
        },
        {
            "buffer" : 0,
            "byteLength" : 360,
            "byteOffset" : 254996
        },
        {
            "buffer" : 0,
            "byteLength" : 480,
            "byteOffset" : 255356
        },
        {
            "buffer" : 0,
            "byteLength" : 360,
            "byteOffset" : 255836
        },
        {
            "buffer" : 0,
            "byteLength" : 360,
            "byteOffset" : 256196
        },
        {
            "buffer" : 0,
            "byteLength" : 480,
            "byteOffset" : 256556
        },
        {
            "buffer" : 0,
            "byteLength" : 360,
            "byteOffset" : 257036
        },
        {
            "buffer" : 0,
            "byteLength" : 360,
            "byteOffset" : 257396
        },
        {
            "buffer" : 0,
            "byteLength" : 480,
            "byteOffset" : 257756
        },
        {
            "buffer" : 0,
            "byteLength" : 360,
            "byteOffset" : 258236
        },
        {
            "buffer" : 0,
            "byteLength" : 360,
            "byteOffset" : 258596
        },
        {
            "buffer" : 0,
            "byteLength" : 480,
            "byteOffset" : 258956
        },
        {
            "buffer" : 0,
            "byteLength" : 360,
            "byteOffset" : 259436
        },
        {
            "buffer" : 0,
            "byteLength" : 360,
            "byteOffset" : 259796
        },
        {
            "buffer" : 0,
            "byteLength" : 480,
            "byteOffset" : 260156
        },
        {
            "buffer" : 0,
            "byteLength" : 360,
            "byteOffset" : 260636
        },
        {
            "buffer" : 0,
            "byteLength" : 360,
            "byteOffset" : 260996
        },
        {
            "buffer" : 0,
            "byteLength" : 480,
            "byteOffset" : 261356
        },
        {
            "buffer" : 0,
            "byteLength" : 360,
            "byteOffset" : 261836
        },
        {
            "buffer" : 0,
            "byteLength" : 360,
            "byteOffset" : 262196
        },
        {
            "buffer" : 0,
            "byteLength" : 480,
            "byteOffset" : 262556
        },
        {
            "buffer" : 0,
            "byteLength" : 360,
            "byteOffset" : 263036
        },
        {
            "buffer" : 0,
            "byteLength" : 360,
            "byteOffset" : 263396
        },
        {
            "buffer" : 0,
            "byteLength" : 480,
            "byteOffset" : 263756
        },
        {
            "buffer" : 0,
            "byteLength" : 360,
            "byteOffset" : 264236
        }
    ],
    "buffers" : [
        {
            "byteLength" : 264596,
            "uri" : "data:application/octet-stream;base64,"
        }
    ]
}
