# Blender v2.80 (sub 45) OBJ File: 'letter_r.blend'
# www.blender.org
o Cube
v -0.000000 0.200000 0.025000
v -0.000000 -0.000000 0.025000
v 0.111111 0.200000 0.025000
v -0.000000 0.200000 -0.025000
v 0.044444 -0.000000 0.025000
v 0.111111 -0.000000 0.025000
v 0.133333 -0.000000 0.025000
v 0.155556 -0.000000 0.025000
v 0.133333 0.022222 -0.025000
v 0.133333 0.044444 -0.025000
v 0.133333 0.066667 -0.025000
v 0.133333 0.088889 -0.025000
v -0.000000 0.177778 -0.025000
v -0.000000 0.155556 0.025000
v -0.000000 0.111111 0.025000
v -0.000000 0.066667 0.025000
v 0.155556 0.177778 0.025000
v 0.111111 0.155556 0.025000
v 0.155556 0.111111 0.025000
v 0.155556 0.044444 0.025000
v 0.155556 0.022222 0.025000
v 0.111111 0.177778 0.025000
v -0.000000 0.177778 0.025000
v 0.133333 0.088889 0.025000
v 0.133333 0.066667 0.025000
v 0.133333 0.044444 0.025000
v 0.133333 0.022222 0.025000
v 0.111111 0.111111 0.025000
v 0.044444 0.088889 0.025000
v 0.111111 0.066667 0.025000
v 0.111111 0.044444 0.025000
v 0.111111 0.022222 0.025000
v 0.088889 0.111111 0.025000
v 0.066667 0.088889 0.025000
v 0.088889 0.066667 0.025000
v 0.088889 0.044444 0.025000
v 0.088889 0.022222 0.025000
v 0.155556 0.155556 0.025000
v 0.066667 0.111111 0.025000
v 0.088889 0.088889 0.025000
v 0.066667 0.066667 0.025000
v 0.066667 0.044444 0.025000
v 0.044444 0.111111 0.025000
v 0.044444 0.066667 0.025000
v 0.111111 0.177778 -0.025000
v 0.155556 0.022222 -0.025000
v 0.155556 0.044444 -0.025000
v 0.155556 0.111111 -0.025000
v 0.111111 0.155556 -0.025000
v 0.155556 0.177778 -0.025000
v 0.133333 0.200000 -0.025000
v 0.133333 0.177778 -0.025000
v 0.133333 0.111111 -0.025000
v 0.133333 0.155556 -0.025000
v -0.000000 0.066667 -0.025000
v -0.000000 0.088889 -0.025000
v 0.111111 0.088889 -0.025000
v 0.044444 0.200000 -0.025000
v 0.044444 0.177778 -0.025000
v 0.044444 0.155556 -0.025000
v -0.000000 0.111111 -0.025000
v -0.000000 0.155556 -0.025000
v 0.044444 0.066667 -0.025000
v 0.044444 0.111111 -0.025000
v 0.066667 0.044444 -0.025000
v 0.155556 -0.000000 -0.025000
v 0.133333 -0.000000 -0.025000
v 0.111111 -0.000000 -0.025000
v 0.066667 0.066667 -0.025000
v 0.088889 0.088889 -0.025000
v 0.066667 0.111111 -0.025000
v 0.155556 0.155556 -0.025000
v 0.088889 0.022222 -0.025000
v 0.044444 -0.000000 -0.025000
v 0.111111 0.200000 -0.025000
v -0.000000 -0.000000 -0.025000
v 0.088889 0.044444 -0.025000
v 0.088889 0.066667 -0.025000
v 0.066667 0.088889 -0.025000
v 0.088889 0.111111 -0.025000
v 0.111111 0.022222 -0.025000
v 0.111111 0.044444 -0.025000
v 0.111111 0.066667 -0.025000
v 0.044444 0.088889 -0.025000
v 0.111111 0.111111 -0.025000
v 0.044444 0.155556 0.025000
v 0.044444 0.177778 0.025000
v 0.044444 0.200000 0.025000
v 0.111111 0.088889 0.025000
v -0.000000 0.088889 0.025000
v 0.133333 0.155556 0.025000
v 0.133333 0.111111 0.025000
v 0.133333 0.177778 0.025000
v 0.133333 0.200000 0.025000
vt 0.180556 0.611111
vt 0.208333 0.583333
vt 0.180556 0.583333
vt 0.000000 0.000000
vt 0.000000 0.000000
vt 0.000000 0.000000
vt 0.125000 0.583333
vt 0.152778 0.555556
vt 0.125000 0.555556
vt 0.152778 0.555556
vt 0.125000 0.555556
vt 0.208333 0.611111
vt 0.208333 0.611111
vt 0.000000 0.000000
vt 0.000000 0.000000
vt 0.000000 0.000000
vt 0.000000 0.000000
vt 0.000000 0.000000
vt 0.000000 0.000000
vt 0.000000 0.000000
vt 0.000000 0.000000
vt 0.000000 0.000000
vt 0.000000 0.000000
vt 0.000000 0.000000
vt 0.000000 0.000000
vt 0.000000 0.000000
vt 0.000000 0.000000
vt 0.000000 0.000000
vt 0.180556 0.666667
vt 0.208333 0.638889
vt 0.180556 0.638889
vt 0.000000 0.000000
vt 0.000000 0.000000
vt 0.000000 0.000000
vt 0.000000 0.000000
vt 0.000000 0.000000
vt 0.000000 0.000000
vt 0.000000 0.000000
vt 0.000000 0.000000
vt 0.000000 0.000000
vt 0.000000 0.000000
vt 0.104167 0.305556
vt 0.000000 0.000000
vt 0.000000 0.000000
vt 0.152778 0.638889
vt 0.152778 0.611111
vt 0.104167 0.319444
vt 0.152778 0.583333
vt 0.125000 0.611111
vt 0.000000 0.000000
vt 0.000000 0.000000
vt 0.208333 0.638889
vt 0.180556 0.666667
vt 0.180556 0.638889
vt 0.000000 0.000000
vt 0.000000 0.000000
vt 0.000000 0.000000
vt 0.180556 0.611111
vt 0.152778 0.638889
vt 0.152778 0.611111
vt 0.104167 0.319444
vt 0.000000 0.000000
vt 0.152778 0.583333
vt 0.125000 0.611111
vt 0.125000 0.583333
vt 0.180556 0.583333
vt 0.208333 0.583333
vt 0.104167 0.305556
vt 0.000000 0.000000
vt 0.180556 0.555556
vt 0.180556 0.555556
vt 0.000000 0.000000
vt 0.000000 0.000000
vt 0.000000 0.000000
vt 0.000000 0.000000
vt 0.000000 0.000000
vt 0.000000 0.000000
vt 0.000000 0.000000
vt 0.000000 0.000000
vt 0.000000 0.000000
vt 0.000000 0.000000
vt 0.000000 0.000000
vt 0.000000 0.000000
vt 0.000000 0.000000
vt 0.000000 0.000000
vt 0.000000 0.000000
vt 0.000000 0.000000
vt 0.000000 0.000000
vt 0.000000 0.000000
vt 0.000000 0.000000
vt 0.208333 0.666667
vt 0.000000 0.000000
vt 0.000000 0.000000
vt 0.208333 0.666667
vt 0.000000 0.000000
vt 0.000000 0.000000
vn 0.0000 0.0000 -1.0000
vn 0.0000 0.0000 1.0000
vn 1.0000 0.0000 0.0000
vn 0.0000 1.0000 0.0000
vn 0.0000 -1.0000 0.0000
vn -1.0000 0.0000 0.0000
s off
f 82/1/1 11/2/1 10/3/1
f 5/4/2 16/5/2 2/6/2
f 67/7/1 46/8/1 66/9/1
f 66/9/3 21/10/3 8/11/3
f 30/12/4 11/2/4 83/13/4
f 59/14/1 4/15/1 58/16/1
f 55/17/1 74/18/1 76/19/1
f 84/20/1 55/17/1 56/21/1
f 52/22/1 72/23/1 54/24/1
f 52/22/1 75/25/1 51/26/1
f 53/27/1 49/28/1 54/24/1
f 65/29/1 78/30/1 77/31/1
f 79/32/1 63/33/1 84/20/1
f 49/28/1 59/14/1 45/34/1
f 75/25/1 59/14/1 58/16/1
f 13/35/1 60/36/1 62/37/1
f 60/36/1 61/38/1 62/37/1
f 71/39/1 84/20/1 64/40/1
f 48/41/1 54/24/1 72/23/1
f 64/40/1 56/21/1 61/38/1
f 45/34/1 54/24/1 49/28/1
f 53/27/1 57/42/1 85/43/1
f 79/32/1 78/30/1 69/44/1
f 73/45/1 82/1/1 81/46/1
f 77/31/1 83/13/1 82/1/1
f 71/39/1 70/47/1 79/32/1
f 81/46/1 10/3/1 9/48/1
f 68/49/1 9/48/1 67/7/1
f 70/47/1 83/13/1 78/30/1
f 16/5/2 29/50/2 90/51/2
f 35/52/2 42/53/2 36/54/2
f 44/55/2 34/56/2 29/50/2
f 35/52/2 34/56/2 41/57/2
f 31/58/2 37/59/2 32/60/2
f 30/12/2 36/54/2 31/58/2
f 40/61/2 39/62/2 34/56/2
f 30/12/2 40/61/2 35/52/2
f 27/63/2 6/64/2 7/65/2
f 26/66/2 32/60/2 27/63/2
f 25/67/2 31/58/2 26/66/2
f 89/68/2 33/69/2 40/61/2
f 21/10/2 7/65/2 8/11/2
f 20/70/2 27/63/2 21/10/2
f 26/66/4 47/71/4 10/3/4
f 1/72/2 87/73/2 88/74/2
f 80/75/1 57/42/1 70/47/1
f 9/48/1 47/71/1 46/8/1
f 38/76/2 93/77/2 91/78/2
f 3/79/2 93/77/2 94/80/2
f 18/81/2 92/82/2 91/78/2
f 87/73/2 18/81/2 22/83/2
f 3/79/2 87/73/2 22/83/2
f 86/84/2 23/85/2 14/86/2
f 15/87/2 86/84/2 14/86/2
f 29/50/2 39/62/2 43/88/2
f 90/51/2 43/88/2 15/87/2
f 91/78/2 19/89/2 38/76/2
f 91/78/2 22/83/2 18/81/2
f 89/68/2 92/82/2 28/90/2
f 75/25/4 94/80/4 51/26/4
f 88/74/4 75/25/4 58/16/4
f 1/72/4 58/16/4 4/15/4
f 30/12/3 57/42/3 89/68/3
f 46/8/3 20/70/3 21/10/3
f 7/65/5 66/9/5 8/11/5
f 10/3/3 25/67/3 26/66/3
f 6/64/5 67/7/5 7/65/5
f 32/60/6 68/49/6 6/64/6
f 81/46/5 37/59/5 73/45/5
f 65/29/5 36/54/5 42/53/5
f 36/54/6 73/45/6 37/59/6
f 42/53/6 69/91/6 65/29/6
f 69/91/5 44/55/5 63/33/5
f 74/18/3 44/55/3 5/4/3
f 76/19/5 5/4/5 2/6/5
f 55/17/6 2/6/6 16/5/6
f 56/21/6 16/5/6 90/51/6
f 56/21/6 15/87/6 61/38/6
f 14/86/6 61/38/6 15/87/6
f 23/85/6 62/37/6 14/86/6
f 23/85/6 4/15/6 13/35/6
f 28/90/6 49/28/6 85/43/6
f 86/84/5 49/28/5 18/81/5
f 86/84/3 64/40/3 60/36/3
f 39/62/4 80/75/4 71/39/4
f 43/88/4 71/39/4 64/40/4
f 33/69/4 85/43/4 80/75/4
f 12/92/5 89/68/5 57/42/5
f 92/82/3 12/92/3 53/27/3
f 19/89/5 53/27/5 48/41/5
f 72/23/3 19/89/3 48/41/3
f 50/93/3 38/76/3 72/23/3
f 93/77/4 50/93/4 52/22/4
f 51/26/3 93/77/3 52/22/3
f 82/1/1 83/13/1 11/2/1
f 5/4/2 44/55/2 16/5/2
f 67/7/1 9/48/1 46/8/1
f 66/9/3 46/8/3 21/10/3
f 30/12/4 25/67/4 11/2/4
f 59/14/1 13/35/1 4/15/1
f 55/17/1 63/33/1 74/18/1
f 84/20/1 63/33/1 55/17/1
f 52/22/1 50/93/1 72/23/1
f 52/22/1 45/34/1 75/25/1
f 53/27/1 85/43/1 49/28/1
f 65/29/1 69/91/1 78/30/1
f 79/32/1 69/44/1 63/33/1
f 49/28/1 60/36/1 59/14/1
f 75/25/1 45/34/1 59/14/1
f 13/35/1 59/14/1 60/36/1
f 60/36/1 64/40/1 61/38/1
f 71/39/1 79/32/1 84/20/1
f 48/41/1 53/27/1 54/24/1
f 64/40/1 84/20/1 56/21/1
f 45/34/1 52/22/1 54/24/1
f 53/27/1 12/92/1 57/42/1
f 79/32/1 70/47/1 78/30/1
f 73/45/1 77/31/1 82/1/1
f 77/31/1 78/30/1 83/13/1
f 71/39/1 80/75/1 70/47/1
f 81/46/1 82/1/1 10/3/1
f 68/49/1 81/46/1 9/48/1
f 70/47/1 57/42/1 83/13/1
f 16/5/2 44/55/2 29/50/2
f 35/52/2 41/94/2 42/53/2
f 44/55/2 41/57/2 34/56/2
f 35/52/2 40/61/2 34/56/2
f 31/58/2 36/54/2 37/59/2
f 30/12/2 35/52/2 36/54/2
f 40/61/2 33/69/2 39/62/2
f 30/12/2 89/68/2 40/61/2
f 27/63/2 32/60/2 6/64/2
f 26/66/2 31/58/2 32/60/2
f 25/67/2 30/12/2 31/58/2
f 89/68/2 28/90/2 33/69/2
f 21/10/2 27/63/2 7/65/2
f 20/70/2 26/66/2 27/63/2
f 26/66/4 20/70/4 47/71/4
f 1/72/2 23/85/2 87/73/2
f 80/75/1 85/43/1 57/42/1
f 9/48/1 10/3/1 47/71/1
f 38/76/2 17/95/2 93/77/2
f 3/79/2 22/83/2 93/77/2
f 18/81/2 28/90/2 92/82/2
f 87/73/2 86/84/2 18/81/2
f 3/79/2 88/74/2 87/73/2
f 86/84/2 87/73/2 23/85/2
f 15/87/2 43/88/2 86/84/2
f 29/50/2 34/56/2 39/62/2
f 90/51/2 29/50/2 43/88/2
f 91/78/2 92/82/2 19/89/2
f 91/78/2 93/77/2 22/83/2
f 89/68/2 24/96/2 92/82/2
f 75/25/4 3/79/4 94/80/4
f 88/74/4 3/79/4 75/25/4
f 1/72/4 88/74/4 58/16/4
f 30/12/3 83/13/3 57/42/3
f 46/8/3 47/71/3 20/70/3
f 7/65/5 67/7/5 66/9/5
f 10/3/3 11/2/3 25/67/3
f 6/64/5 68/49/5 67/7/5
f 32/60/6 81/46/6 68/49/6
f 81/46/5 32/60/5 37/59/5
f 65/29/5 77/31/5 36/54/5
f 36/54/6 77/31/6 73/45/6
f 42/53/6 41/94/6 69/91/6
f 69/91/5 41/57/5 44/55/5
f 74/18/3 63/33/3 44/55/3
f 76/19/5 74/18/5 5/4/5
f 55/17/6 76/19/6 2/6/6
f 56/21/6 55/17/6 16/5/6
f 56/21/6 90/51/6 15/87/6
f 14/86/6 62/37/6 61/38/6
f 23/85/6 13/35/6 62/37/6
f 23/85/6 1/72/6 4/15/6
f 28/90/6 18/81/6 49/28/6
f 86/84/5 60/36/5 49/28/5
f 86/84/3 43/88/3 64/40/3
f 39/62/4 33/69/4 80/75/4
f 43/88/4 39/62/4 71/39/4
f 33/69/4 28/90/4 85/43/4
f 12/92/5 24/96/5 89/68/5
f 92/82/3 24/96/3 12/92/3
f 19/89/5 92/82/5 53/27/5
f 72/23/3 38/76/3 19/89/3
f 50/93/3 17/95/3 38/76/3
f 93/77/4 17/95/4 50/93/4
f 51/26/3 94/80/3 93/77/3
