{
    "asset" : {
        "generator" : "Khronos glTF Blender I/O v1.2.18",
        "version" : "2.0"
    },
    "scene" : 0,
    "scenes" : [
        {
            "extras" : {
                "glTF2ExportSettings" : {
                    "export_apply" : 1,
                    "export_extras" : 1,
                    "export_format" : "GLTF_EMBEDDED",
                    "export_selected" : 0,
                    "export_tangents" : 1,
                    "export_texcoords" : 1
                }
            },
            "name" : "rock_scene",
            "nodes" : [
                0
            ]
        }
    ],
    "nodes" : [
        {
            "mesh" : 0,
            "name" : "rock",
            "rotation" : [
                0,
                0,
                0.027073798701167107,
                0.9996334314346313
            ],
            "translation" : [
                0,
                0.608837902545929,
                0
            ]
        }
    ],
    "materials" : [
        {
            "doubleSided" : true,
            "emissiveFactor" : [
                0,
                0,
                0
            ],
            "name" : "rock_0001",
            "pbrMetallicRoughness" : {
                "baseColorFactor" : [
                    0.02909952774643898,
                    0.02909952774643898,
                    0.02909952774643898,
                    1
                ],
                "metallicFactor" : 0,
                "roughnessFactor" : 0.8999999761581421
            }
        }
    ],
    "meshes" : [
        {
            "extras" : {
                "shader" : "mesh"
            },
            "name" : "rock_0001",
            "primitives" : [
                {
                    "attributes" : {
                        "POSITION" : 0,
                        "NORMAL" : 1,
                        "TANGENT" : 2,
                        "TEXCOORD_0" : 3
                    },
                    "indices" : 4,
                    "material" : 0
                }
            ]
        }
    ],
    "accessors" : [
        {
            "bufferView" : 0,
            "componentType" : 5126,
            "count" : 8394,
            "max" : [
                1.8684030771255493,
                2.6793603897094727,
                1.8213359117507935
            ],
            "min" : [
                -1.8651950359344482,
                -0.6571202874183655,
                -1.5849876403808594
            ],
            "type" : "VEC3"
        },
        {
            "bufferView" : 1,
            "componentType" : 5126,
            "count" : 8394,
            "type" : "VEC3"
        },
        {
            "bufferView" : 2,
            "componentType" : 5126,
            "count" : 8394,
            "type" : "VEC4"
        },
        {
            "bufferView" : 3,
            "componentType" : 5126,
            "count" : 8394,
            "type" : "VEC2"
        },
        {
            "bufferView" : 4,
            "componentType" : 5123,
            "count" : 8394,
            "type" : "SCALAR"
        }
    ],
    "bufferViews" : [
        {
            "buffer" : 0,
            "byteLength" : 100728,
            "byteOffset" : 0
        },
        {
            "buffer" : 0,
            "byteLength" : 100728,
            "byteOffset" : 100728
        },
        {
            "buffer" : 0,
            "byteLength" : 134304,
            "byteOffset" : 201456
        },
        {
            "buffer" : 0,
            "byteLength" : 67152,
            "byteOffset" : 335760
        },
        {
            "buffer" : 0,
            "byteLength" : 16788,
            "byteOffset" : 402912
        }
    ],
    "buffers" : [
        {
            "byteLength" : 419700,
            "uri" : "data:application/octet-stream;base64,"
        }
    ]
}
