# Blender v2.80 (sub 75) OBJ File: 'star.blend'
# www.blender.org
o Cylinder
v 0.000000 0.000000 -0.548308
v -0.000000 0.126870 0.000000
v 0.521472 0.000000 -0.169436
v 0.322287 0.000000 0.443590
v -0.322287 0.000000 0.443590
v -0.521472 0.000000 -0.169436
v -0.000000 -0.126870 0.000000
v 0.168533 0.000000 -0.231966
v 0.272692 0.000000 0.088603
v -0.000000 0.000000 0.286726
v -0.272692 0.000000 0.088603
v -0.168533 0.000000 -0.231966
vt 0.500419 0.962095
vt 0.500419 0.453970
vt 0.665642 0.683834
vt 0.982049 0.615905
vt 0.770952 0.370618
vt 0.807401 0.049060
vt 0.507629 0.170979
vt 0.193435 0.049060
vt 0.229885 0.370618
vt 0.018788 0.615906
vt 0.335196 0.683834
vt 0.500419 0.453970
vt 0.493208 0.170979
vn 0.3897 0.8972 -0.2076
vn 0.3179 0.8972 0.3065
vn -0.1932 0.8972 0.3970
vn -0.4373 0.8972 -0.0611
vn -0.0770 0.8972 -0.4348
vn 0.0770 -0.8972 -0.4348
vn -0.3897 -0.8972 -0.2076
vn 0.1932 -0.8972 0.3970
vn -0.3179 -0.8972 0.3065
vn 0.4373 -0.8972 -0.0611
vn 0.3179 -0.8972 0.3065
vn -0.4373 -0.8972 -0.0611
vn -0.1932 -0.8972 0.3970
vn -0.0770 -0.8972 -0.4348
vn 0.3897 -0.8972 -0.2076
vn -0.3897 0.8972 -0.2076
vn -0.3179 0.8972 0.3065
vn 0.1932 0.8972 0.3970
vn 0.4373 0.8972 -0.0611
vn 0.0770 0.8972 -0.4348
s off
f 1/1/1 2/2/1 8/3/1
f 3/4/2 2/2/2 9/5/2
f 4/6/3 2/2/3 10/7/3
f 5/8/4 2/2/4 11/9/4
f 6/10/5 2/2/5 12/11/5
f 8/3/6 3/4/6 7/12/6
f 12/11/7 1/1/7 7/12/7
f 10/13/8 5/8/8 7/12/8
f 11/9/9 6/10/9 7/12/9
f 9/5/10 4/6/10 7/12/10
f 3/4/11 9/5/11 7/12/11
f 5/8/12 11/9/12 7/12/12
f 4/6/13 10/7/13 7/12/13
f 6/10/14 12/11/14 7/12/14
f 1/1/15 8/3/15 7/12/15
f 2/2/16 1/1/16 12/11/16
f 2/2/17 6/10/17 11/9/17
f 2/2/18 5/8/18 10/13/18
f 2/2/19 4/6/19 9/5/19
f 2/2/20 3/4/20 8/3/20
