# Blender v2.80 (sub 45) OBJ File: 'wakeup.blend'
# www.blender.org
o Cylinder
v 7.036483 0.400000 -5.802030
v 7.036483 7.000000 -5.802030
v 8.774350 0.400000 1.812068
v 8.774350 7.000000 1.812068
v 3.904952 0.400000 7.918099
v 3.904952 7.000000 7.918099
v -3.904954 0.400000 7.918098
v -3.904954 7.000000 7.918098
v -8.774352 0.400000 1.812068
v -8.774352 7.000000 1.812068
v -7.036485 0.400000 -5.802028
v -7.036485 7.000000 -5.802028
v 1.799861 0.400000 -8.331745
v 1.799861 7.000000 -8.331745
v -1.799518 0.400000 -8.332078
v -1.799518 7.000000 -8.332078
v 1.799861 6.600000 -8.331745
v -1.799518 6.600000 -8.332078
v 1.800137 0.400000 -10.558127
v 9.147428 0.400000 -7.011967
v 1.800137 11.000000 -10.558127
v 9.147428 6.600000 -7.011967
v 11.406655 0.400000 2.886359
v 11.406655 11.000000 2.886359
v 9.147428 11.000000 -7.011967
v 11.406655 6.600000 2.886359
v 5.076437 0.400000 10.824200
v 5.076437 11.000000 10.824200
v 5.076437 6.600000 10.824200
v -5.076440 0.400000 10.824199
v -5.076440 11.000000 10.824199
v -5.076440 6.600000 10.824199
v -11.406657 0.400000 2.886359
v -11.406657 11.000000 2.886359
v -11.406657 6.600000 2.886359
v -9.147430 0.400000 -7.011965
v -9.147430 11.000000 -7.011965
v -9.147430 6.600000 -7.011965
v -1.800483 11.000000 -10.558127
v 1.800137 6.600000 -10.558127
v -1.800483 0.400000 -10.558127
v -1.800483 6.600000 -10.558127
v 1.800137 0.000000 -10.558127
v 9.147428 0.000000 -7.011967
v 11.406655 0.000000 2.886359
v 5.076437 0.000000 10.824200
v -5.076440 0.000000 10.824199
v -11.406657 0.000000 2.886359
v -9.147430 0.000000 -7.011965
v -1.800483 0.000000 -10.558127
v 1.799861 4.600000 -8.331745
v -1.799518 4.600000 -8.332078
v 1.800137 4.600000 -10.558127
v -1.800483 4.600000 -10.558127
vt 0.963791 0.845698
vt 0.963791 0.776559
vt 0.857143 1.000000
vt 0.714286 0.500000
vt 0.857143 0.500000
vt 0.571429 0.500000
vt 0.714286 1.000000
vt 0.428571 0.500000
vt 0.571429 1.000000
vt 0.202459 0.467106
vt 0.297559 0.467097
vt 0.145868 0.033767
vt 0.285714 0.500000
vt 0.428571 1.000000
vt 0.142857 0.500000
vt 0.285714 1.000000
vt 0.972143 1.000000
vt 0.857143 0.845698
vt 0.972143 0.845698
vt 0.857143 1.000000
vt 0.714286 0.845698
vt 0.714286 1.000000
vt 0.571429 0.845698
vt 0.571429 1.000000
vt 0.428571 0.845698
vt 0.428571 1.000000
vt 0.285714 0.845698
vt 0.354132 0.033767
vt 0.483983 0.196595
vt 0.286590 0.472379
vt 0.285714 1.000000
vt 0.142857 0.845698
vt 0.036195 0.845698
vt 0.142857 1.000000
vt 0.027857 0.845698
vt 0.027857 0.776559
vt 0.142857 0.500000
vt 0.285714 0.500000
vt 0.428571 0.500000
vt 0.571429 0.500000
vt 0.714286 0.500000
vt 0.857143 0.500000
vt 0.963791 1.000000
vt 0.972143 0.500000
vt 0.963791 0.500000
vt 0.036195 0.500000
vt 0.036195 0.776559
vt 0.972143 0.776559
vt 0.027857 0.500000
vt 0.428571 0.500000
vt 0.714286 0.500000
vt 0.285714 0.500000
vt 0.027857 0.500000
vt 0.857143 0.500000
vt 0.571429 0.500000
vt 0.142857 0.500000
vt 0.000000 0.000000
vt 0.000000 0.000000
vt 0.000000 0.000000
vt 0.000000 0.000000
vt 0.000000 0.000000
vt 0.000000 0.000000
vt 0.972143 0.500000
vt 0.027857 1.000000
vt 0.000000 0.000000
vt 0.000000 0.000000
vt 0.000000 0.000000
vt 0.000000 0.000000
vt 0.000000 0.000000
vt 0.000000 0.000000
vt 0.000000 0.000000
vt 0.036195 1.000000
vt 0.142857 1.000000
vt 0.437640 0.399638
vt 0.483983 0.196595
vt 0.354132 0.033767
vt 0.016017 0.196595
vt 0.062360 0.399638
vt 0.437640 0.399638
vt 0.213410 0.472379
vt 0.145868 0.033767
vt 0.062360 0.399638
vt 0.016017 0.196595
vt 0.000000 0.000000
vt 0.000000 0.000000
vt 0.000000 0.000000
vt 0.000000 0.000000
vt 0.000000 0.000000
vn -0.4350 0.0000 0.9004
vn -0.9749 0.0000 0.2225
vn -0.7818 0.0000 -0.6235
vn 0.0000 0.0000 -1.0000
vn 0.0000 -1.0000 0.0000
vn 0.7818 0.0000 -0.6235
vn 0.9749 0.0000 0.2225
vn 0.4347 0.0000 -0.9006
vn 0.9749 0.0000 -0.2225
vn 0.7818 0.0000 0.6235
vn 0.0000 0.0000 1.0000
vn -0.7818 0.0000 0.6235
vn 0.0000 1.0000 0.0000
vn -0.9749 0.0000 -0.2225
vn -0.4347 0.0000 -0.9006
vn -0.0001 -0.0000 1.0000
vn 1.0000 0.0000 -0.0004
vn 1.0000 0.0000 0.0001
vn -1.0000 0.0000 -0.0001
vn -1.0000 0.0000 0.0004
vn 0.4350 0.0000 0.9004
s off
f 17/1/1 51/2/1 2/3/1
f 3/4/2 2/3/2 1/5/2
f 5/6/3 4/7/3 3/4/3
f 7/8/4 6/9/4 5/6/4
f 16/10/5 14/11/5 8/12/5
f 9/13/6 8/14/6 7/8/6
f 11/15/7 10/16/7 9/13/7
f 21/17/8 22/18/8 40/19/8
f 25/20/9 26/21/9 22/18/9
f 24/22/10 29/23/10 26/21/10
f 28/24/11 32/25/11 29/23/11
f 31/26/12 35/27/12 32/25/12
f 28/28/13 24/29/13 21/30/13
f 34/31/14 38/32/14 35/27/14
f 40/19/13 18/33/13 17/1/13
f 37/34/15 42/35/15 38/32/15
f 38/32/15 42/35/15 54/36/15
f 35/27/14 36/37/14 33/38/14
f 32/25/12 33/38/12 30/39/12
f 29/23/11 30/39/11 27/40/11
f 26/21/10 27/40/10 23/41/10
f 22/18/9 23/41/9 20/42/9
f 30/39/13 5/6/13 7/8/13
f 14/43/16 18/33/16 17/1/16
f 1/5/13 19/44/13 13/45/13
f 5/6/13 23/41/13 3/4/13
f 15/46/17 54/36/17 52/47/17
f 53/48/18 17/1/18 51/2/18
f 3/4/13 20/42/13 1/5/13
f 41/49/13 11/15/13 15/46/13
f 36/37/13 9/13/13 11/15/13
f 33/38/13 7/8/13 9/13/13
f 47/50/11 27/40/11 30/39/11
f 45/51/9 20/42/9 23/41/9
f 48/52/12 30/39/12 33/38/12
f 50/53/15 36/37/15 41/49/15
f 44/54/8 19/44/8 20/42/8
f 46/55/10 23/41/10 27/40/10
f 49/56/14 33/38/14 36/37/14
f 3/57/13 1/58/13 13/59/13
f 19/60/13 15/61/13 13/59/13
f 41/62/4 43/63/4 50/53/4
f 48/52/5 49/56/5 50/53/5
f 40/19/4 39/64/4 21/17/4
f 51/2/19 19/44/19 13/45/19
f 42/35/20 52/47/20 18/33/20
f 52/65/16 17/66/16 18/67/16
f 52/65/5 53/68/5 51/69/5
f 42/70/4 53/68/4 54/71/4
f 53/48/8 22/18/8 20/42/8
f 18/33/21 16/72/21 12/73/21
f 51/2/1 13/45/1 1/5/1
f 1/5/1 2/3/1 51/2/1
f 2/3/1 14/43/1 17/1/1
f 3/4/2 4/7/2 2/3/2
f 5/6/3 6/9/3 4/7/3
f 7/8/4 8/14/4 6/9/4
f 14/11/5 2/74/5 4/75/5
f 4/75/5 6/76/5 14/11/5
f 6/76/5 8/12/5 14/11/5
f 8/12/5 10/77/5 16/10/5
f 10/77/5 12/78/5 16/10/5
f 9/13/6 10/16/6 8/14/6
f 11/15/7 12/73/7 10/16/7
f 21/17/8 25/20/8 22/18/8
f 25/20/9 24/22/9 26/21/9
f 24/22/10 28/24/10 29/23/10
f 28/24/11 31/26/11 32/25/11
f 31/26/12 34/31/12 35/27/12
f 24/29/13 25/79/13 21/30/13
f 21/30/13 39/80/13 31/81/13
f 39/80/13 37/82/13 34/83/13
f 31/81/13 39/80/13 34/83/13
f 31/81/13 28/28/13 21/30/13
f 34/31/14 37/34/14 38/32/14
f 40/19/13 42/35/13 18/33/13
f 37/34/15 39/64/15 42/35/15
f 41/49/15 36/37/15 54/36/15
f 36/37/15 38/32/15 54/36/15
f 35/27/14 38/32/14 36/37/14
f 32/25/12 35/27/12 33/38/12
f 29/23/11 32/25/11 30/39/11
f 26/21/10 29/23/10 27/40/10
f 22/18/9 26/21/9 23/41/9
f 30/39/13 27/40/13 5/6/13
f 14/43/16 16/72/16 18/33/16
f 1/5/13 20/42/13 19/44/13
f 5/6/13 27/40/13 23/41/13
f 15/46/17 41/49/17 54/36/17
f 53/48/18 40/19/18 17/1/18
f 3/4/13 23/41/13 20/42/13
f 41/49/13 36/37/13 11/15/13
f 36/37/13 33/38/13 9/13/13
f 33/38/13 30/39/13 7/8/13
f 47/50/11 46/55/11 27/40/11
f 45/51/9 44/54/9 20/42/9
f 48/52/12 47/50/12 30/39/12
f 50/53/15 49/56/15 36/37/15
f 44/54/8 43/63/8 19/44/8
f 46/55/10 45/51/10 23/41/10
f 49/56/14 48/52/14 33/38/14
f 13/59/13 15/61/13 7/84/13
f 15/61/13 11/85/13 9/86/13
f 7/84/13 15/61/13 9/86/13
f 7/84/13 5/87/13 13/59/13
f 5/87/13 3/57/13 13/59/13
f 19/60/13 41/62/13 15/61/13
f 41/62/4 19/44/4 43/63/4
f 50/53/5 43/63/5 47/50/5
f 43/63/5 44/54/5 45/51/5
f 46/55/5 43/63/5 45/51/5
f 46/55/5 47/50/5 43/63/5
f 47/50/5 48/52/5 50/53/5
f 40/19/4 42/35/4 39/64/4
f 51/2/19 53/48/19 19/44/19
f 42/35/20 54/36/20 52/47/20
f 52/65/16 51/69/16 17/66/16
f 52/65/5 54/71/5 53/68/5
f 42/70/4 40/88/4 53/68/4
f 20/42/8 19/44/8 53/48/8
f 53/48/8 40/19/8 22/18/8
f 12/73/21 11/15/21 52/47/21
f 11/15/21 15/46/21 52/47/21
f 52/47/21 18/33/21 12/73/21
